<?xml version="1.0" encoding="utf-8" standalone="no"?>
<!DOCTYPE svg PUBLIC "-//W3C//DTD SVG 1.1//EN"
  "http://www.w3.org/Graphics/SVG/1.1/DTD/svg11.dtd">
<!-- Created with matplotlib (https://matplotlib.org/) -->
<svg height="345.6pt" version="1.1" viewBox="0 0 518.4 345.6" width="518.4pt" xmlns="http://www.w3.org/2000/svg" xmlns:xlink="http://www.w3.org/1999/xlink">
 <defs>
  <style type="text/css">
*{stroke-linecap:butt;stroke-linejoin:round;}
  </style>
 </defs>
 <g id="figure_1">
  <g id="patch_1">
   <path d="M 0 345.6 
L 518.4 345.6 
L 518.4 0 
L 0 0 
z
" style="fill:#ffffff;"/>
  </g>
  <g id="axes_1">
   <g id="patch_2">
    <path d="M 3.00024 322.550385 
L 515.39976 322.550385 
L 515.39976 21.15774 
L 3.00024 21.15774 
z
" style="fill:#eeeeee;"/>
   </g>
   <g id="matplotlib.axis_1">
    <g id="xtick_1">
     <g id="line2d_1">
      <path clip-path="url(#p84df429a3f)" d="M 44.93368 322.550385 
L 44.93368 21.15774 
" style="fill:none;stroke:#ffffff;stroke-linecap:round;stroke-width:0.8;"/>
     </g>
     <g id="line2d_2">
      <defs>
       <path d="M 0 0 
L 0 3 
" id="m6ba7f3e109" style="stroke:#808080;"/>
      </defs>
      <g>
       <use style="fill:#808080;stroke:#808080;" x="44.93368" xlink:href="#m6ba7f3e109" y="322.550385"/>
      </g>
     </g>
     <g id="text_1">
      <!-- −4 -->
      <defs>
       <path d="M 10.59375 35.5 
L 73.1875 35.5 
L 73.1875 27.203125 
L 10.59375 27.203125 
z
" id="DejaVuSans-8722"/>
       <path d="M 37.796875 64.3125 
L 12.890625 25.390625 
L 37.796875 25.390625 
z
M 35.203125 72.90625 
L 47.609375 72.90625 
L 47.609375 25.390625 
L 58.015625 25.390625 
L 58.015625 17.1875 
L 47.609375 17.1875 
L 47.609375 0 
L 37.796875 0 
L 37.796875 17.1875 
L 4.890625 17.1875 
L 4.890625 26.703125 
z
" id="DejaVuSans-52"/>
      </defs>
      <g style="fill:#262626;" transform="translate(34.614149 339.688197)scale(0.14 -0.14)">
       <use xlink:href="#DejaVuSans-8722"/>
       <use x="83.789062" xlink:href="#DejaVuSans-52"/>
      </g>
     </g>
    </g>
    <g id="xtick_2">
     <g id="line2d_3">
      <path clip-path="url(#p84df429a3f)" d="M 155.418469 322.550385 
L 155.418469 21.15774 
" style="fill:none;stroke:#ffffff;stroke-linecap:round;stroke-width:0.8;"/>
     </g>
     <g id="line2d_4">
      <g>
       <use style="fill:#808080;stroke:#808080;" x="155.418469" xlink:href="#m6ba7f3e109" y="322.550385"/>
      </g>
     </g>
     <g id="text_2">
      <!-- −2 -->
      <defs>
       <path d="M 19.1875 8.296875 
L 53.609375 8.296875 
L 53.609375 0 
L 7.328125 0 
L 7.328125 8.296875 
Q 12.9375 14.109375 22.625 23.890625 
Q 32.328125 33.6875 34.8125 36.53125 
Q 39.546875 41.84375 41.421875 45.53125 
Q 43.3125 49.21875 43.3125 52.78125 
Q 43.3125 58.59375 39.234375 62.25 
Q 35.15625 65.921875 28.609375 65.921875 
Q 23.96875 65.921875 18.8125 64.3125 
Q 13.671875 62.703125 7.8125 59.421875 
L 7.8125 69.390625 
Q 13.765625 71.78125 18.9375 73 
Q 24.125 74.21875 28.421875 74.21875 
Q 39.75 74.21875 46.484375 68.546875 
Q 53.21875 62.890625 53.21875 53.421875 
Q 53.21875 48.921875 51.53125 44.890625 
Q 49.859375 40.875 45.40625 35.40625 
Q 44.1875 33.984375 37.640625 27.21875 
Q 31.109375 20.453125 19.1875 8.296875 
z
" id="DejaVuSans-50"/>
      </defs>
      <g style="fill:#262626;" transform="translate(145.098938 339.688197)scale(0.14 -0.14)">
       <use xlink:href="#DejaVuSans-8722"/>
       <use x="83.789062" xlink:href="#DejaVuSans-50"/>
      </g>
     </g>
    </g>
    <g id="xtick_3">
     <g id="line2d_5">
      <path clip-path="url(#p84df429a3f)" d="M 265.903258 322.550385 
L 265.903258 21.15774 
" style="fill:none;stroke:#ffffff;stroke-linecap:round;stroke-width:0.8;"/>
     </g>
     <g id="line2d_6">
      <g>
       <use style="fill:#808080;stroke:#808080;" x="265.903258" xlink:href="#m6ba7f3e109" y="322.550385"/>
      </g>
     </g>
     <g id="text_3">
      <!-- 0 -->
      <defs>
       <path d="M 31.78125 66.40625 
Q 24.171875 66.40625 20.328125 58.90625 
Q 16.5 51.421875 16.5 36.375 
Q 16.5 21.390625 20.328125 13.890625 
Q 24.171875 6.390625 31.78125 6.390625 
Q 39.453125 6.390625 43.28125 13.890625 
Q 47.125 21.390625 47.125 36.375 
Q 47.125 51.421875 43.28125 58.90625 
Q 39.453125 66.40625 31.78125 66.40625 
z
M 31.78125 74.21875 
Q 44.046875 74.21875 50.515625 64.515625 
Q 56.984375 54.828125 56.984375 36.375 
Q 56.984375 17.96875 50.515625 8.265625 
Q 44.046875 -1.421875 31.78125 -1.421875 
Q 19.53125 -1.421875 13.0625 8.265625 
Q 6.59375 17.96875 6.59375 36.375 
Q 6.59375 54.828125 13.0625 64.515625 
Q 19.53125 74.21875 31.78125 74.21875 
z
" id="DejaVuSans-48"/>
      </defs>
      <g style="fill:#262626;" transform="translate(261.449508 339.688197)scale(0.14 -0.14)">
       <use xlink:href="#DejaVuSans-48"/>
      </g>
     </g>
    </g>
    <g id="xtick_4">
     <g id="line2d_7">
      <path clip-path="url(#p84df429a3f)" d="M 376.388047 322.550385 
L 376.388047 21.15774 
" style="fill:none;stroke:#ffffff;stroke-linecap:round;stroke-width:0.8;"/>
     </g>
     <g id="line2d_8">
      <g>
       <use style="fill:#808080;stroke:#808080;" x="376.388047" xlink:href="#m6ba7f3e109" y="322.550385"/>
      </g>
     </g>
     <g id="text_4">
      <!-- 2 -->
      <g style="fill:#262626;" transform="translate(371.934297 339.688197)scale(0.14 -0.14)">
       <use xlink:href="#DejaVuSans-50"/>
      </g>
     </g>
    </g>
    <g id="xtick_5">
     <g id="line2d_9">
      <path clip-path="url(#p84df429a3f)" d="M 486.872836 322.550385 
L 486.872836 21.15774 
" style="fill:none;stroke:#ffffff;stroke-linecap:round;stroke-width:0.8;"/>
     </g>
     <g id="line2d_10">
      <g>
       <use style="fill:#808080;stroke:#808080;" x="486.872836" xlink:href="#m6ba7f3e109" y="322.550385"/>
      </g>
     </g>
     <g id="text_5">
      <!-- 4 -->
      <g style="fill:#262626;" transform="translate(482.419086 339.688197)scale(0.14 -0.14)">
       <use xlink:href="#DejaVuSans-52"/>
      </g>
     </g>
    </g>
   </g>
   <g id="matplotlib.axis_2"/>
   <g id="PolyCollection_1">
    <defs>
     <path d="M 26.291127 -36.749281 
L 26.291127 -36.799532 
L 28.63192 -36.799532 
L 30.972713 -36.800941 
L 33.313505 -36.803802 
L 35.654298 -36.80804 
L 37.995091 -36.814093 
L 40.335883 -36.821652 
L 42.676676 -36.831541 
L 45.017469 -36.844049 
L 47.358261 -36.859781 
L 49.699054 -36.878723 
L 52.039847 -36.902228 
L 54.38064 -36.931507 
L 56.721432 -36.967992 
L 59.062225 -37.012819 
L 61.403018 -37.068293 
L 63.74381 -37.135103 
L 66.084603 -37.217113 
L 68.425396 -37.314723 
L 70.766188 -37.428166 
L 73.106981 -37.560262 
L 75.447774 -37.709512 
L 77.788566 -37.876813 
L 80.129359 -38.061293 
L 82.470152 -38.264107 
L 84.810945 -38.482927 
L 87.151737 -38.722572 
L 89.49253 -38.980733 
L 91.833323 -39.261849 
L 94.174115 -39.569165 
L 96.514908 -39.905078 
L 98.855701 -40.278893 
L 101.196493 -40.69399 
L 103.537286 -41.159853 
L 105.878079 -41.686575 
L 108.218871 -42.28009 
L 110.559664 -42.947969 
L 112.900457 -43.698491 
L 115.24125 -44.537009 
L 117.582042 -45.461951 
L 119.922835 -46.475383 
L 122.263628 -47.578028 
L 124.60442 -48.76704 
L 126.945213 -50.046823 
L 129.286006 -51.420127 
L 131.626798 -52.897162 
L 133.967591 -54.487945 
L 136.308384 -56.200599 
L 138.649176 -58.053078 
L 140.989969 -60.055937 
L 143.330762 -62.218091 
L 145.671554 -64.545318 
L 148.012347 -67.058664 
L 150.35314 -69.74946 
L 152.693933 -72.630345 
L 155.034725 -75.697451 
L 157.375518 -78.956588 
L 159.716311 -82.411826 
L 162.057103 -86.074441 
L 164.397896 -89.928984 
L 166.738689 -93.997669 
L 169.079481 -98.260067 
L 171.420274 -102.729937 
L 173.761067 -107.389667 
L 176.101859 -112.250065 
L 178.442652 -117.311478 
L 180.783445 -122.562824 
L 183.124238 -128.007941 
L 185.46503 -133.656346 
L 187.805823 -139.487869 
L 190.146616 -145.516668 
L 192.487408 -151.724329 
L 194.828201 -158.093147 
L 197.168994 -164.613789 
L 199.509786 -171.263835 
L 201.850579 -177.996212 
L 204.191372 -184.799648 
L 206.532164 -191.629767 
L 208.872957 -198.467377 
L 211.21375 -205.279983 
L 213.554543 -212.03081 
L 215.895335 -218.708883 
L 218.236128 -225.2999 
L 220.576921 -231.784576 
L 222.917713 -238.133012 
L 225.258506 -244.343037 
L 227.599299 -250.390228 
L 229.940091 -256.253599 
L 232.280884 -261.912901 
L 234.621677 -267.35797 
L 236.962469 -272.545859 
L 239.303262 -277.480389 
L 241.644055 -282.135598 
L 243.984848 -286.526739 
L 246.32564 -290.617554 
L 248.666433 -294.413096 
L 251.007226 -297.884807 
L 253.348018 -301.008017 
L 255.688811 -303.767425 
L 258.029604 -306.125015 
L 260.370396 -308.026564 
L 262.711189 -309.451527 
L 265.051982 -310.357288 
L 267.392774 -310.742594 
L 269.733567 -310.573352 
L 272.07436 -309.852108 
L 274.415152 -308.597908 
L 276.755945 -306.836269 
L 279.096738 -304.566494 
L 281.437531 -301.832232 
L 283.778323 -298.647341 
L 286.119116 -295.041331 
L 288.459909 -291.043429 
L 290.800701 -286.663092 
L 293.141494 -281.940882 
L 295.482287 -276.911862 
L 297.823079 -271.611639 
L 300.163872 -266.087284 
L 302.504665 -260.361041 
L 304.845457 -254.477972 
L 307.18625 -248.460106 
L 309.527043 -242.327362 
L 311.867836 -236.105319 
L 314.208628 -229.790206 
L 316.549421 -223.379088 
L 318.890214 -216.877314 
L 321.231006 -210.289225 
L 323.571799 -203.620275 
L 325.912592 -196.889132 
L 328.253384 -190.122158 
L 330.594177 -183.336134 
L 332.93497 -176.573655 
L 335.275762 -169.872968 
L 337.616555 -163.268605 
L 339.957348 -156.786942 
L 342.298141 -150.457328 
L 344.638933 -144.31259 
L 346.979726 -138.349516 
L 349.320519 -132.574267 
L 351.661311 -126.995835 
L 354.002104 -121.611265 
L 356.342897 -116.417355 
L 358.683689 -111.413185 
L 361.024482 -106.604982 
L 363.365275 -101.990096 
L 365.706067 -97.578893 
L 368.04686 -93.369144 
L 370.387653 -89.37136 
L 372.728446 -85.58911 
L 375.069238 -82.015273 
L 377.410031 -78.657443 
L 379.750824 -75.502651 
L 382.091616 -72.540454 
L 384.432409 -69.759843 
L 386.773202 -67.156341 
L 389.113994 -64.718139 
L 391.454787 -62.434231 
L 393.79558 -60.295076 
L 396.136372 -58.303843 
L 398.477165 -56.444313 
L 400.817958 -54.707964 
L 403.15875 -53.088629 
L 405.499543 -51.587778 
L 407.840336 -50.189836 
L 410.181129 -48.896748 
L 412.521921 -47.700158 
L 414.862714 -46.598968 
L 417.203507 -45.589837 
L 419.544299 -44.674239 
L 421.885092 -43.846691 
L 424.225885 -43.10273 
L 426.566677 -42.434821 
L 428.90747 -41.840353 
L 431.248263 -41.306248 
L 433.589055 -40.829692 
L 435.929848 -40.399988 
L 438.270641 -40.013133 
L 440.611434 -39.662042 
L 442.952226 -39.342297 
L 445.293019 -39.050768 
L 447.633812 -38.786368 
L 449.974604 -38.548021 
L 452.315397 -38.332096 
L 454.65619 -38.13747 
L 456.996982 -37.963259 
L 459.337775 -37.808266 
L 461.678568 -37.669691 
L 464.01936 -37.547435 
L 466.360153 -37.438411 
L 468.700946 -37.344669 
L 471.041739 -37.262064 
L 473.382531 -37.191825 
L 475.723324 -37.133268 
L 478.064117 -37.084226 
L 480.404909 -37.043809 
L 482.745702 -37.01194 
L 485.086495 -36.987134 
L 487.427287 -36.96898 
L 489.76808 -36.956056 
L 492.108873 -36.948035 
L 492.108873 -36.749281 
L 492.108873 -36.749281 
L 489.76808 -36.749281 
L 487.427287 -36.749281 
L 485.086495 -36.749281 
L 482.745702 -36.749281 
L 480.404909 -36.749281 
L 478.064117 -36.749281 
L 475.723324 -36.749281 
L 473.382531 -36.749281 
L 471.041739 -36.749281 
L 468.700946 -36.749281 
L 466.360153 -36.749281 
L 464.01936 -36.749281 
L 461.678568 -36.749281 
L 459.337775 -36.749281 
L 456.996982 -36.749281 
L 454.65619 -36.749281 
L 452.315397 -36.749281 
L 449.974604 -36.749281 
L 447.633812 -36.749281 
L 445.293019 -36.749281 
L 442.952226 -36.749281 
L 440.611434 -36.749281 
L 438.270641 -36.749281 
L 435.929848 -36.749281 
L 433.589055 -36.749281 
L 431.248263 -36.749281 
L 428.90747 -36.749281 
L 426.566677 -36.749281 
L 424.225885 -36.749281 
L 421.885092 -36.749281 
L 419.544299 -36.749281 
L 417.203507 -36.749281 
L 414.862714 -36.749281 
L 412.521921 -36.749281 
L 410.181129 -36.749281 
L 407.840336 -36.749281 
L 405.499543 -36.749281 
L 403.15875 -36.749281 
L 400.817958 -36.749281 
L 398.477165 -36.749281 
L 396.136372 -36.749281 
L 393.79558 -36.749281 
L 391.454787 -36.749281 
L 389.113994 -36.749281 
L 386.773202 -36.749281 
L 384.432409 -36.749281 
L 382.091616 -36.749281 
L 379.750824 -36.749281 
L 377.410031 -36.749281 
L 375.069238 -36.749281 
L 372.728446 -36.749281 
L 370.387653 -36.749281 
L 368.04686 -36.749281 
L 365.706067 -36.749281 
L 363.365275 -36.749281 
L 361.024482 -36.749281 
L 358.683689 -36.749281 
L 356.342897 -36.749281 
L 354.002104 -36.749281 
L 351.661311 -36.749281 
L 349.320519 -36.749281 
L 346.979726 -36.749281 
L 344.638933 -36.749281 
L 342.298141 -36.749281 
L 339.957348 -36.749281 
L 337.616555 -36.749281 
L 335.275762 -36.749281 
L 332.93497 -36.749281 
L 330.594177 -36.749281 
L 328.253384 -36.749281 
L 325.912592 -36.749281 
L 323.571799 -36.749281 
L 321.231006 -36.749281 
L 318.890214 -36.749281 
L 316.549421 -36.749281 
L 314.208628 -36.749281 
L 311.867836 -36.749281 
L 309.527043 -36.749281 
L 307.18625 -36.749281 
L 304.845457 -36.749281 
L 302.504665 -36.749281 
L 300.163872 -36.749281 
L 297.823079 -36.749281 
L 295.482287 -36.749281 
L 293.141494 -36.749281 
L 290.800701 -36.749281 
L 288.459909 -36.749281 
L 286.119116 -36.749281 
L 283.778323 -36.749281 
L 281.437531 -36.749281 
L 279.096738 -36.749281 
L 276.755945 -36.749281 
L 274.415152 -36.749281 
L 272.07436 -36.749281 
L 269.733567 -36.749281 
L 267.392774 -36.749281 
L 265.051982 -36.749281 
L 262.711189 -36.749281 
L 260.370396 -36.749281 
L 258.029604 -36.749281 
L 255.688811 -36.749281 
L 253.348018 -36.749281 
L 251.007226 -36.749281 
L 248.666433 -36.749281 
L 246.32564 -36.749281 
L 243.984848 -36.749281 
L 241.644055 -36.749281 
L 239.303262 -36.749281 
L 236.962469 -36.749281 
L 234.621677 -36.749281 
L 232.280884 -36.749281 
L 229.940091 -36.749281 
L 227.599299 -36.749281 
L 225.258506 -36.749281 
L 222.917713 -36.749281 
L 220.576921 -36.749281 
L 218.236128 -36.749281 
L 215.895335 -36.749281 
L 213.554543 -36.749281 
L 211.21375 -36.749281 
L 208.872957 -36.749281 
L 206.532164 -36.749281 
L 204.191372 -36.749281 
L 201.850579 -36.749281 
L 199.509786 -36.749281 
L 197.168994 -36.749281 
L 194.828201 -36.749281 
L 192.487408 -36.749281 
L 190.146616 -36.749281 
L 187.805823 -36.749281 
L 185.46503 -36.749281 
L 183.124238 -36.749281 
L 180.783445 -36.749281 
L 178.442652 -36.749281 
L 176.101859 -36.749281 
L 173.761067 -36.749281 
L 171.420274 -36.749281 
L 169.079481 -36.749281 
L 166.738689 -36.749281 
L 164.397896 -36.749281 
L 162.057103 -36.749281 
L 159.716311 -36.749281 
L 157.375518 -36.749281 
L 155.034725 -36.749281 
L 152.693933 -36.749281 
L 150.35314 -36.749281 
L 148.012347 -36.749281 
L 145.671554 -36.749281 
L 143.330762 -36.749281 
L 140.989969 -36.749281 
L 138.649176 -36.749281 
L 136.308384 -36.749281 
L 133.967591 -36.749281 
L 131.626798 -36.749281 
L 129.286006 -36.749281 
L 126.945213 -36.749281 
L 124.60442 -36.749281 
L 122.263628 -36.749281 
L 119.922835 -36.749281 
L 117.582042 -36.749281 
L 115.24125 -36.749281 
L 112.900457 -36.749281 
L 110.559664 -36.749281 
L 108.218871 -36.749281 
L 105.878079 -36.749281 
L 103.537286 -36.749281 
L 101.196493 -36.749281 
L 98.855701 -36.749281 
L 96.514908 -36.749281 
L 94.174115 -36.749281 
L 91.833323 -36.749281 
L 89.49253 -36.749281 
L 87.151737 -36.749281 
L 84.810945 -36.749281 
L 82.470152 -36.749281 
L 80.129359 -36.749281 
L 77.788566 -36.749281 
L 75.447774 -36.749281 
L 73.106981 -36.749281 
L 70.766188 -36.749281 
L 68.425396 -36.749281 
L 66.084603 -36.749281 
L 63.74381 -36.749281 
L 61.403018 -36.749281 
L 59.062225 -36.749281 
L 56.721432 -36.749281 
L 54.38064 -36.749281 
L 52.039847 -36.749281 
L 49.699054 -36.749281 
L 47.358261 -36.749281 
L 45.017469 -36.749281 
L 42.676676 -36.749281 
L 40.335883 -36.749281 
L 37.995091 -36.749281 
L 35.654298 -36.749281 
L 33.313505 -36.749281 
L 30.972713 -36.749281 
L 28.63192 -36.749281 
L 26.291127 -36.749281 
z
" id="mfb88329226" style="stroke:#2a2eec;stroke-opacity:0;"/>
    </defs>
    <g clip-path="url(#p84df429a3f)">
     <use style="fill:#2a2eec;fill-opacity:0;stroke:#2a2eec;stroke-opacity:0;" x="0" xlink:href="#mfb88329226" y="345.6"/>
    </g>
   </g>
   <g id="line2d_11">
    <path clip-path="url(#p84df429a3f)" d="M 26.291127 308.800468 
L 52.039847 308.697772 
L 63.74381 308.464897 
L 73.106981 308.039738 
L 82.470152 307.335893 
L 89.49253 306.619267 
L 96.514908 305.694922 
L 101.196493 304.90601 
L 105.878079 303.913425 
L 110.559664 302.652031 
L 115.24125 301.062991 
L 119.922835 299.124617 
L 124.60442 296.83296 
L 129.286006 294.179873 
L 133.967591 291.112055 
L 136.308384 289.399401 
L 138.649176 287.546922 
L 140.989969 285.544063 
L 143.330762 283.381909 
L 145.671554 281.054682 
L 148.012347 278.541336 
L 150.35314 275.85054 
L 152.693933 272.969655 
L 155.034725 269.902549 
L 157.375518 266.643412 
L 159.716311 263.188174 
L 164.397896 255.671016 
L 169.079481 247.339933 
L 173.761067 238.210333 
L 178.442652 228.288522 
L 183.124238 217.592059 
L 187.805823 206.112131 
L 192.487408 193.875671 
L 197.168994 180.986211 
L 204.191372 160.800352 
L 215.895335 126.891117 
L 220.576921 113.815424 
L 225.258506 101.256963 
L 229.940091 89.346401 
L 234.621677 78.24203 
L 239.303262 68.119611 
L 241.644055 63.464402 
L 243.984848 59.073261 
L 246.32564 54.982446 
L 248.666433 51.186904 
L 251.007226 47.715193 
L 253.348018 44.591983 
L 255.688811 41.832575 
L 258.029604 39.474985 
L 260.370396 37.573436 
L 262.711189 36.148473 
L 265.051982 35.242712 
L 267.392774 34.857406 
L 269.733567 35.026648 
L 272.07436 35.747892 
L 274.415152 37.002092 
L 276.755945 38.763731 
L 279.096738 41.033506 
L 281.437531 43.767768 
L 283.778323 46.952659 
L 286.119116 50.558669 
L 288.459909 54.556571 
L 290.800701 58.936908 
L 293.141494 63.659118 
L 295.482287 68.688138 
L 300.163872 79.512716 
L 304.845457 91.122028 
L 309.527043 103.272638 
L 316.549421 122.220912 
L 323.571799 141.979725 
L 339.957348 188.813058 
L 344.638933 201.28741 
L 349.320519 213.025733 
L 354.002104 223.988735 
L 358.683689 234.186815 
L 363.365275 243.609904 
L 368.04686 252.230856 
L 372.728446 260.01089 
L 375.069238 263.584727 
L 377.410031 266.942557 
L 379.750824 270.097349 
L 382.091616 273.059546 
L 384.432409 275.840157 
L 389.113994 280.881861 
L 393.79558 285.304924 
L 398.477165 289.155687 
L 403.15875 292.511371 
L 407.840336 295.410164 
L 412.521921 297.899842 
L 417.203507 300.010163 
L 421.885092 301.753309 
L 426.566677 303.165179 
L 431.248263 304.293752 
L 435.929848 305.200012 
L 442.952226 306.257703 
L 449.974604 307.051979 
L 456.996982 307.636741 
L 466.360153 308.161589 
L 475.723324 308.466732 
L 487.427287 308.63102 
L 492.108873 308.651965 
L 492.108873 308.651965 
" style="fill:none;stroke:#2a2eec;stroke-linecap:round;stroke-width:1.5;"/>
   </g>
   <g id="line2d_12">
    <path clip-path="url(#p84df429a3f)" d="M 161.021247 303.09686 
L 369.968477 303.09686 
" style="fill:none;stroke:#000000;stroke-linecap:round;stroke-width:3;"/>
   </g>
   <g id="patch_3">
    <path d="M 3.00024 322.550385 
L 515.39976 322.550385 
" style="fill:none;"/>
   </g>
   <g id="text_6">
    <!-- -1.9 -->
    <defs>
     <path d="M 4.890625 31.390625 
L 31.203125 31.390625 
L 31.203125 23.390625 
L 4.890625 23.390625 
z
" id="DejaVuSans-45"/>
     <path d="M 12.40625 8.296875 
L 28.515625 8.296875 
L 28.515625 63.921875 
L 10.984375 60.40625 
L 10.984375 69.390625 
L 28.421875 72.90625 
L 38.28125 72.90625 
L 38.28125 8.296875 
L 54.390625 8.296875 
L 54.390625 0 
L 12.40625 0 
z
" id="DejaVuSans-49"/>
     <path d="M 10.6875 12.40625 
L 21 12.40625 
L 21 0 
L 10.6875 0 
z
" id="DejaVuSans-46"/>
     <path d="M 10.984375 1.515625 
L 10.984375 10.5 
Q 14.703125 8.734375 18.5 7.8125 
Q 22.3125 6.890625 25.984375 6.890625 
Q 35.75 6.890625 40.890625 13.453125 
Q 46.046875 20.015625 46.78125 33.40625 
Q 43.953125 29.203125 39.59375 26.953125 
Q 35.25 24.703125 29.984375 24.703125 
Q 19.046875 24.703125 12.671875 31.3125 
Q 6.296875 37.9375 6.296875 49.421875 
Q 6.296875 60.640625 12.9375 67.421875 
Q 19.578125 74.21875 30.609375 74.21875 
Q 43.265625 74.21875 49.921875 64.515625 
Q 56.59375 54.828125 56.59375 36.375 
Q 56.59375 19.140625 48.40625 8.859375 
Q 40.234375 -1.421875 26.421875 -1.421875 
Q 22.703125 -1.421875 18.890625 -0.6875 
Q 15.09375 0.046875 10.984375 1.515625 
z
M 30.609375 32.421875 
Q 37.25 32.421875 41.125 36.953125 
Q 45.015625 41.5 45.015625 49.421875 
Q 45.015625 57.28125 41.125 61.84375 
Q 37.25 66.40625 30.609375 66.40625 
Q 23.96875 66.40625 20.09375 61.84375 
Q 16.21875 57.28125 16.21875 49.421875 
Q 16.21875 41.5 20.09375 36.953125 
Q 23.96875 32.421875 30.609375 32.421875 
z
" id="DejaVuSans-57"/>
    </defs>
    <g style="fill:#262626;" transform="translate(146.388044 288.712211)scale(0.15 -0.15)">
     <use xlink:href="#DejaVuSans-45"/>
     <use x="36.083984" xlink:href="#DejaVuSans-49"/>
     <use x="99.707031" xlink:href="#DejaVuSans-46"/>
     <use x="131.494141" xlink:href="#DejaVuSans-57"/>
    </g>
   </g>
   <g id="text_7">
    <!-- 1.9 -->
    <g style="fill:#262626;" transform="translate(358.041133 288.712211)scale(0.15 -0.15)">
     <use xlink:href="#DejaVuSans-49"/>
     <use x="63.623047" xlink:href="#DejaVuSans-46"/>
     <use x="95.410156" xlink:href="#DejaVuSans-57"/>
    </g>
   </g>
   <g id="text_8">
    <!-- 94% HPD -->
    <defs>
     <path d="M 72.703125 32.078125 
Q 68.453125 32.078125 66.03125 28.46875 
Q 63.625 24.859375 63.625 18.40625 
Q 63.625 12.0625 66.03125 8.421875 
Q 68.453125 4.78125 72.703125 4.78125 
Q 76.859375 4.78125 79.265625 8.421875 
Q 81.6875 12.0625 81.6875 18.40625 
Q 81.6875 24.8125 79.265625 28.4375 
Q 76.859375 32.078125 72.703125 32.078125 
z
M 72.703125 38.28125 
Q 80.421875 38.28125 84.953125 32.90625 
Q 89.5 27.546875 89.5 18.40625 
Q 89.5 9.28125 84.9375 3.921875 
Q 80.375 -1.421875 72.703125 -1.421875 
Q 64.890625 -1.421875 60.34375 3.921875 
Q 55.8125 9.28125 55.8125 18.40625 
Q 55.8125 27.59375 60.375 32.9375 
Q 64.9375 38.28125 72.703125 38.28125 
z
M 22.3125 68.015625 
Q 18.109375 68.015625 15.6875 64.375 
Q 13.28125 60.75 13.28125 54.390625 
Q 13.28125 47.953125 15.671875 44.328125 
Q 18.0625 40.71875 22.3125 40.71875 
Q 26.5625 40.71875 28.96875 44.328125 
Q 31.390625 47.953125 31.390625 54.390625 
Q 31.390625 60.6875 28.953125 64.34375 
Q 26.515625 68.015625 22.3125 68.015625 
z
M 66.40625 74.21875 
L 74.21875 74.21875 
L 28.609375 -1.421875 
L 20.796875 -1.421875 
z
M 22.3125 74.21875 
Q 30.03125 74.21875 34.609375 68.875 
Q 39.203125 63.53125 39.203125 54.390625 
Q 39.203125 45.171875 34.640625 39.84375 
Q 30.078125 34.515625 22.3125 34.515625 
Q 14.546875 34.515625 10.03125 39.859375 
Q 5.515625 45.21875 5.515625 54.390625 
Q 5.515625 63.484375 10.046875 68.84375 
Q 14.59375 74.21875 22.3125 74.21875 
z
" id="DejaVuSans-37"/>
     <path id="DejaVuSans-32"/>
     <path d="M 9.8125 72.90625 
L 19.671875 72.90625 
L 19.671875 43.015625 
L 55.515625 43.015625 
L 55.515625 72.90625 
L 65.375 72.90625 
L 65.375 0 
L 55.515625 0 
L 55.515625 34.71875 
L 19.671875 34.71875 
L 19.671875 0 
L 9.8125 0 
z
" id="DejaVuSans-72"/>
     <path d="M 19.671875 64.796875 
L 19.671875 37.40625 
L 32.078125 37.40625 
Q 38.96875 37.40625 42.71875 40.96875 
Q 46.484375 44.53125 46.484375 51.125 
Q 46.484375 57.671875 42.71875 61.234375 
Q 38.96875 64.796875 32.078125 64.796875 
z
M 9.8125 72.90625 
L 32.078125 72.90625 
Q 44.34375 72.90625 50.609375 67.359375 
Q 56.890625 61.8125 56.890625 51.125 
Q 56.890625 40.328125 50.609375 34.8125 
Q 44.34375 29.296875 32.078125 29.296875 
L 19.671875 29.296875 
L 19.671875 0 
L 9.8125 0 
z
" id="DejaVuSans-80"/>
     <path d="M 19.671875 64.796875 
L 19.671875 8.109375 
L 31.59375 8.109375 
Q 46.6875 8.109375 53.6875 14.9375 
Q 60.6875 21.78125 60.6875 36.53125 
Q 60.6875 51.171875 53.6875 57.984375 
Q 46.6875 64.796875 31.59375 64.796875 
z
M 9.8125 72.90625 
L 30.078125 72.90625 
Q 51.265625 72.90625 61.171875 64.09375 
Q 71.09375 55.28125 71.09375 36.53125 
Q 71.09375 17.671875 61.125 8.828125 
Q 51.171875 0 30.078125 0 
L 9.8125 0 
z
" id="DejaVuSans-68"/>
    </defs>
    <g style="fill:#262626;" transform="translate(230.503846 222.542826)scale(0.15 -0.15)">
     <use xlink:href="#DejaVuSans-57"/>
     <use x="63.623047" xlink:href="#DejaVuSans-52"/>
     <use x="127.246094" xlink:href="#DejaVuSans-37"/>
     <use x="222.265625" xlink:href="#DejaVuSans-32"/>
     <use x="254.052734" xlink:href="#DejaVuSans-72"/>
     <use x="329.248047" xlink:href="#DejaVuSans-80"/>
     <use x="389.550781" xlink:href="#DejaVuSans-68"/>
    </g>
   </g>
   <g id="text_9">
    <!-- mean=0.0032 -->
    <defs>
     <path d="M 52 44.1875 
Q 55.375 50.25 60.0625 53.125 
Q 64.75 56 71.09375 56 
Q 79.640625 56 84.28125 50.015625 
Q 88.921875 44.046875 88.921875 33.015625 
L 88.921875 0 
L 79.890625 0 
L 79.890625 32.71875 
Q 79.890625 40.578125 77.09375 44.375 
Q 74.3125 48.1875 68.609375 48.1875 
Q 61.625 48.1875 57.5625 43.546875 
Q 53.515625 38.921875 53.515625 30.90625 
L 53.515625 0 
L 44.484375 0 
L 44.484375 32.71875 
Q 44.484375 40.625 41.703125 44.40625 
Q 38.921875 48.1875 33.109375 48.1875 
Q 26.21875 48.1875 22.15625 43.53125 
Q 18.109375 38.875 18.109375 30.90625 
L 18.109375 0 
L 9.078125 0 
L 9.078125 54.6875 
L 18.109375 54.6875 
L 18.109375 46.1875 
Q 21.1875 51.21875 25.484375 53.609375 
Q 29.78125 56 35.6875 56 
Q 41.65625 56 45.828125 52.96875 
Q 50 49.953125 52 44.1875 
z
" id="DejaVuSans-109"/>
     <path d="M 56.203125 29.59375 
L 56.203125 25.203125 
L 14.890625 25.203125 
Q 15.484375 15.921875 20.484375 11.0625 
Q 25.484375 6.203125 34.421875 6.203125 
Q 39.59375 6.203125 44.453125 7.46875 
Q 49.3125 8.734375 54.109375 11.28125 
L 54.109375 2.78125 
Q 49.265625 0.734375 44.1875 -0.34375 
Q 39.109375 -1.421875 33.890625 -1.421875 
Q 20.796875 -1.421875 13.15625 6.1875 
Q 5.515625 13.8125 5.515625 26.8125 
Q 5.515625 40.234375 12.765625 48.109375 
Q 20.015625 56 32.328125 56 
Q 43.359375 56 49.78125 48.890625 
Q 56.203125 41.796875 56.203125 29.59375 
z
M 47.21875 32.234375 
Q 47.125 39.59375 43.09375 43.984375 
Q 39.0625 48.390625 32.421875 48.390625 
Q 24.90625 48.390625 20.390625 44.140625 
Q 15.875 39.890625 15.1875 32.171875 
z
" id="DejaVuSans-101"/>
     <path d="M 34.28125 27.484375 
Q 23.390625 27.484375 19.1875 25 
Q 14.984375 22.515625 14.984375 16.5 
Q 14.984375 11.71875 18.140625 8.90625 
Q 21.296875 6.109375 26.703125 6.109375 
Q 34.1875 6.109375 38.703125 11.40625 
Q 43.21875 16.703125 43.21875 25.484375 
L 43.21875 27.484375 
z
M 52.203125 31.203125 
L 52.203125 0 
L 43.21875 0 
L 43.21875 8.296875 
Q 40.140625 3.328125 35.546875 0.953125 
Q 30.953125 -1.421875 24.3125 -1.421875 
Q 15.921875 -1.421875 10.953125 3.296875 
Q 6 8.015625 6 15.921875 
Q 6 25.140625 12.171875 29.828125 
Q 18.359375 34.515625 30.609375 34.515625 
L 43.21875 34.515625 
L 43.21875 35.40625 
Q 43.21875 41.609375 39.140625 45 
Q 35.0625 48.390625 27.6875 48.390625 
Q 23 48.390625 18.546875 47.265625 
Q 14.109375 46.140625 10.015625 43.890625 
L 10.015625 52.203125 
Q 14.9375 54.109375 19.578125 55.046875 
Q 24.21875 56 28.609375 56 
Q 40.484375 56 46.34375 49.84375 
Q 52.203125 43.703125 52.203125 31.203125 
z
" id="DejaVuSans-97"/>
     <path d="M 54.890625 33.015625 
L 54.890625 0 
L 45.90625 0 
L 45.90625 32.71875 
Q 45.90625 40.484375 42.875 44.328125 
Q 39.84375 48.1875 33.796875 48.1875 
Q 26.515625 48.1875 22.3125 43.546875 
Q 18.109375 38.921875 18.109375 30.90625 
L 18.109375 0 
L 9.078125 0 
L 9.078125 54.6875 
L 18.109375 54.6875 
L 18.109375 46.1875 
Q 21.34375 51.125 25.703125 53.5625 
Q 30.078125 56 35.796875 56 
Q 45.21875 56 50.046875 50.171875 
Q 54.890625 44.34375 54.890625 33.015625 
z
" id="DejaVuSans-110"/>
     <path d="M 10.59375 45.40625 
L 73.1875 45.40625 
L 73.1875 37.203125 
L 10.59375 37.203125 
z
M 10.59375 25.484375 
L 73.1875 25.484375 
L 73.1875 17.1875 
L 10.59375 17.1875 
z
" id="DejaVuSans-61"/>
     <path d="M 40.578125 39.3125 
Q 47.65625 37.796875 51.625 33 
Q 55.609375 28.21875 55.609375 21.1875 
Q 55.609375 10.40625 48.1875 4.484375 
Q 40.765625 -1.421875 27.09375 -1.421875 
Q 22.515625 -1.421875 17.65625 -0.515625 
Q 12.796875 0.390625 7.625 2.203125 
L 7.625 11.71875 
Q 11.71875 9.328125 16.59375 8.109375 
Q 21.484375 6.890625 26.8125 6.890625 
Q 36.078125 6.890625 40.9375 10.546875 
Q 45.796875 14.203125 45.796875 21.1875 
Q 45.796875 27.640625 41.28125 31.265625 
Q 36.765625 34.90625 28.71875 34.90625 
L 20.21875 34.90625 
L 20.21875 43.015625 
L 29.109375 43.015625 
Q 36.375 43.015625 40.234375 45.921875 
Q 44.09375 48.828125 44.09375 54.296875 
Q 44.09375 59.90625 40.109375 62.90625 
Q 36.140625 65.921875 28.71875 65.921875 
Q 24.65625 65.921875 20.015625 65.03125 
Q 15.375 64.15625 9.8125 62.3125 
L 9.8125 71.09375 
Q 15.4375 72.65625 20.34375 73.4375 
Q 25.25 74.21875 29.59375 74.21875 
Q 40.828125 74.21875 47.359375 69.109375 
Q 53.90625 64.015625 53.90625 55.328125 
Q 53.90625 49.265625 50.4375 45.09375 
Q 46.96875 40.921875 40.578125 39.3125 
z
" id="DejaVuSans-51"/>
    </defs>
    <g style="fill:#262626;" transform="translate(212.28055 78.696336)scale(0.15 -0.15)">
     <use xlink:href="#DejaVuSans-109"/>
     <use x="97.412109" xlink:href="#DejaVuSans-101"/>
     <use x="158.935547" xlink:href="#DejaVuSans-97"/>
     <use x="220.214844" xlink:href="#DejaVuSans-110"/>
     <use x="283.59375" xlink:href="#DejaVuSans-61"/>
     <use x="367.382812" xlink:href="#DejaVuSans-48"/>
     <use x="431.005859" xlink:href="#DejaVuSans-46"/>
     <use x="462.792969" xlink:href="#DejaVuSans-48"/>
     <use x="526.416016" xlink:href="#DejaVuSans-48"/>
     <use x="590.039062" xlink:href="#DejaVuSans-51"/>
     <use x="653.662109" xlink:href="#DejaVuSans-50"/>
    </g>
   </g>
   <g id="text_10">
    <!-- x -->
    <defs>
     <path d="M 54.890625 54.6875 
L 35.109375 28.078125 
L 55.90625 0 
L 45.3125 0 
L 29.390625 21.484375 
L 13.484375 0 
L 2.875 0 
L 24.125 28.609375 
L 4.6875 54.6875 
L 15.28125 54.6875 
L 29.78125 35.203125 
L 44.28125 54.6875 
z
" id="DejaVuSans-120"/>
    </defs>
    <g style="fill:#262626;" transform="translate(254.465 15.15774)scale(0.16 -0.16)">
     <use xlink:href="#DejaVuSans-120"/>
    </g>
   </g>
  </g>
 </g>
 <defs>
  <clipPath id="p84df429a3f">
   <rect height="301.392645" width="512.39952" x="3.00024" y="21.15774"/>
  </clipPath>
 </defs>
</svg>
