<?xml version="1.0" encoding="utf-8" standalone="no"?>
<!DOCTYPE svg PUBLIC "-//W3C//DTD SVG 1.1//EN"
  "http://www.w3.org/Graphics/SVG/1.1/DTD/svg11.dtd">
<!-- Created with matplotlib (https://matplotlib.org/) -->
<svg height="345.6pt" version="1.1" viewBox="0 0 518.4 345.6" width="518.4pt" xmlns="http://www.w3.org/2000/svg" xmlns:xlink="http://www.w3.org/1999/xlink">
 <defs>
  <style type="text/css">
*{stroke-linecap:butt;stroke-linejoin:round;}
  </style>
 </defs>
 <g id="figure_1">
  <g id="patch_1">
   <path d="M 0 345.6 
L 518.4 345.6 
L 518.4 0 
L 0 0 
z
" style="fill:#ffffff;"/>
  </g>
  <g id="axes_1">
   <g id="patch_2">
    <path d="M 3.00024 342.59976 
L 515.39976 342.59976 
L 515.39976 3.00024 
L 3.00024 3.00024 
z
" style="fill:#eeeeee;"/>
   </g>
   <g id="matplotlib.axis_1"/>
   <g id="matplotlib.axis_2"/>
   <g id="PolyCollection_1">
    <defs>
     <path d="M 26.291127 -18.436582 
L 26.291127 -22.454545 
L 28.63192 -22.454545 
L 30.972713 -22.577961 
L 33.313505 -22.818541 
L 35.654298 -23.181353 
L 37.995091 -23.663886 
L 40.335883 -24.272105 
L 42.676676 -25.002581 
L 45.017469 -25.827094 
L 47.358261 -26.76629 
L 49.699054 -27.80299 
L 52.039847 -28.944103 
L 54.38064 -30.192271 
L 56.721432 -31.556586 
L 59.062225 -33.012141 
L 61.403018 -34.579412 
L 63.74381 -36.250132 
L 66.084603 -38.038263 
L 68.425396 -39.950133 
L 70.766188 -41.952133 
L 73.106981 -44.043841 
L 75.447774 -46.223394 
L 77.788566 -48.475568 
L 80.129359 -50.767512 
L 82.470152 -53.086427 
L 84.810945 -55.380606 
L 87.151737 -57.632208 
L 89.49253 -59.794603 
L 91.833323 -61.845329 
L 94.174115 -63.758575 
L 96.514908 -65.492567 
L 98.855701 -67.045673 
L 101.196493 -68.397789 
L 103.537286 -69.54492 
L 105.878079 -70.498971 
L 108.218871 -71.275447 
L 110.559664 -71.898068 
L 112.900457 -72.404002 
L 115.24125 -72.812585 
L 117.582042 -73.181838 
L 119.922835 -73.557845 
L 122.263628 -73.97363 
L 124.60442 -74.448489 
L 126.945213 -75.043285 
L 129.286006 -75.787962 
L 131.626798 -76.680577 
L 133.967591 -77.734468 
L 136.308384 -78.96494 
L 138.649176 -80.359654 
L 140.989969 -81.904291 
L 143.330762 -83.595074 
L 145.671554 -85.403575 
L 148.012347 -87.316954 
L 150.35314 -89.314477 
L 152.693933 -91.349138 
L 155.034725 -93.413095 
L 157.375518 -95.491447 
L 159.716311 -97.548185 
L 162.057103 -99.568461 
L 164.397896 -101.53381 
L 166.738689 -103.454081 
L 169.079481 -105.295069 
L 171.420274 -107.039911 
L 173.761067 -108.723398 
L 176.101859 -110.308759 
L 178.442652 -111.815436 
L 180.783445 -113.225035 
L 183.124238 -114.556273 
L 185.46503 -115.837375 
L 187.805823 -117.070468 
L 190.146616 -118.265082 
L 192.487408 -119.432393 
L 194.828201 -120.565777 
L 197.168994 -121.690241 
L 199.509786 -122.789163 
L 201.850579 -123.874949 
L 204.191372 -124.94946 
L 206.532164 -125.964969 
L 208.872957 -126.924947 
L 211.21375 -127.827173 
L 213.554543 -128.66188 
L 215.895335 -129.40817 
L 218.236128 -130.084099 
L 220.576921 -130.702456 
L 222.917713 -131.256216 
L 225.258506 -131.76805 
L 227.599299 -132.289298 
L 229.940091 -132.815611 
L 232.280884 -133.351122 
L 234.621677 -133.941802 
L 236.962469 -134.598975 
L 239.303262 -135.299791 
L 241.644055 -136.082155 
L 243.984848 -136.884026 
L 246.32564 -137.708144 
L 248.666433 -138.500543 
L 251.007226 -139.270641 
L 253.348018 -139.933692 
L 255.688811 -140.504006 
L 258.029604 -140.908832 
L 260.370396 -141.138167 
L 262.711189 -141.164237 
L 265.051982 -140.983833 
L 267.392774 -140.560596 
L 269.733567 -139.880694 
L 272.07436 -138.975195 
L 274.415152 -137.869799 
L 276.755945 -136.550557 
L 279.096738 -135.046172 
L 281.437531 -133.378656 
L 283.778323 -131.59483 
L 286.119116 -129.706558 
L 288.459909 -127.731236 
L 290.800701 -125.720562 
L 293.141494 -123.694087 
L 295.482287 -121.661397 
L 297.823079 -119.636312 
L 300.163872 -117.60287 
L 302.504665 -115.575908 
L 304.845457 -113.513274 
L 307.18625 -111.412676 
L 309.527043 -109.28916 
L 311.867836 -107.073247 
L 314.208628 -104.747344 
L 316.549421 -102.303817 
L 318.890214 -99.731898 
L 321.231006 -97.036378 
L 323.571799 -94.187678 
L 325.912592 -91.245665 
L 328.253384 -88.209264 
L 330.594177 -85.096377 
L 332.93497 -81.947962 
L 335.275762 -78.810687 
L 337.616555 -75.693538 
L 339.957348 -72.612119 
L 342.298141 -69.604812 
L 344.638933 -66.667683 
L 346.979726 -63.852964 
L 349.320519 -61.126319 
L 351.661311 -58.527441 
L 354.002104 -56.021662 
L 356.342897 -53.6309 
L 358.683689 -51.33786 
L 361.024482 -49.146112 
L 363.365275 -47.037344 
L 365.706067 -45.039212 
L 368.04686 -43.134251 
L 370.387653 -41.325722 
L 372.728446 -39.613837 
L 375.069238 -37.991546 
L 377.410031 -36.455706 
L 379.750824 -35.023723 
L 382.091616 -33.697872 
L 384.432409 -32.451004 
L 386.773202 -31.297394 
L 389.113994 -30.241515 
L 391.454787 -29.264277 
L 393.79558 -28.369531 
L 396.136372 -27.542196 
L 398.477165 -26.796837 
L 400.817958 -26.12132 
L 403.15875 -25.505326 
L 405.499543 -24.953732 
L 407.840336 -24.446757 
L 410.181129 -23.980185 
L 412.521921 -23.543868 
L 414.862714 -23.145353 
L 417.203507 -22.769618 
L 419.544299 -22.408895 
L 421.885092 -22.070772 
L 424.225885 -21.734826 
L 426.566677 -21.417659 
L 428.90747 -21.102419 
L 431.248263 -20.807516 
L 433.589055 -20.525573 
L 435.929848 -20.254803 
L 438.270641 -20.001936 
L 440.611434 -19.765779 
L 442.952226 -19.558467 
L 445.293019 -19.373845 
L 447.633812 -19.207922 
L 449.974604 -19.067707 
L 452.315397 -18.947393 
L 454.65619 -18.848652 
L 456.996982 -18.768831 
L 459.337775 -18.70552 
L 461.678568 -18.657502 
L 464.01936 -18.626365 
L 466.360153 -18.60743 
L 468.700946 -18.59607 
L 471.041739 -18.597809 
L 473.382531 -18.605473 
L 475.723324 -18.619886 
L 478.064117 -18.63591 
L 480.404909 -18.657706 
L 482.745702 -18.678262 
L 485.086495 -18.6986 
L 487.427287 -18.715916 
L 489.76808 -18.729102 
L 492.108873 -18.736275 
L 492.108873 -18.436582 
L 492.108873 -18.436582 
L 489.76808 -18.436582 
L 487.427287 -18.436582 
L 485.086495 -18.436582 
L 482.745702 -18.436582 
L 480.404909 -18.436582 
L 478.064117 -18.436582 
L 475.723324 -18.436582 
L 473.382531 -18.436582 
L 471.041739 -18.436582 
L 468.700946 -18.436582 
L 466.360153 -18.436582 
L 464.01936 -18.436582 
L 461.678568 -18.436582 
L 459.337775 -18.436582 
L 456.996982 -18.436582 
L 454.65619 -18.436582 
L 452.315397 -18.436582 
L 449.974604 -18.436582 
L 447.633812 -18.436582 
L 445.293019 -18.436582 
L 442.952226 -18.436582 
L 440.611434 -18.436582 
L 438.270641 -18.436582 
L 435.929848 -18.436582 
L 433.589055 -18.436582 
L 431.248263 -18.436582 
L 428.90747 -18.436582 
L 426.566677 -18.436582 
L 424.225885 -18.436582 
L 421.885092 -18.436582 
L 419.544299 -18.436582 
L 417.203507 -18.436582 
L 414.862714 -18.436582 
L 412.521921 -18.436582 
L 410.181129 -18.436582 
L 407.840336 -18.436582 
L 405.499543 -18.436582 
L 403.15875 -18.436582 
L 400.817958 -18.436582 
L 398.477165 -18.436582 
L 396.136372 -18.436582 
L 393.79558 -18.436582 
L 391.454787 -18.436582 
L 389.113994 -18.436582 
L 386.773202 -18.436582 
L 384.432409 -18.436582 
L 382.091616 -18.436582 
L 379.750824 -18.436582 
L 377.410031 -18.436582 
L 375.069238 -18.436582 
L 372.728446 -18.436582 
L 370.387653 -18.436582 
L 368.04686 -18.436582 
L 365.706067 -18.436582 
L 363.365275 -18.436582 
L 361.024482 -18.436582 
L 358.683689 -18.436582 
L 356.342897 -18.436582 
L 354.002104 -18.436582 
L 351.661311 -18.436582 
L 349.320519 -18.436582 
L 346.979726 -18.436582 
L 344.638933 -18.436582 
L 342.298141 -18.436582 
L 339.957348 -18.436582 
L 337.616555 -18.436582 
L 335.275762 -18.436582 
L 332.93497 -18.436582 
L 330.594177 -18.436582 
L 328.253384 -18.436582 
L 325.912592 -18.436582 
L 323.571799 -18.436582 
L 321.231006 -18.436582 
L 318.890214 -18.436582 
L 316.549421 -18.436582 
L 314.208628 -18.436582 
L 311.867836 -18.436582 
L 309.527043 -18.436582 
L 307.18625 -18.436582 
L 304.845457 -18.436582 
L 302.504665 -18.436582 
L 300.163872 -18.436582 
L 297.823079 -18.436582 
L 295.482287 -18.436582 
L 293.141494 -18.436582 
L 290.800701 -18.436582 
L 288.459909 -18.436582 
L 286.119116 -18.436582 
L 283.778323 -18.436582 
L 281.437531 -18.436582 
L 279.096738 -18.436582 
L 276.755945 -18.436582 
L 274.415152 -18.436582 
L 272.07436 -18.436582 
L 269.733567 -18.436582 
L 267.392774 -18.436582 
L 265.051982 -18.436582 
L 262.711189 -18.436582 
L 260.370396 -18.436582 
L 258.029604 -18.436582 
L 255.688811 -18.436582 
L 253.348018 -18.436582 
L 251.007226 -18.436582 
L 248.666433 -18.436582 
L 246.32564 -18.436582 
L 243.984848 -18.436582 
L 241.644055 -18.436582 
L 239.303262 -18.436582 
L 236.962469 -18.436582 
L 234.621677 -18.436582 
L 232.280884 -18.436582 
L 229.940091 -18.436582 
L 227.599299 -18.436582 
L 225.258506 -18.436582 
L 222.917713 -18.436582 
L 220.576921 -18.436582 
L 218.236128 -18.436582 
L 215.895335 -18.436582 
L 213.554543 -18.436582 
L 211.21375 -18.436582 
L 208.872957 -18.436582 
L 206.532164 -18.436582 
L 204.191372 -18.436582 
L 201.850579 -18.436582 
L 199.509786 -18.436582 
L 197.168994 -18.436582 
L 194.828201 -18.436582 
L 192.487408 -18.436582 
L 190.146616 -18.436582 
L 187.805823 -18.436582 
L 185.46503 -18.436582 
L 183.124238 -18.436582 
L 180.783445 -18.436582 
L 178.442652 -18.436582 
L 176.101859 -18.436582 
L 173.761067 -18.436582 
L 171.420274 -18.436582 
L 169.079481 -18.436582 
L 166.738689 -18.436582 
L 164.397896 -18.436582 
L 162.057103 -18.436582 
L 159.716311 -18.436582 
L 157.375518 -18.436582 
L 155.034725 -18.436582 
L 152.693933 -18.436582 
L 150.35314 -18.436582 
L 148.012347 -18.436582 
L 145.671554 -18.436582 
L 143.330762 -18.436582 
L 140.989969 -18.436582 
L 138.649176 -18.436582 
L 136.308384 -18.436582 
L 133.967591 -18.436582 
L 131.626798 -18.436582 
L 129.286006 -18.436582 
L 126.945213 -18.436582 
L 124.60442 -18.436582 
L 122.263628 -18.436582 
L 119.922835 -18.436582 
L 117.582042 -18.436582 
L 115.24125 -18.436582 
L 112.900457 -18.436582 
L 110.559664 -18.436582 
L 108.218871 -18.436582 
L 105.878079 -18.436582 
L 103.537286 -18.436582 
L 101.196493 -18.436582 
L 98.855701 -18.436582 
L 96.514908 -18.436582 
L 94.174115 -18.436582 
L 91.833323 -18.436582 
L 89.49253 -18.436582 
L 87.151737 -18.436582 
L 84.810945 -18.436582 
L 82.470152 -18.436582 
L 80.129359 -18.436582 
L 77.788566 -18.436582 
L 75.447774 -18.436582 
L 73.106981 -18.436582 
L 70.766188 -18.436582 
L 68.425396 -18.436582 
L 66.084603 -18.436582 
L 63.74381 -18.436582 
L 61.403018 -18.436582 
L 59.062225 -18.436582 
L 56.721432 -18.436582 
L 54.38064 -18.436582 
L 52.039847 -18.436582 
L 49.699054 -18.436582 
L 47.358261 -18.436582 
L 45.017469 -18.436582 
L 42.676676 -18.436582 
L 40.335883 -18.436582 
L 37.995091 -18.436582 
L 35.654298 -18.436582 
L 33.313505 -18.436582 
L 30.972713 -18.436582 
L 28.63192 -18.436582 
L 26.291127 -18.436582 
z
" id="me3bebada06" style="stroke:#2a2eec;"/>
    </defs>
    <g clip-path="url(#p0a252f73d9)">
     <use style="fill:#2a2eec;stroke:#2a2eec;" x="0" xlink:href="#me3bebada06" y="345.6"/>
    </g>
   </g>
   <g id="PolyCollection_2">
    <defs>
     <path d="M 69.709765 -18.436582 
L 69.709765 -18.918551 
L 71.28891 -18.918551 
L 72.868055 -18.921943 
L 74.4472 -18.921884 
L 76.026345 -18.921684 
L 77.60549 -18.922562 
L 79.184635 -18.925099 
L 80.76378 -18.931542 
L 82.342926 -18.941557 
L 83.922071 -18.95412 
L 85.501216 -18.978676 
L 87.080361 -19.008161 
L 88.659506 -19.044778 
L 90.238651 -19.091123 
L 91.817796 -19.152661 
L 93.396941 -19.221505 
L 94.976086 -19.306791 
L 96.555231 -19.404975 
L 98.134376 -19.5182 
L 99.713521 -19.647046 
L 101.292666 -19.787537 
L 102.871811 -19.947462 
L 104.450956 -20.118053 
L 106.030101 -20.298452 
L 107.609246 -20.495872 
L 109.188391 -20.704768 
L 110.767536 -20.929574 
L 112.346681 -21.165493 
L 113.925826 -21.425749 
L 115.504971 -21.699931 
L 117.084116 -22.00582 
L 118.663261 -22.330849 
L 120.242406 -22.685372 
L 121.821552 -23.080564 
L 123.400697 -23.511969 
L 124.979842 -23.977682 
L 126.558987 -24.48238 
L 128.138132 -25.020355 
L 129.717277 -25.605134 
L 131.296422 -26.233774 
L 132.875567 -26.908254 
L 134.454712 -27.627455 
L 136.033857 -28.395028 
L 137.613002 -29.247505 
L 139.192147 -30.145454 
L 140.771292 -31.132316 
L 142.350437 -32.201491 
L 143.929582 -33.350188 
L 145.508727 -34.609729 
L 147.087872 -35.989124 
L 148.667017 -37.518158 
L 150.246162 -39.168824 
L 151.825307 -40.987153 
L 153.404452 -42.977098 
L 154.983597 -45.151575 
L 156.562742 -47.55118 
L 158.141887 -50.166009 
L 159.721033 -53.000054 
L 161.300178 -56.111246 
L 162.879323 -59.49836 
L 164.458468 -63.147312 
L 166.037613 -67.0907 
L 167.616758 -71.320316 
L 169.195903 -75.852888 
L 170.775048 -80.716445 
L 172.354193 -85.865895 
L 173.933338 -91.363856 
L 175.512483 -97.191089 
L 177.091628 -103.341014 
L 178.670773 -109.848399 
L 180.249918 -116.690715 
L 181.829063 -123.877015 
L 183.408208 -131.358164 
L 184.987353 -139.171552 
L 186.566498 -147.297406 
L 188.145643 -155.68958 
L 189.724788 -164.337598 
L 191.303933 -173.183747 
L 192.883078 -182.177725 
L 194.462223 -191.293207 
L 196.041368 -200.535692 
L 197.620513 -209.776724 
L 199.199659 -218.996008 
L 200.778804 -228.133571 
L 202.357949 -237.154858 
L 203.937094 -246.010015 
L 205.516239 -254.632382 
L 207.095384 -262.93067 
L 208.674529 -270.941526 
L 210.253674 -278.553636 
L 211.832819 -285.749396 
L 213.411964 -292.490626 
L 214.991109 -298.694705 
L 216.570254 -304.353142 
L 218.149399 -309.440731 
L 219.728544 -313.916337 
L 221.307689 -317.794759 
L 222.886834 -321.019431 
L 224.465979 -323.578705 
L 226.045124 -325.444518 
L 227.624269 -326.653156 
L 229.203414 -327.163418 
L 230.782559 -326.915376 
L 232.361704 -325.918685 
L 233.940849 -324.17 
L 235.519994 -321.630815 
L 237.09914 -318.310725 
L 238.678285 -314.199879 
L 240.25743 -309.278852 
L 241.836575 -303.625032 
L 243.41572 -297.224994 
L 244.994865 -290.166891 
L 246.57401 -282.507318 
L 248.153155 -274.309073 
L 249.7323 -265.681321 
L 251.311445 -256.706498 
L 252.89059 -247.504662 
L 254.469735 -238.124154 
L 256.04888 -228.632784 
L 257.628025 -219.141918 
L 259.20717 -209.69282 
L 260.786315 -200.355687 
L 262.36546 -191.185905 
L 263.944605 -182.179932 
L 265.52375 -173.333198 
L 267.102895 -164.769629 
L 268.68204 -156.439723 
L 270.261185 -148.379227 
L 271.84033 -140.597059 
L 273.419475 -133.100047 
L 274.99862 -125.912801 
L 276.577766 -119.045527 
L 278.156911 -112.465395 
L 279.736056 -106.203975 
L 281.315201 -100.235059 
L 282.894346 -94.567613 
L 284.473491 -89.19287 
L 286.052636 -84.073168 
L 287.631781 -79.192441 
L 289.210926 -74.586013 
L 290.790071 -70.164169 
L 292.369216 -65.992729 
L 293.948361 -62.046912 
L 295.527506 -58.327896 
L 297.106651 -54.814387 
L 298.685796 -51.546859 
L 300.264941 -48.527187 
L 301.844086 -45.760423 
L 303.423231 -43.241872 
L 305.002376 -40.9662 
L 306.581521 -38.920616 
L 308.160666 -37.095496 
L 309.739811 -35.492643 
L 311.318956 -34.073071 
L 312.898101 -32.818835 
L 314.477247 -31.70169 
L 316.056392 -30.71195 
L 317.635537 -29.819906 
L 319.214682 -29.00646 
L 320.793827 -28.257415 
L 322.372972 -27.557586 
L 323.952117 -26.896573 
L 325.531262 -26.282746 
L 327.110407 -25.704003 
L 328.689552 -25.148592 
L 330.268697 -24.617328 
L 331.847842 -24.110124 
L 333.426987 -23.639604 
L 335.006132 -23.197736 
L 336.585277 -22.774921 
L 338.164422 -22.387255 
L 339.743567 -22.02948 
L 341.322712 -21.69287 
L 342.901857 -21.388863 
L 344.481002 -21.111762 
L 346.060147 -20.856888 
L 347.639292 -20.618872 
L 349.218437 -20.39509 
L 350.797582 -20.194655 
L 352.376727 -20.003967 
L 353.955873 -19.826541 
L 355.535018 -19.664565 
L 357.114163 -19.517188 
L 358.693308 -19.379656 
L 360.272453 -19.262721 
L 361.851598 -19.155539 
L 363.430743 -19.063307 
L 365.009888 -18.986404 
L 366.589033 -18.927905 
L 368.168178 -18.881925 
L 369.747323 -18.850142 
L 371.326468 -18.831409 
L 372.905613 -18.824091 
L 374.484758 -18.82612 
L 376.063903 -18.836587 
L 377.643048 -18.850829 
L 379.222193 -18.864861 
L 380.801338 -18.880594 
L 382.380483 -18.892184 
L 383.959628 -18.900795 
L 383.959628 -18.436582 
L 383.959628 -18.436582 
L 382.380483 -18.436582 
L 380.801338 -18.436582 
L 379.222193 -18.436582 
L 377.643048 -18.436582 
L 376.063903 -18.436582 
L 374.484758 -18.436582 
L 372.905613 -18.436582 
L 371.326468 -18.436582 
L 369.747323 -18.436582 
L 368.168178 -18.436582 
L 366.589033 -18.436582 
L 365.009888 -18.436582 
L 363.430743 -18.436582 
L 361.851598 -18.436582 
L 360.272453 -18.436582 
L 358.693308 -18.436582 
L 357.114163 -18.436582 
L 355.535018 -18.436582 
L 353.955873 -18.436582 
L 352.376727 -18.436582 
L 350.797582 -18.436582 
L 349.218437 -18.436582 
L 347.639292 -18.436582 
L 346.060147 -18.436582 
L 344.481002 -18.436582 
L 342.901857 -18.436582 
L 341.322712 -18.436582 
L 339.743567 -18.436582 
L 338.164422 -18.436582 
L 336.585277 -18.436582 
L 335.006132 -18.436582 
L 333.426987 -18.436582 
L 331.847842 -18.436582 
L 330.268697 -18.436582 
L 328.689552 -18.436582 
L 327.110407 -18.436582 
L 325.531262 -18.436582 
L 323.952117 -18.436582 
L 322.372972 -18.436582 
L 320.793827 -18.436582 
L 319.214682 -18.436582 
L 317.635537 -18.436582 
L 316.056392 -18.436582 
L 314.477247 -18.436582 
L 312.898101 -18.436582 
L 311.318956 -18.436582 
L 309.739811 -18.436582 
L 308.160666 -18.436582 
L 306.581521 -18.436582 
L 305.002376 -18.436582 
L 303.423231 -18.436582 
L 301.844086 -18.436582 
L 300.264941 -18.436582 
L 298.685796 -18.436582 
L 297.106651 -18.436582 
L 295.527506 -18.436582 
L 293.948361 -18.436582 
L 292.369216 -18.436582 
L 290.790071 -18.436582 
L 289.210926 -18.436582 
L 287.631781 -18.436582 
L 286.052636 -18.436582 
L 284.473491 -18.436582 
L 282.894346 -18.436582 
L 281.315201 -18.436582 
L 279.736056 -18.436582 
L 278.156911 -18.436582 
L 276.577766 -18.436582 
L 274.99862 -18.436582 
L 273.419475 -18.436582 
L 271.84033 -18.436582 
L 270.261185 -18.436582 
L 268.68204 -18.436582 
L 267.102895 -18.436582 
L 265.52375 -18.436582 
L 263.944605 -18.436582 
L 262.36546 -18.436582 
L 260.786315 -18.436582 
L 259.20717 -18.436582 
L 257.628025 -18.436582 
L 256.04888 -18.436582 
L 254.469735 -18.436582 
L 252.89059 -18.436582 
L 251.311445 -18.436582 
L 249.7323 -18.436582 
L 248.153155 -18.436582 
L 246.57401 -18.436582 
L 244.994865 -18.436582 
L 243.41572 -18.436582 
L 241.836575 -18.436582 
L 240.25743 -18.436582 
L 238.678285 -18.436582 
L 237.09914 -18.436582 
L 235.519994 -18.436582 
L 233.940849 -18.436582 
L 232.361704 -18.436582 
L 230.782559 -18.436582 
L 229.203414 -18.436582 
L 227.624269 -18.436582 
L 226.045124 -18.436582 
L 224.465979 -18.436582 
L 222.886834 -18.436582 
L 221.307689 -18.436582 
L 219.728544 -18.436582 
L 218.149399 -18.436582 
L 216.570254 -18.436582 
L 214.991109 -18.436582 
L 213.411964 -18.436582 
L 211.832819 -18.436582 
L 210.253674 -18.436582 
L 208.674529 -18.436582 
L 207.095384 -18.436582 
L 205.516239 -18.436582 
L 203.937094 -18.436582 
L 202.357949 -18.436582 
L 200.778804 -18.436582 
L 199.199659 -18.436582 
L 197.620513 -18.436582 
L 196.041368 -18.436582 
L 194.462223 -18.436582 
L 192.883078 -18.436582 
L 191.303933 -18.436582 
L 189.724788 -18.436582 
L 188.145643 -18.436582 
L 186.566498 -18.436582 
L 184.987353 -18.436582 
L 183.408208 -18.436582 
L 181.829063 -18.436582 
L 180.249918 -18.436582 
L 178.670773 -18.436582 
L 177.091628 -18.436582 
L 175.512483 -18.436582 
L 173.933338 -18.436582 
L 172.354193 -18.436582 
L 170.775048 -18.436582 
L 169.195903 -18.436582 
L 167.616758 -18.436582 
L 166.037613 -18.436582 
L 164.458468 -18.436582 
L 162.879323 -18.436582 
L 161.300178 -18.436582 
L 159.721033 -18.436582 
L 158.141887 -18.436582 
L 156.562742 -18.436582 
L 154.983597 -18.436582 
L 153.404452 -18.436582 
L 151.825307 -18.436582 
L 150.246162 -18.436582 
L 148.667017 -18.436582 
L 147.087872 -18.436582 
L 145.508727 -18.436582 
L 143.929582 -18.436582 
L 142.350437 -18.436582 
L 140.771292 -18.436582 
L 139.192147 -18.436582 
L 137.613002 -18.436582 
L 136.033857 -18.436582 
L 134.454712 -18.436582 
L 132.875567 -18.436582 
L 131.296422 -18.436582 
L 129.717277 -18.436582 
L 128.138132 -18.436582 
L 126.558987 -18.436582 
L 124.979842 -18.436582 
L 123.400697 -18.436582 
L 121.821552 -18.436582 
L 120.242406 -18.436582 
L 118.663261 -18.436582 
L 117.084116 -18.436582 
L 115.504971 -18.436582 
L 113.925826 -18.436582 
L 112.346681 -18.436582 
L 110.767536 -18.436582 
L 109.188391 -18.436582 
L 107.609246 -18.436582 
L 106.030101 -18.436582 
L 104.450956 -18.436582 
L 102.871811 -18.436582 
L 101.292666 -18.436582 
L 99.713521 -18.436582 
L 98.134376 -18.436582 
L 96.555231 -18.436582 
L 94.976086 -18.436582 
L 93.396941 -18.436582 
L 91.817796 -18.436582 
L 90.238651 -18.436582 
L 88.659506 -18.436582 
L 87.080361 -18.436582 
L 85.501216 -18.436582 
L 83.922071 -18.436582 
L 82.342926 -18.436582 
L 80.76378 -18.436582 
L 79.184635 -18.436582 
L 77.60549 -18.436582 
L 76.026345 -18.436582 
L 74.4472 -18.436582 
L 72.868055 -18.436582 
L 71.28891 -18.436582 
L 69.709765 -18.436582 
z
" id="m7e841bbfe3" style="stroke:#65e5f3;stroke-opacity:0.75;"/>
    </defs>
    <g clip-path="url(#p0a252f73d9)">
     <use style="fill:#65e5f3;fill-opacity:0.75;stroke:#65e5f3;stroke-opacity:0.75;" x="0" xlink:href="#m7e841bbfe3" y="345.6"/>
    </g>
   </g>
   <g id="line2d_1">
    <path clip-path="url(#p0a252f73d9)" d="M 26.291127 323.145455 
L 28.63192 323.145455 
L 30.972713 323.022039 
L 33.313505 322.781459 
L 35.654298 322.418647 
L 37.995091 321.936114 
L 40.335883 321.327895 
L 45.017469 319.772906 
L 49.699054 317.79701 
L 54.38064 315.407729 
L 59.062225 312.587859 
L 63.74381 309.349868 
L 68.425396 305.649867 
L 73.106981 301.556159 
L 77.788566 297.124432 
L 89.49253 285.805397 
L 94.174115 281.841425 
L 96.514908 280.107433 
L 98.855701 278.554327 
L 101.196493 277.202211 
L 103.537286 276.05508 
L 105.878079 275.101029 
L 108.218871 274.324553 
L 110.559664 273.701932 
L 115.24125 272.787415 
L 122.263628 271.62637 
L 124.60442 271.151511 
L 126.945213 270.556715 
L 129.286006 269.812038 
L 131.626798 268.919423 
L 133.967591 267.865532 
L 136.308384 266.63506 
L 138.649176 265.240346 
L 140.989969 263.695709 
L 145.671554 260.196425 
L 150.35314 256.285523 
L 166.738689 242.145919 
L 171.420274 238.560089 
L 176.101859 235.291241 
L 180.783445 232.374965 
L 185.46503 229.762625 
L 192.487408 226.167607 
L 201.850579 221.725051 
L 206.532164 219.635031 
L 211.21375 217.772827 
L 215.895335 216.19183 
L 220.576921 214.897544 
L 229.940091 212.784389 
L 234.621677 211.658198 
L 239.303262 210.300209 
L 253.348018 205.666308 
L 255.688811 205.095994 
L 258.029604 204.691168 
L 260.370396 204.461833 
L 262.711189 204.435763 
L 265.051982 204.616167 
L 267.392774 205.039404 
L 269.733567 205.719306 
L 272.07436 206.624805 
L 274.415152 207.730201 
L 276.755945 209.049443 
L 279.096738 210.553828 
L 283.778323 214.00517 
L 288.459909 217.868764 
L 304.845457 232.086726 
L 311.867836 238.526753 
L 316.549421 243.296183 
L 321.231006 248.563622 
L 325.912592 254.354335 
L 330.594177 260.503623 
L 339.957348 272.987881 
L 344.638933 278.932317 
L 349.320519 284.473681 
L 354.002104 289.578338 
L 358.683689 294.26214 
L 363.365275 298.562656 
L 368.04686 302.465749 
L 372.728446 305.986163 
L 377.410031 309.144294 
L 382.091616 311.902128 
L 386.773202 314.302606 
L 391.454787 316.335723 
L 396.136372 318.057804 
L 400.817958 319.47868 
L 405.499543 320.646268 
L 412.521921 322.056132 
L 419.544299 323.191105 
L 431.248263 324.792484 
L 440.611434 325.834221 
L 447.633812 326.392078 
L 454.65619 326.751348 
L 464.01936 326.973635 
L 475.723324 326.980114 
L 492.108873 326.863725 
L 492.108873 326.863725 
" style="fill:none;stroke:#2a2eec;stroke-linecap:round;stroke-opacity:0;stroke-width:1.5;"/>
   </g>
   <g id="line2d_2">
    <path clip-path="url(#p0a252f73d9)" d="M 69.709765 326.681449 
L 87.080361 326.591839 
L 93.396941 326.378495 
L 99.713521 325.952954 
L 106.030101 325.301548 
L 112.346681 324.434507 
L 117.084116 323.59418 
L 121.821552 322.519436 
L 126.558987 321.11762 
L 129.717277 319.994866 
L 132.875567 318.691746 
L 136.033857 317.204972 
L 139.192147 315.454546 
L 142.350437 313.398509 
L 145.508727 310.990271 
L 147.087872 309.610876 
L 150.246162 306.431176 
L 151.825307 304.612847 
L 153.404452 302.622902 
L 154.983597 300.448425 
L 156.562742 298.04882 
L 158.141887 295.433991 
L 159.721033 292.599946 
L 161.300178 289.488754 
L 164.458468 282.452688 
L 167.616758 274.279684 
L 170.775048 264.883555 
L 173.933338 254.236144 
L 177.091628 242.258986 
L 180.249918 228.909285 
L 183.408208 214.241836 
L 186.566498 198.302594 
L 189.724788 181.262402 
L 194.462223 154.306793 
L 202.357949 108.445142 
L 205.516239 90.967618 
L 208.674529 74.658474 
L 211.832819 59.850604 
L 213.411964 53.109374 
L 214.991109 46.905295 
L 216.570254 41.246858 
L 218.149399 36.159269 
L 219.728544 31.683663 
L 221.307689 27.805241 
L 222.886834 24.580569 
L 224.465979 22.021295 
L 226.045124 20.155482 
L 227.624269 18.946844 
L 229.203414 18.436582 
L 230.782559 18.684624 
L 232.361704 19.681315 
L 233.940849 21.43 
L 235.519994 23.969185 
L 237.09914 27.289275 
L 238.678285 31.400121 
L 240.25743 36.321148 
L 241.836575 41.974968 
L 243.41572 48.375006 
L 244.994865 55.433109 
L 248.153155 71.290927 
L 251.311445 88.893502 
L 256.04888 116.967216 
L 262.36546 154.414095 
L 267.102895 180.830371 
L 270.261185 197.220773 
L 273.419475 212.499953 
L 276.577766 226.554473 
L 279.736056 239.396025 
L 282.894346 251.032387 
L 286.052636 261.526832 
L 289.210926 271.013987 
L 292.369216 279.607271 
L 295.527506 287.272104 
L 298.685796 294.053141 
L 300.264941 297.072813 
L 301.844086 299.839577 
L 303.423231 302.358128 
L 305.002376 304.6338 
L 306.581521 306.679384 
L 308.160666 308.504504 
L 309.739811 310.107357 
L 311.318956 311.526929 
L 314.477247 313.89831 
L 317.635537 315.780094 
L 320.793827 317.342585 
L 323.952117 318.703427 
L 328.689552 320.451408 
L 333.426987 321.960396 
L 338.164422 323.212745 
L 342.901857 324.211137 
L 347.639292 324.981128 
L 353.955873 325.773459 
L 360.272453 326.337279 
L 366.589033 326.672095 
L 372.905613 326.775909 
L 383.959628 326.699205 
L 383.959628 326.699205 
" style="fill:none;stroke:#2a2eec;stroke-linecap:round;stroke-opacity:0;stroke-width:1.5;"/>
   </g>
   <g id="line2d_3"/>
   <g id="line2d_4"/>
   <g id="line2d_5"/>
   <g id="line2d_6"/>
   <g id="patch_3">
    <path d="M 3.00024 342.59976 
L 3.00024 3.00024 
" style="fill:none;"/>
   </g>
   <g id="patch_4">
    <path d="M 515.39976 342.59976 
L 515.39976 3.00024 
" style="fill:none;"/>
   </g>
   <g id="patch_5">
    <path d="M 3.00024 342.59976 
L 515.39976 342.59976 
" style="fill:none;"/>
   </g>
   <g id="patch_6">
    <path d="M 3.00024 3.00024 
L 515.39976 3.00024 
" style="fill:none;"/>
   </g>
   <g id="legend_1">
    <g id="line2d_7">
     <path d="M 317.76351 21.338053 
L 345.76351 21.338053 
" style="fill:none;stroke:#2a2eec;stroke-linecap:round;stroke-opacity:0;stroke-width:1.5;"/>
    </g>
    <g id="line2d_8"/>
    <g id="text_1">
     <!-- chain  0 BFMI = 0.15 -->
     <defs>
      <path d="M 48.78125 52.59375 
L 48.78125 44.1875 
Q 44.96875 46.296875 41.140625 47.34375 
Q 37.3125 48.390625 33.40625 48.390625 
Q 24.65625 48.390625 19.8125 42.84375 
Q 14.984375 37.3125 14.984375 27.296875 
Q 14.984375 17.28125 19.8125 11.734375 
Q 24.65625 6.203125 33.40625 6.203125 
Q 37.3125 6.203125 41.140625 7.25 
Q 44.96875 8.296875 48.78125 10.40625 
L 48.78125 2.09375 
Q 45.015625 0.34375 40.984375 -0.53125 
Q 36.96875 -1.421875 32.421875 -1.421875 
Q 20.0625 -1.421875 12.78125 6.34375 
Q 5.515625 14.109375 5.515625 27.296875 
Q 5.515625 40.671875 12.859375 48.328125 
Q 20.21875 56 33.015625 56 
Q 37.15625 56 41.109375 55.140625 
Q 45.0625 54.296875 48.78125 52.59375 
z
" id="DejaVuSans-99"/>
      <path d="M 54.890625 33.015625 
L 54.890625 0 
L 45.90625 0 
L 45.90625 32.71875 
Q 45.90625 40.484375 42.875 44.328125 
Q 39.84375 48.1875 33.796875 48.1875 
Q 26.515625 48.1875 22.3125 43.546875 
Q 18.109375 38.921875 18.109375 30.90625 
L 18.109375 0 
L 9.078125 0 
L 9.078125 75.984375 
L 18.109375 75.984375 
L 18.109375 46.1875 
Q 21.34375 51.125 25.703125 53.5625 
Q 30.078125 56 35.796875 56 
Q 45.21875 56 50.046875 50.171875 
Q 54.890625 44.34375 54.890625 33.015625 
z
" id="DejaVuSans-104"/>
      <path d="M 34.28125 27.484375 
Q 23.390625 27.484375 19.1875 25 
Q 14.984375 22.515625 14.984375 16.5 
Q 14.984375 11.71875 18.140625 8.90625 
Q 21.296875 6.109375 26.703125 6.109375 
Q 34.1875 6.109375 38.703125 11.40625 
Q 43.21875 16.703125 43.21875 25.484375 
L 43.21875 27.484375 
z
M 52.203125 31.203125 
L 52.203125 0 
L 43.21875 0 
L 43.21875 8.296875 
Q 40.140625 3.328125 35.546875 0.953125 
Q 30.953125 -1.421875 24.3125 -1.421875 
Q 15.921875 -1.421875 10.953125 3.296875 
Q 6 8.015625 6 15.921875 
Q 6 25.140625 12.171875 29.828125 
Q 18.359375 34.515625 30.609375 34.515625 
L 43.21875 34.515625 
L 43.21875 35.40625 
Q 43.21875 41.609375 39.140625 45 
Q 35.0625 48.390625 27.6875 48.390625 
Q 23 48.390625 18.546875 47.265625 
Q 14.109375 46.140625 10.015625 43.890625 
L 10.015625 52.203125 
Q 14.9375 54.109375 19.578125 55.046875 
Q 24.21875 56 28.609375 56 
Q 40.484375 56 46.34375 49.84375 
Q 52.203125 43.703125 52.203125 31.203125 
z
" id="DejaVuSans-97"/>
      <path d="M 9.421875 54.6875 
L 18.40625 54.6875 
L 18.40625 0 
L 9.421875 0 
z
M 9.421875 75.984375 
L 18.40625 75.984375 
L 18.40625 64.59375 
L 9.421875 64.59375 
z
" id="DejaVuSans-105"/>
      <path d="M 54.890625 33.015625 
L 54.890625 0 
L 45.90625 0 
L 45.90625 32.71875 
Q 45.90625 40.484375 42.875 44.328125 
Q 39.84375 48.1875 33.796875 48.1875 
Q 26.515625 48.1875 22.3125 43.546875 
Q 18.109375 38.921875 18.109375 30.90625 
L 18.109375 0 
L 9.078125 0 
L 9.078125 54.6875 
L 18.109375 54.6875 
L 18.109375 46.1875 
Q 21.34375 51.125 25.703125 53.5625 
Q 30.078125 56 35.796875 56 
Q 45.21875 56 50.046875 50.171875 
Q 54.890625 44.34375 54.890625 33.015625 
z
" id="DejaVuSans-110"/>
      <path id="DejaVuSans-32"/>
      <path d="M 31.78125 66.40625 
Q 24.171875 66.40625 20.328125 58.90625 
Q 16.5 51.421875 16.5 36.375 
Q 16.5 21.390625 20.328125 13.890625 
Q 24.171875 6.390625 31.78125 6.390625 
Q 39.453125 6.390625 43.28125 13.890625 
Q 47.125 21.390625 47.125 36.375 
Q 47.125 51.421875 43.28125 58.90625 
Q 39.453125 66.40625 31.78125 66.40625 
z
M 31.78125 74.21875 
Q 44.046875 74.21875 50.515625 64.515625 
Q 56.984375 54.828125 56.984375 36.375 
Q 56.984375 17.96875 50.515625 8.265625 
Q 44.046875 -1.421875 31.78125 -1.421875 
Q 19.53125 -1.421875 13.0625 8.265625 
Q 6.59375 17.96875 6.59375 36.375 
Q 6.59375 54.828125 13.0625 64.515625 
Q 19.53125 74.21875 31.78125 74.21875 
z
" id="DejaVuSans-48"/>
      <path d="M 19.671875 34.8125 
L 19.671875 8.109375 
L 35.5 8.109375 
Q 43.453125 8.109375 47.28125 11.40625 
Q 51.125 14.703125 51.125 21.484375 
Q 51.125 28.328125 47.28125 31.5625 
Q 43.453125 34.8125 35.5 34.8125 
z
M 19.671875 64.796875 
L 19.671875 42.828125 
L 34.28125 42.828125 
Q 41.5 42.828125 45.03125 45.53125 
Q 48.578125 48.25 48.578125 53.8125 
Q 48.578125 59.328125 45.03125 62.0625 
Q 41.5 64.796875 34.28125 64.796875 
z
M 9.8125 72.90625 
L 35.015625 72.90625 
Q 46.296875 72.90625 52.390625 68.21875 
Q 58.5 63.53125 58.5 54.890625 
Q 58.5 48.1875 55.375 44.234375 
Q 52.25 40.28125 46.1875 39.3125 
Q 53.46875 37.75 57.5 32.78125 
Q 61.53125 27.828125 61.53125 20.40625 
Q 61.53125 10.640625 54.890625 5.3125 
Q 48.25 0 35.984375 0 
L 9.8125 0 
z
" id="DejaVuSans-66"/>
      <path d="M 9.8125 72.90625 
L 51.703125 72.90625 
L 51.703125 64.59375 
L 19.671875 64.59375 
L 19.671875 43.109375 
L 48.578125 43.109375 
L 48.578125 34.8125 
L 19.671875 34.8125 
L 19.671875 0 
L 9.8125 0 
z
" id="DejaVuSans-70"/>
      <path d="M 9.8125 72.90625 
L 24.515625 72.90625 
L 43.109375 23.296875 
L 61.8125 72.90625 
L 76.515625 72.90625 
L 76.515625 0 
L 66.890625 0 
L 66.890625 64.015625 
L 48.09375 14.015625 
L 38.1875 14.015625 
L 19.390625 64.015625 
L 19.390625 0 
L 9.8125 0 
z
" id="DejaVuSans-77"/>
      <path d="M 9.8125 72.90625 
L 19.671875 72.90625 
L 19.671875 0 
L 9.8125 0 
z
" id="DejaVuSans-73"/>
      <path d="M 10.59375 45.40625 
L 73.1875 45.40625 
L 73.1875 37.203125 
L 10.59375 37.203125 
z
M 10.59375 25.484375 
L 73.1875 25.484375 
L 73.1875 17.1875 
L 10.59375 17.1875 
z
" id="DejaVuSans-61"/>
      <path d="M 10.6875 12.40625 
L 21 12.40625 
L 21 0 
L 10.6875 0 
z
" id="DejaVuSans-46"/>
      <path d="M 12.40625 8.296875 
L 28.515625 8.296875 
L 28.515625 63.921875 
L 10.984375 60.40625 
L 10.984375 69.390625 
L 28.421875 72.90625 
L 38.28125 72.90625 
L 38.28125 8.296875 
L 54.390625 8.296875 
L 54.390625 0 
L 12.40625 0 
z
" id="DejaVuSans-49"/>
      <path d="M 10.796875 72.90625 
L 49.515625 72.90625 
L 49.515625 64.59375 
L 19.828125 64.59375 
L 19.828125 46.734375 
Q 21.96875 47.46875 24.109375 47.828125 
Q 26.265625 48.1875 28.421875 48.1875 
Q 40.625 48.1875 47.75 41.5 
Q 54.890625 34.8125 54.890625 23.390625 
Q 54.890625 11.625 47.5625 5.09375 
Q 40.234375 -1.421875 26.90625 -1.421875 
Q 22.3125 -1.421875 17.546875 -0.640625 
Q 12.796875 0.140625 7.71875 1.703125 
L 7.71875 11.625 
Q 12.109375 9.234375 16.796875 8.0625 
Q 21.484375 6.890625 26.703125 6.890625 
Q 35.15625 6.890625 40.078125 11.328125 
Q 45.015625 15.765625 45.015625 23.390625 
Q 45.015625 31 40.078125 35.4375 
Q 35.15625 39.890625 26.703125 39.890625 
Q 22.75 39.890625 18.8125 39.015625 
Q 14.890625 38.140625 10.796875 36.28125 
z
" id="DejaVuSans-53"/>
     </defs>
     <g style="fill:#262626;" transform="translate(356.96351 26.238053)scale(0.14 -0.14)">
      <use xlink:href="#DejaVuSans-99"/>
      <use x="54.980469" xlink:href="#DejaVuSans-104"/>
      <use x="118.359375" xlink:href="#DejaVuSans-97"/>
      <use x="179.638672" xlink:href="#DejaVuSans-105"/>
      <use x="207.421875" xlink:href="#DejaVuSans-110"/>
      <use x="270.800781" xlink:href="#DejaVuSans-32"/>
      <use x="302.587891" xlink:href="#DejaVuSans-32"/>
      <use x="334.375" xlink:href="#DejaVuSans-48"/>
      <use x="397.998047" xlink:href="#DejaVuSans-32"/>
      <use x="429.785156" xlink:href="#DejaVuSans-66"/>
      <use x="498.388672" xlink:href="#DejaVuSans-70"/>
      <use x="555.908203" xlink:href="#DejaVuSans-77"/>
      <use x="642.1875" xlink:href="#DejaVuSans-73"/>
      <use x="671.679688" xlink:href="#DejaVuSans-32"/>
      <use x="703.466797" xlink:href="#DejaVuSans-61"/>
      <use x="787.255859" xlink:href="#DejaVuSans-32"/>
      <use x="819.042969" xlink:href="#DejaVuSans-48"/>
      <use x="882.666016" xlink:href="#DejaVuSans-46"/>
      <use x="914.453125" xlink:href="#DejaVuSans-49"/>
      <use x="978.076172" xlink:href="#DejaVuSans-53"/>
     </g>
    </g>
    <g id="line2d_9">
     <path d="M 317.76351 41.887428 
L 345.76351 41.887428 
" style="fill:none;stroke:#fa7c17;stroke-linecap:round;stroke-opacity:0;stroke-width:1.5;"/>
    </g>
    <g id="line2d_10"/>
    <g id="text_2">
     <!-- chain  1 BFMI = 0.21 -->
     <defs>
      <path d="M 19.1875 8.296875 
L 53.609375 8.296875 
L 53.609375 0 
L 7.328125 0 
L 7.328125 8.296875 
Q 12.9375 14.109375 22.625 23.890625 
Q 32.328125 33.6875 34.8125 36.53125 
Q 39.546875 41.84375 41.421875 45.53125 
Q 43.3125 49.21875 43.3125 52.78125 
Q 43.3125 58.59375 39.234375 62.25 
Q 35.15625 65.921875 28.609375 65.921875 
Q 23.96875 65.921875 18.8125 64.3125 
Q 13.671875 62.703125 7.8125 59.421875 
L 7.8125 69.390625 
Q 13.765625 71.78125 18.9375 73 
Q 24.125 74.21875 28.421875 74.21875 
Q 39.75 74.21875 46.484375 68.546875 
Q 53.21875 62.890625 53.21875 53.421875 
Q 53.21875 48.921875 51.53125 44.890625 
Q 49.859375 40.875 45.40625 35.40625 
Q 44.1875 33.984375 37.640625 27.21875 
Q 31.109375 20.453125 19.1875 8.296875 
z
" id="DejaVuSans-50"/>
     </defs>
     <g style="fill:#262626;" transform="translate(356.96351 46.787428)scale(0.14 -0.14)">
      <use xlink:href="#DejaVuSans-99"/>
      <use x="54.980469" xlink:href="#DejaVuSans-104"/>
      <use x="118.359375" xlink:href="#DejaVuSans-97"/>
      <use x="179.638672" xlink:href="#DejaVuSans-105"/>
      <use x="207.421875" xlink:href="#DejaVuSans-110"/>
      <use x="270.800781" xlink:href="#DejaVuSans-32"/>
      <use x="302.587891" xlink:href="#DejaVuSans-32"/>
      <use x="334.375" xlink:href="#DejaVuSans-49"/>
      <use x="397.998047" xlink:href="#DejaVuSans-32"/>
      <use x="429.785156" xlink:href="#DejaVuSans-66"/>
      <use x="498.388672" xlink:href="#DejaVuSans-70"/>
      <use x="555.908203" xlink:href="#DejaVuSans-77"/>
      <use x="642.1875" xlink:href="#DejaVuSans-73"/>
      <use x="671.679688" xlink:href="#DejaVuSans-32"/>
      <use x="703.466797" xlink:href="#DejaVuSans-61"/>
      <use x="787.255859" xlink:href="#DejaVuSans-32"/>
      <use x="819.042969" xlink:href="#DejaVuSans-48"/>
      <use x="882.666016" xlink:href="#DejaVuSans-46"/>
      <use x="914.453125" xlink:href="#DejaVuSans-50"/>
      <use x="978.076172" xlink:href="#DejaVuSans-49"/>
     </g>
    </g>
    <g id="line2d_11">
     <path d="M 317.76351 62.436803 
L 345.76351 62.436803 
" style="fill:none;stroke:#328c06;stroke-linecap:round;stroke-opacity:0;stroke-width:1.5;"/>
    </g>
    <g id="line2d_12"/>
    <g id="text_3">
     <!-- chain  2 BFMI = 0.30 -->
     <defs>
      <path d="M 40.578125 39.3125 
Q 47.65625 37.796875 51.625 33 
Q 55.609375 28.21875 55.609375 21.1875 
Q 55.609375 10.40625 48.1875 4.484375 
Q 40.765625 -1.421875 27.09375 -1.421875 
Q 22.515625 -1.421875 17.65625 -0.515625 
Q 12.796875 0.390625 7.625 2.203125 
L 7.625 11.71875 
Q 11.71875 9.328125 16.59375 8.109375 
Q 21.484375 6.890625 26.8125 6.890625 
Q 36.078125 6.890625 40.9375 10.546875 
Q 45.796875 14.203125 45.796875 21.1875 
Q 45.796875 27.640625 41.28125 31.265625 
Q 36.765625 34.90625 28.71875 34.90625 
L 20.21875 34.90625 
L 20.21875 43.015625 
L 29.109375 43.015625 
Q 36.375 43.015625 40.234375 45.921875 
Q 44.09375 48.828125 44.09375 54.296875 
Q 44.09375 59.90625 40.109375 62.90625 
Q 36.140625 65.921875 28.71875 65.921875 
Q 24.65625 65.921875 20.015625 65.03125 
Q 15.375 64.15625 9.8125 62.3125 
L 9.8125 71.09375 
Q 15.4375 72.65625 20.34375 73.4375 
Q 25.25 74.21875 29.59375 74.21875 
Q 40.828125 74.21875 47.359375 69.109375 
Q 53.90625 64.015625 53.90625 55.328125 
Q 53.90625 49.265625 50.4375 45.09375 
Q 46.96875 40.921875 40.578125 39.3125 
z
" id="DejaVuSans-51"/>
     </defs>
     <g style="fill:#262626;" transform="translate(356.96351 67.336803)scale(0.14 -0.14)">
      <use xlink:href="#DejaVuSans-99"/>
      <use x="54.980469" xlink:href="#DejaVuSans-104"/>
      <use x="118.359375" xlink:href="#DejaVuSans-97"/>
      <use x="179.638672" xlink:href="#DejaVuSans-105"/>
      <use x="207.421875" xlink:href="#DejaVuSans-110"/>
      <use x="270.800781" xlink:href="#DejaVuSans-32"/>
      <use x="302.587891" xlink:href="#DejaVuSans-32"/>
      <use x="334.375" xlink:href="#DejaVuSans-50"/>
      <use x="397.998047" xlink:href="#DejaVuSans-32"/>
      <use x="429.785156" xlink:href="#DejaVuSans-66"/>
      <use x="498.388672" xlink:href="#DejaVuSans-70"/>
      <use x="555.908203" xlink:href="#DejaVuSans-77"/>
      <use x="642.1875" xlink:href="#DejaVuSans-73"/>
      <use x="671.679688" xlink:href="#DejaVuSans-32"/>
      <use x="703.466797" xlink:href="#DejaVuSans-61"/>
      <use x="787.255859" xlink:href="#DejaVuSans-32"/>
      <use x="819.042969" xlink:href="#DejaVuSans-48"/>
      <use x="882.666016" xlink:href="#DejaVuSans-46"/>
      <use x="914.453125" xlink:href="#DejaVuSans-51"/>
      <use x="978.076172" xlink:href="#DejaVuSans-48"/>
     </g>
    </g>
    <g id="line2d_13">
     <path d="M 317.76351 82.986178 
L 345.76351 82.986178 
" style="fill:none;stroke:#c10c90;stroke-linecap:round;stroke-opacity:0;stroke-width:1.5;"/>
    </g>
    <g id="line2d_14"/>
    <g id="text_4">
     <!-- chain  3 BFMI = 0.17 -->
     <defs>
      <path d="M 8.203125 72.90625 
L 55.078125 72.90625 
L 55.078125 68.703125 
L 28.609375 0 
L 18.3125 0 
L 43.21875 64.59375 
L 8.203125 64.59375 
z
" id="DejaVuSans-55"/>
     </defs>
     <g style="fill:#262626;" transform="translate(356.96351 87.886178)scale(0.14 -0.14)">
      <use xlink:href="#DejaVuSans-99"/>
      <use x="54.980469" xlink:href="#DejaVuSans-104"/>
      <use x="118.359375" xlink:href="#DejaVuSans-97"/>
      <use x="179.638672" xlink:href="#DejaVuSans-105"/>
      <use x="207.421875" xlink:href="#DejaVuSans-110"/>
      <use x="270.800781" xlink:href="#DejaVuSans-32"/>
      <use x="302.587891" xlink:href="#DejaVuSans-32"/>
      <use x="334.375" xlink:href="#DejaVuSans-51"/>
      <use x="397.998047" xlink:href="#DejaVuSans-32"/>
      <use x="429.785156" xlink:href="#DejaVuSans-66"/>
      <use x="498.388672" xlink:href="#DejaVuSans-70"/>
      <use x="555.908203" xlink:href="#DejaVuSans-77"/>
      <use x="642.1875" xlink:href="#DejaVuSans-73"/>
      <use x="671.679688" xlink:href="#DejaVuSans-32"/>
      <use x="703.466797" xlink:href="#DejaVuSans-61"/>
      <use x="787.255859" xlink:href="#DejaVuSans-32"/>
      <use x="819.042969" xlink:href="#DejaVuSans-48"/>
      <use x="882.666016" xlink:href="#DejaVuSans-46"/>
      <use x="914.453125" xlink:href="#DejaVuSans-49"/>
      <use x="978.076172" xlink:href="#DejaVuSans-55"/>
     </g>
    </g>
    <g id="patch_7">
     <path d="M 317.76351 108.435553 
L 345.76351 108.435553 
L 345.76351 98.635553 
L 317.76351 98.635553 
z
" style="fill:#2a2eec;stroke:#2a2eec;stroke-linejoin:miter;"/>
    </g>
    <g id="text_5">
     <!-- Marginal Energy -->
     <defs>
      <path d="M 41.109375 46.296875 
Q 39.59375 47.171875 37.8125 47.578125 
Q 36.03125 48 33.890625 48 
Q 26.265625 48 22.1875 43.046875 
Q 18.109375 38.09375 18.109375 28.8125 
L 18.109375 0 
L 9.078125 0 
L 9.078125 54.6875 
L 18.109375 54.6875 
L 18.109375 46.1875 
Q 20.953125 51.171875 25.484375 53.578125 
Q 30.03125 56 36.53125 56 
Q 37.453125 56 38.578125 55.875 
Q 39.703125 55.765625 41.0625 55.515625 
z
" id="DejaVuSans-114"/>
      <path d="M 45.40625 27.984375 
Q 45.40625 37.75 41.375 43.109375 
Q 37.359375 48.484375 30.078125 48.484375 
Q 22.859375 48.484375 18.828125 43.109375 
Q 14.796875 37.75 14.796875 27.984375 
Q 14.796875 18.265625 18.828125 12.890625 
Q 22.859375 7.515625 30.078125 7.515625 
Q 37.359375 7.515625 41.375 12.890625 
Q 45.40625 18.265625 45.40625 27.984375 
z
M 54.390625 6.78125 
Q 54.390625 -7.171875 48.1875 -13.984375 
Q 42 -20.796875 29.203125 -20.796875 
Q 24.46875 -20.796875 20.265625 -20.09375 
Q 16.0625 -19.390625 12.109375 -17.921875 
L 12.109375 -9.1875 
Q 16.0625 -11.328125 19.921875 -12.34375 
Q 23.78125 -13.375 27.78125 -13.375 
Q 36.625 -13.375 41.015625 -8.765625 
Q 45.40625 -4.15625 45.40625 5.171875 
L 45.40625 9.625 
Q 42.625 4.78125 38.28125 2.390625 
Q 33.9375 0 27.875 0 
Q 17.828125 0 11.671875 7.65625 
Q 5.515625 15.328125 5.515625 27.984375 
Q 5.515625 40.671875 11.671875 48.328125 
Q 17.828125 56 27.875 56 
Q 33.9375 56 38.28125 53.609375 
Q 42.625 51.21875 45.40625 46.390625 
L 45.40625 54.6875 
L 54.390625 54.6875 
z
" id="DejaVuSans-103"/>
      <path d="M 9.421875 75.984375 
L 18.40625 75.984375 
L 18.40625 0 
L 9.421875 0 
z
" id="DejaVuSans-108"/>
      <path d="M 9.8125 72.90625 
L 55.90625 72.90625 
L 55.90625 64.59375 
L 19.671875 64.59375 
L 19.671875 43.015625 
L 54.390625 43.015625 
L 54.390625 34.71875 
L 19.671875 34.71875 
L 19.671875 8.296875 
L 56.78125 8.296875 
L 56.78125 0 
L 9.8125 0 
z
" id="DejaVuSans-69"/>
      <path d="M 56.203125 29.59375 
L 56.203125 25.203125 
L 14.890625 25.203125 
Q 15.484375 15.921875 20.484375 11.0625 
Q 25.484375 6.203125 34.421875 6.203125 
Q 39.59375 6.203125 44.453125 7.46875 
Q 49.3125 8.734375 54.109375 11.28125 
L 54.109375 2.78125 
Q 49.265625 0.734375 44.1875 -0.34375 
Q 39.109375 -1.421875 33.890625 -1.421875 
Q 20.796875 -1.421875 13.15625 6.1875 
Q 5.515625 13.8125 5.515625 26.8125 
Q 5.515625 40.234375 12.765625 48.109375 
Q 20.015625 56 32.328125 56 
Q 43.359375 56 49.78125 48.890625 
Q 56.203125 41.796875 56.203125 29.59375 
z
M 47.21875 32.234375 
Q 47.125 39.59375 43.09375 43.984375 
Q 39.0625 48.390625 32.421875 48.390625 
Q 24.90625 48.390625 20.390625 44.140625 
Q 15.875 39.890625 15.1875 32.171875 
z
" id="DejaVuSans-101"/>
      <path d="M 32.171875 -5.078125 
Q 28.375 -14.84375 24.75 -17.8125 
Q 21.140625 -20.796875 15.09375 -20.796875 
L 7.90625 -20.796875 
L 7.90625 -13.28125 
L 13.1875 -13.28125 
Q 16.890625 -13.28125 18.9375 -11.515625 
Q 21 -9.765625 23.484375 -3.21875 
L 25.09375 0.875 
L 2.984375 54.6875 
L 12.5 54.6875 
L 29.59375 11.921875 
L 46.6875 54.6875 
L 56.203125 54.6875 
z
" id="DejaVuSans-121"/>
     </defs>
     <g style="fill:#262626;" transform="translate(356.96351 108.435553)scale(0.14 -0.14)">
      <use xlink:href="#DejaVuSans-77"/>
      <use x="86.279297" xlink:href="#DejaVuSans-97"/>
      <use x="147.558594" xlink:href="#DejaVuSans-114"/>
      <use x="188.65625" xlink:href="#DejaVuSans-103"/>
      <use x="252.132812" xlink:href="#DejaVuSans-105"/>
      <use x="279.916016" xlink:href="#DejaVuSans-110"/>
      <use x="343.294922" xlink:href="#DejaVuSans-97"/>
      <use x="404.574219" xlink:href="#DejaVuSans-108"/>
      <use x="432.357422" xlink:href="#DejaVuSans-32"/>
      <use x="464.144531" xlink:href="#DejaVuSans-69"/>
      <use x="527.328125" xlink:href="#DejaVuSans-110"/>
      <use x="590.707031" xlink:href="#DejaVuSans-101"/>
      <use x="652.230469" xlink:href="#DejaVuSans-114"/>
      <use x="693.328125" xlink:href="#DejaVuSans-103"/>
      <use x="756.804688" xlink:href="#DejaVuSans-121"/>
     </g>
    </g>
    <g id="patch_8">
     <path d="M 317.76351 128.984928 
L 345.76351 128.984928 
L 345.76351 119.184928 
L 317.76351 119.184928 
z
" style="fill:#65e5f3;opacity:0.75;stroke:#65e5f3;stroke-linejoin:miter;"/>
    </g>
    <g id="text_6">
     <!-- Energy transition -->
     <defs>
      <path d="M 18.3125 70.21875 
L 18.3125 54.6875 
L 36.8125 54.6875 
L 36.8125 47.703125 
L 18.3125 47.703125 
L 18.3125 18.015625 
Q 18.3125 11.328125 20.140625 9.421875 
Q 21.96875 7.515625 27.59375 7.515625 
L 36.8125 7.515625 
L 36.8125 0 
L 27.59375 0 
Q 17.1875 0 13.234375 3.875 
Q 9.28125 7.765625 9.28125 18.015625 
L 9.28125 47.703125 
L 2.6875 47.703125 
L 2.6875 54.6875 
L 9.28125 54.6875 
L 9.28125 70.21875 
z
" id="DejaVuSans-116"/>
      <path d="M 44.28125 53.078125 
L 44.28125 44.578125 
Q 40.484375 46.53125 36.375 47.5 
Q 32.28125 48.484375 27.875 48.484375 
Q 21.1875 48.484375 17.84375 46.4375 
Q 14.5 44.390625 14.5 40.28125 
Q 14.5 37.15625 16.890625 35.375 
Q 19.28125 33.59375 26.515625 31.984375 
L 29.59375 31.296875 
Q 39.15625 29.25 43.1875 25.515625 
Q 47.21875 21.78125 47.21875 15.09375 
Q 47.21875 7.46875 41.1875 3.015625 
Q 35.15625 -1.421875 24.609375 -1.421875 
Q 20.21875 -1.421875 15.453125 -0.5625 
Q 10.6875 0.296875 5.421875 2 
L 5.421875 11.28125 
Q 10.40625 8.6875 15.234375 7.390625 
Q 20.0625 6.109375 24.8125 6.109375 
Q 31.15625 6.109375 34.5625 8.28125 
Q 37.984375 10.453125 37.984375 14.40625 
Q 37.984375 18.0625 35.515625 20.015625 
Q 33.0625 21.96875 24.703125 23.78125 
L 21.578125 24.515625 
Q 13.234375 26.265625 9.515625 29.90625 
Q 5.8125 33.546875 5.8125 39.890625 
Q 5.8125 47.609375 11.28125 51.796875 
Q 16.75 56 26.8125 56 
Q 31.78125 56 36.171875 55.265625 
Q 40.578125 54.546875 44.28125 53.078125 
z
" id="DejaVuSans-115"/>
      <path d="M 30.609375 48.390625 
Q 23.390625 48.390625 19.1875 42.75 
Q 14.984375 37.109375 14.984375 27.296875 
Q 14.984375 17.484375 19.15625 11.84375 
Q 23.34375 6.203125 30.609375 6.203125 
Q 37.796875 6.203125 41.984375 11.859375 
Q 46.1875 17.53125 46.1875 27.296875 
Q 46.1875 37.015625 41.984375 42.703125 
Q 37.796875 48.390625 30.609375 48.390625 
z
M 30.609375 56 
Q 42.328125 56 49.015625 48.375 
Q 55.71875 40.765625 55.71875 27.296875 
Q 55.71875 13.875 49.015625 6.21875 
Q 42.328125 -1.421875 30.609375 -1.421875 
Q 18.84375 -1.421875 12.171875 6.21875 
Q 5.515625 13.875 5.515625 27.296875 
Q 5.515625 40.765625 12.171875 48.375 
Q 18.84375 56 30.609375 56 
z
" id="DejaVuSans-111"/>
     </defs>
     <g style="fill:#262626;" transform="translate(356.96351 128.984928)scale(0.14 -0.14)">
      <use xlink:href="#DejaVuSans-69"/>
      <use x="63.183594" xlink:href="#DejaVuSans-110"/>
      <use x="126.5625" xlink:href="#DejaVuSans-101"/>
      <use x="188.085938" xlink:href="#DejaVuSans-114"/>
      <use x="229.183594" xlink:href="#DejaVuSans-103"/>
      <use x="292.660156" xlink:href="#DejaVuSans-121"/>
      <use x="351.839844" xlink:href="#DejaVuSans-32"/>
      <use x="383.626953" xlink:href="#DejaVuSans-116"/>
      <use x="422.835938" xlink:href="#DejaVuSans-114"/>
      <use x="463.949219" xlink:href="#DejaVuSans-97"/>
      <use x="525.228516" xlink:href="#DejaVuSans-110"/>
      <use x="588.607422" xlink:href="#DejaVuSans-115"/>
      <use x="640.707031" xlink:href="#DejaVuSans-105"/>
      <use x="668.490234" xlink:href="#DejaVuSans-116"/>
      <use x="707.699219" xlink:href="#DejaVuSans-105"/>
      <use x="735.482422" xlink:href="#DejaVuSans-111"/>
      <use x="796.664062" xlink:href="#DejaVuSans-110"/>
     </g>
    </g>
   </g>
  </g>
 </g>
 <defs>
  <clipPath id="p0a252f73d9">
   <rect height="339.59952" width="512.39952" x="3.00024" y="3.00024"/>
  </clipPath>
 </defs>
</svg>
