<?xml version="1.0" encoding="utf-8" standalone="no"?>
<!DOCTYPE svg PUBLIC "-//W3C//DTD SVG 1.1//EN"
  "http://www.w3.org/Graphics/SVG/1.1/DTD/svg11.dtd">
<!-- Created with matplotlib (https://matplotlib.org/) -->
<svg height="397.44pt" version="1.1" viewBox="0 0 1192.32 397.44" width="1192.32pt" xmlns="http://www.w3.org/2000/svg" xmlns:xlink="http://www.w3.org/1999/xlink">
 <defs>
  <style type="text/css">
*{stroke-linecap:butt;stroke-linejoin:round;}
  </style>
 </defs>
 <g id="figure_1">
  <g id="patch_1">
   <path d="M 0 397.44 
L 1192.32 397.44 
L 1192.32 0 
L 0 0 
z
" style="fill:#ffffff;"/>
  </g>
  <g id="axes_1">
   <g id="patch_2">
    <path d="M 3.00024 377.390385 
L 587.19816 377.390385 
L 587.19816 21.15774 
L 3.00024 21.15774 
z
" style="fill:#eeeeee;"/>
   </g>
   <g id="matplotlib.axis_1">
    <g id="xtick_1">
     <g id="line2d_1">
      <path clip-path="url(#p07e7e47433)" d="M 86.074088 377.390385 
L 86.074088 21.15774 
" style="fill:none;stroke:#ffffff;stroke-linecap:round;stroke-width:0.8;"/>
     </g>
     <g id="line2d_2"/>
     <g id="text_1">
      <!-- 0 -->
      <defs>
       <path d="M 31.78125 66.40625 
Q 24.171875 66.40625 20.328125 58.90625 
Q 16.5 51.421875 16.5 36.375 
Q 16.5 21.390625 20.328125 13.890625 
Q 24.171875 6.390625 31.78125 6.390625 
Q 39.453125 6.390625 43.28125 13.890625 
Q 47.125 21.390625 47.125 36.375 
Q 47.125 51.421875 43.28125 58.90625 
Q 39.453125 66.40625 31.78125 66.40625 
z
M 31.78125 74.21875 
Q 44.046875 74.21875 50.515625 64.515625 
Q 56.984375 54.828125 56.984375 36.375 
Q 56.984375 17.96875 50.515625 8.265625 
Q 44.046875 -1.421875 31.78125 -1.421875 
Q 19.53125 -1.421875 13.0625 8.265625 
Q 6.59375 17.96875 6.59375 36.375 
Q 6.59375 54.828125 13.0625 64.515625 
Q 19.53125 74.21875 31.78125 74.21875 
z
" id="DejaVuSans-48"/>
      </defs>
      <g style="fill:#262626;" transform="translate(81.620338 391.528197)scale(0.14 -0.14)">
       <use xlink:href="#DejaVuSans-48"/>
      </g>
     </g>
    </g>
    <g id="xtick_2">
     <g id="line2d_3">
      <path clip-path="url(#p07e7e47433)" d="M 174.427753 377.390385 
L 174.427753 21.15774 
" style="fill:none;stroke:#ffffff;stroke-linecap:round;stroke-width:0.8;"/>
     </g>
     <g id="line2d_4"/>
     <g id="text_2">
      <!-- 2 -->
      <defs>
       <path d="M 19.1875 8.296875 
L 53.609375 8.296875 
L 53.609375 0 
L 7.328125 0 
L 7.328125 8.296875 
Q 12.9375 14.109375 22.625 23.890625 
Q 32.328125 33.6875 34.8125 36.53125 
Q 39.546875 41.84375 41.421875 45.53125 
Q 43.3125 49.21875 43.3125 52.78125 
Q 43.3125 58.59375 39.234375 62.25 
Q 35.15625 65.921875 28.609375 65.921875 
Q 23.96875 65.921875 18.8125 64.3125 
Q 13.671875 62.703125 7.8125 59.421875 
L 7.8125 69.390625 
Q 13.765625 71.78125 18.9375 73 
Q 24.125 74.21875 28.421875 74.21875 
Q 39.75 74.21875 46.484375 68.546875 
Q 53.21875 62.890625 53.21875 53.421875 
Q 53.21875 48.921875 51.53125 44.890625 
Q 49.859375 40.875 45.40625 35.40625 
Q 44.1875 33.984375 37.640625 27.21875 
Q 31.109375 20.453125 19.1875 8.296875 
z
" id="DejaVuSans-50"/>
      </defs>
      <g style="fill:#262626;" transform="translate(169.974003 391.528197)scale(0.14 -0.14)">
       <use xlink:href="#DejaVuSans-50"/>
      </g>
     </g>
    </g>
    <g id="xtick_3">
     <g id="line2d_5">
      <path clip-path="url(#p07e7e47433)" d="M 262.781417 377.390385 
L 262.781417 21.15774 
" style="fill:none;stroke:#ffffff;stroke-linecap:round;stroke-width:0.8;"/>
     </g>
     <g id="line2d_6"/>
     <g id="text_3">
      <!-- 4 -->
      <defs>
       <path d="M 37.796875 64.3125 
L 12.890625 25.390625 
L 37.796875 25.390625 
z
M 35.203125 72.90625 
L 47.609375 72.90625 
L 47.609375 25.390625 
L 58.015625 25.390625 
L 58.015625 17.1875 
L 47.609375 17.1875 
L 47.609375 0 
L 37.796875 0 
L 37.796875 17.1875 
L 4.890625 17.1875 
L 4.890625 26.703125 
z
" id="DejaVuSans-52"/>
      </defs>
      <g style="fill:#262626;" transform="translate(258.327667 391.528197)scale(0.14 -0.14)">
       <use xlink:href="#DejaVuSans-52"/>
      </g>
     </g>
    </g>
    <g id="xtick_4">
     <g id="line2d_7">
      <path clip-path="url(#p07e7e47433)" d="M 351.135082 377.390385 
L 351.135082 21.15774 
" style="fill:none;stroke:#ffffff;stroke-linecap:round;stroke-width:0.8;"/>
     </g>
     <g id="line2d_8"/>
     <g id="text_4">
      <!-- 6 -->
      <defs>
       <path d="M 33.015625 40.375 
Q 26.375 40.375 22.484375 35.828125 
Q 18.609375 31.296875 18.609375 23.390625 
Q 18.609375 15.53125 22.484375 10.953125 
Q 26.375 6.390625 33.015625 6.390625 
Q 39.65625 6.390625 43.53125 10.953125 
Q 47.40625 15.53125 47.40625 23.390625 
Q 47.40625 31.296875 43.53125 35.828125 
Q 39.65625 40.375 33.015625 40.375 
z
M 52.59375 71.296875 
L 52.59375 62.3125 
Q 48.875 64.0625 45.09375 64.984375 
Q 41.3125 65.921875 37.59375 65.921875 
Q 27.828125 65.921875 22.671875 59.328125 
Q 17.53125 52.734375 16.796875 39.40625 
Q 19.671875 43.65625 24.015625 45.921875 
Q 28.375 48.1875 33.59375 48.1875 
Q 44.578125 48.1875 50.953125 41.515625 
Q 57.328125 34.859375 57.328125 23.390625 
Q 57.328125 12.15625 50.6875 5.359375 
Q 44.046875 -1.421875 33.015625 -1.421875 
Q 20.359375 -1.421875 13.671875 8.265625 
Q 6.984375 17.96875 6.984375 36.375 
Q 6.984375 53.65625 15.1875 63.9375 
Q 23.390625 74.21875 37.203125 74.21875 
Q 40.921875 74.21875 44.703125 73.484375 
Q 48.484375 72.75 52.59375 71.296875 
z
" id="DejaVuSans-54"/>
      </defs>
      <g style="fill:#262626;" transform="translate(346.681332 391.528197)scale(0.14 -0.14)">
       <use xlink:href="#DejaVuSans-54"/>
      </g>
     </g>
    </g>
    <g id="xtick_5">
     <g id="line2d_9">
      <path clip-path="url(#p07e7e47433)" d="M 439.488747 377.390385 
L 439.488747 21.15774 
" style="fill:none;stroke:#ffffff;stroke-linecap:round;stroke-width:0.8;"/>
     </g>
     <g id="line2d_10"/>
     <g id="text_5">
      <!-- 8 -->
      <defs>
       <path d="M 31.78125 34.625 
Q 24.75 34.625 20.71875 30.859375 
Q 16.703125 27.09375 16.703125 20.515625 
Q 16.703125 13.921875 20.71875 10.15625 
Q 24.75 6.390625 31.78125 6.390625 
Q 38.8125 6.390625 42.859375 10.171875 
Q 46.921875 13.96875 46.921875 20.515625 
Q 46.921875 27.09375 42.890625 30.859375 
Q 38.875 34.625 31.78125 34.625 
z
M 21.921875 38.8125 
Q 15.578125 40.375 12.03125 44.71875 
Q 8.5 49.078125 8.5 55.328125 
Q 8.5 64.0625 14.71875 69.140625 
Q 20.953125 74.21875 31.78125 74.21875 
Q 42.671875 74.21875 48.875 69.140625 
Q 55.078125 64.0625 55.078125 55.328125 
Q 55.078125 49.078125 51.53125 44.71875 
Q 48 40.375 41.703125 38.8125 
Q 48.828125 37.15625 52.796875 32.3125 
Q 56.78125 27.484375 56.78125 20.515625 
Q 56.78125 9.90625 50.3125 4.234375 
Q 43.84375 -1.421875 31.78125 -1.421875 
Q 19.734375 -1.421875 13.25 4.234375 
Q 6.78125 9.90625 6.78125 20.515625 
Q 6.78125 27.484375 10.78125 32.3125 
Q 14.796875 37.15625 21.921875 38.8125 
z
M 18.3125 54.390625 
Q 18.3125 48.734375 21.84375 45.5625 
Q 25.390625 42.390625 31.78125 42.390625 
Q 38.140625 42.390625 41.71875 45.5625 
Q 45.3125 48.734375 45.3125 54.390625 
Q 45.3125 60.0625 41.71875 63.234375 
Q 38.140625 66.40625 31.78125 66.40625 
Q 25.390625 66.40625 21.84375 63.234375 
Q 18.3125 60.0625 18.3125 54.390625 
z
" id="DejaVuSans-56"/>
      </defs>
      <g style="fill:#262626;" transform="translate(435.034997 391.528197)scale(0.14 -0.14)">
       <use xlink:href="#DejaVuSans-56"/>
      </g>
     </g>
    </g>
    <g id="xtick_6">
     <g id="line2d_11">
      <path clip-path="url(#p07e7e47433)" d="M 527.842411 377.390385 
L 527.842411 21.15774 
" style="fill:none;stroke:#ffffff;stroke-linecap:round;stroke-width:0.8;"/>
     </g>
     <g id="line2d_12"/>
     <g id="text_6">
      <!-- 10 -->
      <defs>
       <path d="M 12.40625 8.296875 
L 28.515625 8.296875 
L 28.515625 63.921875 
L 10.984375 60.40625 
L 10.984375 69.390625 
L 28.421875 72.90625 
L 38.28125 72.90625 
L 38.28125 8.296875 
L 54.390625 8.296875 
L 54.390625 0 
L 12.40625 0 
z
" id="DejaVuSans-49"/>
      </defs>
      <g style="fill:#262626;" transform="translate(518.934911 391.528197)scale(0.14 -0.14)">
       <use xlink:href="#DejaVuSans-49"/>
       <use x="63.623047" xlink:href="#DejaVuSans-48"/>
      </g>
     </g>
    </g>
   </g>
   <g id="matplotlib.axis_2"/>
   <g id="line2d_13">
    <path clip-path="url(#p07e7e47433)" d="M 29.554691 278.272637 
L 32.22348 278.272637 
L 34.892269 278.105559 
L 37.561058 277.753155 
L 40.229847 277.261512 
L 42.898636 276.603299 
L 45.567425 275.751036 
L 50.905003 273.57926 
L 53.573792 272.214831 
L 56.242581 270.722105 
L 61.580159 267.253208 
L 64.248948 265.389222 
L 72.255315 259.141699 
L 80.261683 252.840059 
L 85.599261 248.83236 
L 90.936839 245.115232 
L 98.943206 239.55778 
L 101.611995 237.619809 
L 106.949573 233.323775 
L 109.618362 230.883822 
L 112.287151 228.241773 
L 117.624729 222.355381 
L 122.962307 215.511933 
L 125.631096 211.823757 
L 133.637463 199.938472 
L 138.975041 192.007377 
L 144.312619 184.487774 
L 149.650198 177.820216 
L 152.318987 174.861826 
L 154.987776 172.22313 
L 157.656565 169.794952 
L 160.325354 167.706527 
L 162.994143 165.904511 
L 168.331721 162.959318 
L 171.00051 161.72947 
L 187.013244 155.481705 
L 192.350822 152.829161 
L 200.357189 148.30659 
L 216.369923 137.40315 
L 221.707502 133.234812 
L 224.376291 130.810442 
L 227.04508 128.120141 
L 229.713869 125.034381 
L 232.382658 121.644568 
L 235.051447 117.854723 
L 237.720236 113.622807 
L 240.389025 108.938058 
L 243.057814 104.001447 
L 248.395392 92.971604 
L 256.401759 76.140244 
L 259.070548 70.79963 
L 264.408126 61.00463 
L 267.076915 56.697291 
L 269.745704 52.811402 
L 272.414493 49.2843 
L 275.083282 46.235427 
L 277.752071 43.586437 
L 280.42086 41.297488 
L 283.089649 39.544809 
L 285.758438 38.245374 
L 288.427227 37.515763 
L 291.096016 37.350133 
L 293.764805 37.735693 
L 296.433595 38.758908 
L 299.102384 40.364766 
L 301.771173 42.568754 
L 304.439962 45.341026 
L 307.108751 48.562865 
L 309.77754 52.216197 
L 315.115118 60.208731 
L 317.783907 64.346787 
L 323.121485 71.892181 
L 325.790274 75.290202 
L 328.459063 78.421005 
L 331.127852 81.153416 
L 333.796641 83.400235 
L 336.46543 85.297802 
L 339.134219 86.756369 
L 341.803008 87.768868 
L 344.471797 88.361637 
L 347.140586 88.529131 
L 349.809375 88.130901 
L 352.478164 87.347468 
L 355.146953 86.359219 
L 357.815742 85.10926 
L 360.484531 83.647935 
L 365.822109 81.171266 
L 368.490898 80.269139 
L 371.159688 79.908718 
L 373.828477 80.318308 
L 376.497266 81.53349 
L 379.166055 83.692631 
L 381.834844 86.931552 
L 384.503633 91.105228 
L 387.172422 96.177657 
L 389.841211 102.146846 
L 392.51 108.76732 
L 397.847578 123.268044 
L 405.853945 145.299633 
L 408.522734 151.969064 
L 411.191523 158.336606 
L 413.860312 164.152667 
L 416.529101 169.533139 
L 419.19789 174.320051 
L 421.866679 178.622344 
L 424.535468 182.522113 
L 427.204257 186.056739 
L 429.873046 189.256421 
L 432.541835 192.256067 
L 437.879413 198.014612 
L 448.55457 208.161147 
L 453.892148 213.559047 
L 456.560937 216.396349 
L 461.898515 222.615374 
L 464.567304 225.975231 
L 469.904882 233.341064 
L 475.24246 241.231156 
L 488.586405 262.039742 
L 491.255194 265.885894 
L 493.923983 269.480219 
L 496.592772 272.765105 
L 499.261561 275.681077 
L 501.93035 278.290565 
L 504.599139 280.556249 
L 507.267928 282.457855 
L 509.936717 284.058113 
L 512.605506 285.447531 
L 515.274295 286.67942 
L 520.611874 288.64449 
L 528.618241 291.505788 
L 533.955819 293.612445 
L 544.630975 298.116162 
L 549.968553 300.130643 
L 552.637342 300.957166 
L 555.306131 301.603845 
L 557.97492 302.084448 
L 560.643709 302.382763 
L 560.643709 302.382763 
" style="fill:none;stroke:#2a2eec;stroke-linecap:round;stroke-width:1.5;"/>
   </g>
   <g id="line2d_14">
    <path clip-path="url(#p07e7e47433)" d="M 29.554691 361.197992 
L 29.554691 278.272637 
" style="fill:none;stroke:#2a2eec;stroke-linecap:round;stroke-width:1.5;"/>
   </g>
   <g id="line2d_15">
    <path clip-path="url(#p07e7e47433)" d="M 560.643709 360.956891 
L 560.643709 302.382763 
" style="fill:none;stroke:#2a2eec;stroke-linecap:round;stroke-width:1.5;"/>
   </g>
   <g id="line2d_16">
    <defs>
     <path d="M 0 3 
C 0.795609 3 1.55874 2.683901 2.12132 2.12132 
C 2.683901 1.55874 3 0.795609 3 0 
C 3 -0.795609 2.683901 -1.55874 2.12132 -2.12132 
C 1.55874 -2.683901 0.795609 -3 0 -3 
C -0.795609 -3 -1.55874 -2.683901 -2.12132 -2.12132 
C -2.683901 -1.55874 -3 -0.795609 -3 0 
C -3 0.795609 -2.683901 1.55874 -2.12132 2.12132 
C -1.55874 2.683901 -0.795609 3 0 3 
z
" id="m1d57ff9159" style="stroke:#000000;"/>
    </defs>
    <g clip-path="url(#p07e7e47433)">
     <use style="fill:#2a2eec;stroke:#000000;" x="285.659229" xlink:href="#m1d57ff9159" y="360.376949"/>
    </g>
   </g>
   <g id="patch_3">
    <path d="M 3.00024 377.390385 
L 587.19816 377.390385 
" style="fill:none;"/>
   </g>
   <g id="text_7">
    <!-- mu -->
    <defs>
     <path d="M 52 44.1875 
Q 55.375 50.25 60.0625 53.125 
Q 64.75 56 71.09375 56 
Q 79.640625 56 84.28125 50.015625 
Q 88.921875 44.046875 88.921875 33.015625 
L 88.921875 0 
L 79.890625 0 
L 79.890625 32.71875 
Q 79.890625 40.578125 77.09375 44.375 
Q 74.3125 48.1875 68.609375 48.1875 
Q 61.625 48.1875 57.5625 43.546875 
Q 53.515625 38.921875 53.515625 30.90625 
L 53.515625 0 
L 44.484375 0 
L 44.484375 32.71875 
Q 44.484375 40.625 41.703125 44.40625 
Q 38.921875 48.1875 33.109375 48.1875 
Q 26.21875 48.1875 22.15625 43.53125 
Q 18.109375 38.875 18.109375 30.90625 
L 18.109375 0 
L 9.078125 0 
L 9.078125 54.6875 
L 18.109375 54.6875 
L 18.109375 46.1875 
Q 21.1875 51.21875 25.484375 53.609375 
Q 29.78125 56 35.6875 56 
Q 41.65625 56 45.828125 52.96875 
Q 50 49.953125 52 44.1875 
z
" id="DejaVuSans-109"/>
     <path d="M 8.5 21.578125 
L 8.5 54.6875 
L 17.484375 54.6875 
L 17.484375 21.921875 
Q 17.484375 14.15625 20.5 10.265625 
Q 23.53125 6.390625 29.59375 6.390625 
Q 36.859375 6.390625 41.078125 11.03125 
Q 45.3125 15.671875 45.3125 23.6875 
L 45.3125 54.6875 
L 54.296875 54.6875 
L 54.296875 0 
L 45.3125 0 
L 45.3125 8.40625 
Q 42.046875 3.421875 37.71875 1 
Q 33.40625 -1.421875 27.6875 -1.421875 
Q 18.265625 -1.421875 13.375 4.4375 
Q 8.5 10.296875 8.5 21.578125 
z
M 31.109375 56 
z
" id="DejaVuSans-117"/>
    </defs>
    <g style="fill:#262626;" transform="translate(282.2367 15.15774)scale(0.16 -0.16)">
     <use xlink:href="#DejaVuSans-109"/>
     <use x="97.412109" xlink:href="#DejaVuSans-117"/>
    </g>
   </g>
  </g>
  <g id="axes_2">
   <g id="patch_4">
    <path d="M 605.12184 377.390385 
L 1189.31976 377.390385 
L 1189.31976 21.15774 
L 605.12184 21.15774 
z
" style="fill:#eeeeee;"/>
   </g>
   <g id="matplotlib.axis_3">
    <g id="xtick_7">
     <g id="line2d_17">
      <path clip-path="url(#p1ee5ae1774)" d="M 714.599398 377.390385 
L 714.599398 21.15774 
" style="fill:none;stroke:#ffffff;stroke-linecap:round;stroke-width:0.8;"/>
     </g>
     <g id="line2d_18"/>
     <g id="text_8">
      <!-- 2 -->
      <g style="fill:#262626;" transform="translate(710.145648 391.528197)scale(0.14 -0.14)">
       <use xlink:href="#DejaVuSans-50"/>
      </g>
     </g>
    </g>
    <g id="xtick_8">
     <g id="line2d_19">
      <path clip-path="url(#p1ee5ae1774)" d="M 825.188018 377.390385 
L 825.188018 21.15774 
" style="fill:none;stroke:#ffffff;stroke-linecap:round;stroke-width:0.8;"/>
     </g>
     <g id="line2d_20"/>
     <g id="text_9">
      <!-- 4 -->
      <g style="fill:#262626;" transform="translate(820.734268 391.528197)scale(0.14 -0.14)">
       <use xlink:href="#DejaVuSans-52"/>
      </g>
     </g>
    </g>
    <g id="xtick_9">
     <g id="line2d_21">
      <path clip-path="url(#p1ee5ae1774)" d="M 935.776638 377.390385 
L 935.776638 21.15774 
" style="fill:none;stroke:#ffffff;stroke-linecap:round;stroke-width:0.8;"/>
     </g>
     <g id="line2d_22"/>
     <g id="text_10">
      <!-- 6 -->
      <g style="fill:#262626;" transform="translate(931.322888 391.528197)scale(0.14 -0.14)">
       <use xlink:href="#DejaVuSans-54"/>
      </g>
     </g>
    </g>
    <g id="xtick_10">
     <g id="line2d_23">
      <path clip-path="url(#p1ee5ae1774)" d="M 1046.365257 377.390385 
L 1046.365257 21.15774 
" style="fill:none;stroke:#ffffff;stroke-linecap:round;stroke-width:0.8;"/>
     </g>
     <g id="line2d_24"/>
     <g id="text_11">
      <!-- 8 -->
      <g style="fill:#262626;" transform="translate(1041.911507 391.528197)scale(0.14 -0.14)">
       <use xlink:href="#DejaVuSans-56"/>
      </g>
     </g>
    </g>
    <g id="xtick_11">
     <g id="line2d_25">
      <path clip-path="url(#p1ee5ae1774)" d="M 1156.953877 377.390385 
L 1156.953877 21.15774 
" style="fill:none;stroke:#ffffff;stroke-linecap:round;stroke-width:0.8;"/>
     </g>
     <g id="line2d_26"/>
     <g id="text_12">
      <!-- 10 -->
      <g style="fill:#262626;" transform="translate(1148.046377 391.528197)scale(0.14 -0.14)">
       <use xlink:href="#DejaVuSans-49"/>
       <use x="63.623047" xlink:href="#DejaVuSans-48"/>
      </g>
     </g>
    </g>
   </g>
   <g id="matplotlib.axis_4"/>
   <g id="line2d_27">
    <path clip-path="url(#p1ee5ae1774)" d="M 631.676291 62.226455 
L 634.34508 62.226455 
L 637.013869 61.603013 
L 639.682658 60.440893 
L 642.351447 58.731911 
L 645.020236 56.612421 
L 647.689025 54.173255 
L 658.364181 43.490794 
L 661.03297 41.217057 
L 663.701759 39.366092 
L 666.370548 38.036568 
L 669.039337 37.350133 
L 671.708126 37.365063 
L 674.376915 37.77544 
L 677.045705 38.897359 
L 679.714494 40.595942 
L 682.383283 42.838787 
L 685.052072 45.578554 
L 687.720861 48.65108 
L 690.38965 52.050591 
L 695.727228 59.433853 
L 703.733595 70.034481 
L 706.402384 73.338898 
L 709.071173 76.45964 
L 714.408751 82.09269 
L 717.07754 84.593871 
L 719.746329 86.853427 
L 725.083907 90.963623 
L 730.421485 94.751677 
L 738.427852 100.116307 
L 743.76543 103.637812 
L 749.103008 107.391156 
L 754.440587 111.520359 
L 757.109376 113.753278 
L 762.446954 118.624749 
L 767.784532 124.06275 
L 773.12211 129.872928 
L 781.128477 139.063573 
L 786.466055 145.055895 
L 791.803633 150.837486 
L 797.141211 156.200825 
L 802.478789 161.164197 
L 807.816367 165.82275 
L 815.822734 172.347484 
L 823.829102 178.829977 
L 829.16668 183.373688 
L 834.504258 188.143444 
L 839.841836 193.320603 
L 845.179414 198.865789 
L 850.516992 204.637417 
L 866.529726 222.36637 
L 871.867304 227.664863 
L 874.536093 230.076786 
L 877.204882 232.310271 
L 879.873671 234.308581 
L 882.54246 236.105437 
L 885.211249 237.686991 
L 887.880038 239.07666 
L 890.548827 240.258466 
L 895.886405 242.170608 
L 901.223984 243.622881 
L 911.89914 246.457556 
L 917.236718 248.255009 
L 919.905507 249.285809 
L 925.243085 251.679192 
L 933.249452 255.635818 
L 941.255819 259.573483 
L 959.937342 268.509141 
L 965.27492 271.529774 
L 970.612498 274.827159 
L 978.618866 280.244137 
L 983.956444 283.81479 
L 986.625233 285.504997 
L 989.294022 287.050233 
L 991.962811 288.435762 
L 994.6316 289.671676 
L 997.300389 290.712008 
L 999.969178 291.563857 
L 1002.637967 292.23258 
L 1005.306756 292.752831 
L 1007.975545 293.119284 
L 1013.313123 293.488699 
L 1021.31949 293.597125 
L 1029.325857 293.770596 
L 1034.663435 294.070051 
L 1040.001013 294.555672 
L 1045.338592 295.293558 
L 1050.67617 296.307524 
L 1056.013748 297.596882 
L 1061.351326 299.167692 
L 1066.688904 301.075157 
L 1072.026482 303.288462 
L 1080.032849 307.038872 
L 1093.376794 313.413665 
L 1098.714372 315.640492 
L 1104.05195 317.452609 
L 1109.389528 318.881964 
L 1114.727106 319.927712 
L 1120.064685 320.752163 
L 1130.739841 322.245403 
L 1138.746208 323.663532 
L 1154.758942 326.875739 
L 1160.09652 327.538931 
L 1162.765309 327.711929 
L 1162.765309 327.711929 
" style="fill:none;stroke:#2a2eec;stroke-linecap:round;stroke-width:1.5;"/>
   </g>
   <g id="line2d_28">
    <path clip-path="url(#p1ee5ae1774)" d="M 631.676291 361.197992 
L 631.676291 62.226455 
" style="fill:none;stroke:#2a2eec;stroke-linecap:round;stroke-width:1.5;"/>
   </g>
   <g id="line2d_29">
    <path clip-path="url(#p1ee5ae1774)" d="M 1162.765309 358.543137 
L 1162.765309 327.711929 
" style="fill:none;stroke:#2a2eec;stroke-linecap:round;stroke-width:1.5;"/>
   </g>
   <g id="line2d_30">
    <g clip-path="url(#p1ee5ae1774)">
     <use style="fill:#2a2eec;stroke:#000000;" x="832.26222" xlink:href="#m1d57ff9159" y="358.237878"/>
    </g>
   </g>
   <g id="patch_5">
    <path d="M 605.12184 377.390385 
L 1189.31976 377.390385 
" style="fill:none;"/>
   </g>
   <g id="text_13">
    <!-- tau -->
    <defs>
     <path d="M 18.3125 70.21875 
L 18.3125 54.6875 
L 36.8125 54.6875 
L 36.8125 47.703125 
L 18.3125 47.703125 
L 18.3125 18.015625 
Q 18.3125 11.328125 20.140625 9.421875 
Q 21.96875 7.515625 27.59375 7.515625 
L 36.8125 7.515625 
L 36.8125 0 
L 27.59375 0 
Q 17.1875 0 13.234375 3.875 
Q 9.28125 7.765625 9.28125 18.015625 
L 9.28125 47.703125 
L 2.6875 47.703125 
L 2.6875 54.6875 
L 9.28125 54.6875 
L 9.28125 70.21875 
z
" id="DejaVuSans-116"/>
     <path d="M 34.28125 27.484375 
Q 23.390625 27.484375 19.1875 25 
Q 14.984375 22.515625 14.984375 16.5 
Q 14.984375 11.71875 18.140625 8.90625 
Q 21.296875 6.109375 26.703125 6.109375 
Q 34.1875 6.109375 38.703125 11.40625 
Q 43.21875 16.703125 43.21875 25.484375 
L 43.21875 27.484375 
z
M 52.203125 31.203125 
L 52.203125 0 
L 43.21875 0 
L 43.21875 8.296875 
Q 40.140625 3.328125 35.546875 0.953125 
Q 30.953125 -1.421875 24.3125 -1.421875 
Q 15.921875 -1.421875 10.953125 3.296875 
Q 6 8.015625 6 15.921875 
Q 6 25.140625 12.171875 29.828125 
Q 18.359375 34.515625 30.609375 34.515625 
L 43.21875 34.515625 
L 43.21875 35.40625 
Q 43.21875 41.609375 39.140625 45 
Q 35.0625 48.390625 27.6875 48.390625 
Q 23 48.390625 18.546875 47.265625 
Q 14.109375 46.140625 10.015625 43.890625 
L 10.015625 52.203125 
Q 14.9375 54.109375 19.578125 55.046875 
Q 24.21875 56 28.609375 56 
Q 40.484375 56 46.34375 49.84375 
Q 52.203125 43.703125 52.203125 31.203125 
z
" id="DejaVuSans-97"/>
    </defs>
    <g style="fill:#262626;" transform="translate(884.11205 15.15774)scale(0.16 -0.16)">
     <use xlink:href="#DejaVuSans-116"/>
     <use x="39.208984" xlink:href="#DejaVuSans-97"/>
     <use x="100.488281" xlink:href="#DejaVuSans-117"/>
    </g>
   </g>
  </g>
 </g>
 <defs>
  <clipPath id="p07e7e47433">
   <rect height="356.232645" width="584.19792" x="3.00024" y="21.15774"/>
  </clipPath>
  <clipPath id="p1ee5ae1774">
   <rect height="356.232645" width="584.19792" x="605.12184" y="21.15774"/>
  </clipPath>
 </defs>
</svg>
