<?xml version="1.0" encoding="utf-8" standalone="no"?>
<!DOCTYPE svg PUBLIC "-//W3C//DTD SVG 1.1//EN"
  "http://www.w3.org/Graphics/SVG/1.1/DTD/svg11.dtd">
<!-- Created with matplotlib (https://matplotlib.org/) -->
<svg height="345.6pt" version="1.1" viewBox="0 0 518.4 345.6" width="518.4pt" xmlns="http://www.w3.org/2000/svg" xmlns:xlink="http://www.w3.org/1999/xlink">
 <defs>
  <style type="text/css">
*{stroke-linecap:butt;stroke-linejoin:round;}
  </style>
 </defs>
 <g id="figure_1">
  <g id="patch_1">
   <path d="M 0 345.6 
L 518.4 345.6 
L 518.4 0 
L 0 0 
z
" style="fill:#ffffff;"/>
  </g>
  <g id="axes_1">
   <g id="patch_2">
    <path d="M 3.00024 342.59976 
L 515.39976 342.59976 
L 515.39976 3.00024 
L 3.00024 3.00024 
z
" style="fill:#eeeeee;"/>
   </g>
   <g id="matplotlib.axis_1"/>
   <g id="matplotlib.axis_2"/>
   <g id="PolyCollection_1">
    <defs>
     <path d="M 26.291127 -18.436582 
L 26.291127 -20.01594 
L 28.63192 -20.01594 
L 30.972713 -20.057291 
L 33.313505 -20.146032 
L 35.654298 -20.277346 
L 37.995091 -20.45031 
L 40.335883 -20.660957 
L 42.676676 -20.919279 
L 45.017469 -21.206131 
L 47.358261 -21.531294 
L 49.699054 -21.894579 
L 52.039847 -22.310275 
L 54.38064 -22.759319 
L 56.721432 -23.25865 
L 59.062225 -23.832658 
L 61.403018 -24.457841 
L 63.74381 -25.151188 
L 66.084603 -25.929198 
L 68.425396 -26.802037 
L 70.766188 -27.777388 
L 73.106981 -28.859396 
L 75.447774 -30.05945 
L 77.788566 -31.392318 
L 80.129359 -32.86158 
L 82.470152 -34.48201 
L 84.810945 -36.243398 
L 87.151737 -38.142652 
L 89.49253 -40.184653 
L 91.833323 -42.353146 
L 94.174115 -44.6226 
L 96.514908 -46.96846 
L 98.855701 -49.376026 
L 101.196493 -51.835424 
L 103.537286 -54.284303 
L 105.878079 -56.704059 
L 108.218871 -59.07983 
L 110.559664 -61.38086 
L 112.900457 -63.604729 
L 115.24125 -65.742517 
L 117.582042 -67.804666 
L 119.922835 -69.773996 
L 122.263628 -71.718248 
L 124.60442 -73.627548 
L 126.945213 -75.548085 
L 129.286006 -77.477133 
L 131.626798 -79.452359 
L 133.967591 -81.49247 
L 136.308384 -83.619182 
L 138.649176 -85.849788 
L 140.989969 -88.168568 
L 143.330762 -90.578475 
L 145.671554 -93.064289 
L 148.012347 -95.655239 
L 150.35314 -98.306118 
L 152.693933 -101.003574 
L 155.034725 -103.756522 
L 157.375518 -106.550628 
L 159.716311 -109.344114 
L 162.057103 -112.111316 
L 164.397896 -114.920008 
L 166.738689 -117.687502 
L 169.079481 -120.409591 
L 171.420274 -123.083974 
L 173.761067 -125.692707 
L 176.101859 -128.220405 
L 178.442652 -130.673882 
L 180.783445 -133.029741 
L 183.124238 -135.281808 
L 185.46503 -137.434205 
L 187.805823 -139.472107 
L 190.146616 -141.399846 
L 192.487408 -143.213012 
L 194.828201 -144.911103 
L 197.168994 -146.512308 
L 199.509786 -147.985185 
L 201.850579 -149.333473 
L 204.191372 -150.551044 
L 206.532164 -151.682172 
L 208.872957 -152.700137 
L 211.21375 -153.615619 
L 213.554543 -154.431442 
L 215.895335 -155.168499 
L 218.236128 -155.802413 
L 220.576921 -156.354643 
L 222.917713 -156.864204 
L 225.258506 -157.267993 
L 227.599299 -157.633673 
L 229.940091 -157.937154 
L 232.280884 -158.223811 
L 234.621677 -158.466281 
L 236.962469 -158.673199 
L 239.303262 -158.86121 
L 241.644055 -159.013349 
L 243.984848 -159.18957 
L 246.32564 -159.359882 
L 248.666433 -159.556679 
L 251.007226 -159.728056 
L 253.348018 -159.904874 
L 255.688811 -160.082236 
L 258.029604 -160.218639 
L 260.370396 -160.312022 
L 262.711189 -160.349319 
L 265.051982 -160.290093 
L 267.392774 -160.073768 
L 269.733567 -159.767023 
L 272.07436 -159.297619 
L 274.415152 -158.640487 
L 276.755945 -157.81954 
L 279.096738 -156.844311 
L 281.437531 -155.70522 
L 283.778323 -154.437881 
L 286.119116 -153.030113 
L 288.459909 -151.504517 
L 290.800701 -149.886435 
L 293.141494 -148.192191 
L 295.482287 -146.39238 
L 297.823079 -144.499911 
L 300.163872 -142.518353 
L 302.504665 -140.465117 
L 304.845457 -138.305082 
L 307.18625 -136.040906 
L 309.527043 -133.671238 
L 311.867836 -131.193511 
L 314.208628 -128.60217 
L 316.549421 -125.923235 
L 318.890214 -123.155984 
L 321.231006 -120.339685 
L 323.571799 -117.468885 
L 325.912592 -114.547993 
L 328.253384 -111.623697 
L 330.594177 -108.683004 
L 332.93497 -105.759535 
L 335.275762 -102.847608 
L 337.616555 -99.991167 
L 339.957348 -97.181543 
L 342.298141 -94.401976 
L 344.638933 -91.690378 
L 346.979726 -89.02808 
L 349.320519 -86.430863 
L 351.661311 -83.887489 
L 354.002104 -81.417462 
L 356.342897 -79.004704 
L 358.683689 -76.635709 
L 361.024482 -74.312992 
L 363.365275 -72.046148 
L 365.706067 -69.809298 
L 368.04686 -67.611781 
L 370.387653 -65.439735 
L 372.728446 -63.276574 
L 375.069238 -61.150527 
L 377.410031 -59.065299 
L 379.750824 -56.994495 
L 382.091616 -54.94313 
L 384.432409 -52.917522 
L 386.773202 -50.916806 
L 389.113994 -48.979313 
L 391.454787 -47.077165 
L 393.79558 -45.229722 
L 396.136372 -43.425237 
L 398.477165 -41.698084 
L 400.817958 -40.044432 
L 403.15875 -38.450874 
L 405.499543 -36.92961 
L 407.840336 -35.491741 
L 410.181129 -34.129819 
L 412.521921 -32.843432 
L 414.862714 -31.649024 
L 417.203507 -30.538691 
L 419.544299 -29.500364 
L 421.885092 -28.528464 
L 424.225885 -27.630147 
L 426.566677 -26.79854 
L 428.90747 -26.033342 
L 431.248263 -25.325169 
L 433.589055 -24.672176 
L 435.929848 -24.069948 
L 438.270641 -23.521086 
L 440.611434 -23.008689 
L 442.952226 -22.551866 
L 445.293019 -22.146152 
L 447.633812 -21.779056 
L 449.974604 -21.446548 
L 452.315397 -21.161869 
L 454.65619 -20.910716 
L 456.996982 -20.700761 
L 459.337775 -20.520995 
L 461.678568 -20.37316 
L 464.01936 -20.25048 
L 466.360153 -20.144207 
L 468.700946 -20.066683 
L 471.041739 -20.002708 
L 473.382531 -19.953091 
L 475.723324 -19.909402 
L 478.064117 -19.876947 
L 480.404909 -19.847152 
L 482.745702 -19.826332 
L 485.086495 -19.809849 
L 487.427287 -19.798774 
L 489.76808 -19.792037 
L 492.108873 -19.785223 
L 492.108873 -18.436582 
L 492.108873 -18.436582 
L 489.76808 -18.436582 
L 487.427287 -18.436582 
L 485.086495 -18.436582 
L 482.745702 -18.436582 
L 480.404909 -18.436582 
L 478.064117 -18.436582 
L 475.723324 -18.436582 
L 473.382531 -18.436582 
L 471.041739 -18.436582 
L 468.700946 -18.436582 
L 466.360153 -18.436582 
L 464.01936 -18.436582 
L 461.678568 -18.436582 
L 459.337775 -18.436582 
L 456.996982 -18.436582 
L 454.65619 -18.436582 
L 452.315397 -18.436582 
L 449.974604 -18.436582 
L 447.633812 -18.436582 
L 445.293019 -18.436582 
L 442.952226 -18.436582 
L 440.611434 -18.436582 
L 438.270641 -18.436582 
L 435.929848 -18.436582 
L 433.589055 -18.436582 
L 431.248263 -18.436582 
L 428.90747 -18.436582 
L 426.566677 -18.436582 
L 424.225885 -18.436582 
L 421.885092 -18.436582 
L 419.544299 -18.436582 
L 417.203507 -18.436582 
L 414.862714 -18.436582 
L 412.521921 -18.436582 
L 410.181129 -18.436582 
L 407.840336 -18.436582 
L 405.499543 -18.436582 
L 403.15875 -18.436582 
L 400.817958 -18.436582 
L 398.477165 -18.436582 
L 396.136372 -18.436582 
L 393.79558 -18.436582 
L 391.454787 -18.436582 
L 389.113994 -18.436582 
L 386.773202 -18.436582 
L 384.432409 -18.436582 
L 382.091616 -18.436582 
L 379.750824 -18.436582 
L 377.410031 -18.436582 
L 375.069238 -18.436582 
L 372.728446 -18.436582 
L 370.387653 -18.436582 
L 368.04686 -18.436582 
L 365.706067 -18.436582 
L 363.365275 -18.436582 
L 361.024482 -18.436582 
L 358.683689 -18.436582 
L 356.342897 -18.436582 
L 354.002104 -18.436582 
L 351.661311 -18.436582 
L 349.320519 -18.436582 
L 346.979726 -18.436582 
L 344.638933 -18.436582 
L 342.298141 -18.436582 
L 339.957348 -18.436582 
L 337.616555 -18.436582 
L 335.275762 -18.436582 
L 332.93497 -18.436582 
L 330.594177 -18.436582 
L 328.253384 -18.436582 
L 325.912592 -18.436582 
L 323.571799 -18.436582 
L 321.231006 -18.436582 
L 318.890214 -18.436582 
L 316.549421 -18.436582 
L 314.208628 -18.436582 
L 311.867836 -18.436582 
L 309.527043 -18.436582 
L 307.18625 -18.436582 
L 304.845457 -18.436582 
L 302.504665 -18.436582 
L 300.163872 -18.436582 
L 297.823079 -18.436582 
L 295.482287 -18.436582 
L 293.141494 -18.436582 
L 290.800701 -18.436582 
L 288.459909 -18.436582 
L 286.119116 -18.436582 
L 283.778323 -18.436582 
L 281.437531 -18.436582 
L 279.096738 -18.436582 
L 276.755945 -18.436582 
L 274.415152 -18.436582 
L 272.07436 -18.436582 
L 269.733567 -18.436582 
L 267.392774 -18.436582 
L 265.051982 -18.436582 
L 262.711189 -18.436582 
L 260.370396 -18.436582 
L 258.029604 -18.436582 
L 255.688811 -18.436582 
L 253.348018 -18.436582 
L 251.007226 -18.436582 
L 248.666433 -18.436582 
L 246.32564 -18.436582 
L 243.984848 -18.436582 
L 241.644055 -18.436582 
L 239.303262 -18.436582 
L 236.962469 -18.436582 
L 234.621677 -18.436582 
L 232.280884 -18.436582 
L 229.940091 -18.436582 
L 227.599299 -18.436582 
L 225.258506 -18.436582 
L 222.917713 -18.436582 
L 220.576921 -18.436582 
L 218.236128 -18.436582 
L 215.895335 -18.436582 
L 213.554543 -18.436582 
L 211.21375 -18.436582 
L 208.872957 -18.436582 
L 206.532164 -18.436582 
L 204.191372 -18.436582 
L 201.850579 -18.436582 
L 199.509786 -18.436582 
L 197.168994 -18.436582 
L 194.828201 -18.436582 
L 192.487408 -18.436582 
L 190.146616 -18.436582 
L 187.805823 -18.436582 
L 185.46503 -18.436582 
L 183.124238 -18.436582 
L 180.783445 -18.436582 
L 178.442652 -18.436582 
L 176.101859 -18.436582 
L 173.761067 -18.436582 
L 171.420274 -18.436582 
L 169.079481 -18.436582 
L 166.738689 -18.436582 
L 164.397896 -18.436582 
L 162.057103 -18.436582 
L 159.716311 -18.436582 
L 157.375518 -18.436582 
L 155.034725 -18.436582 
L 152.693933 -18.436582 
L 150.35314 -18.436582 
L 148.012347 -18.436582 
L 145.671554 -18.436582 
L 143.330762 -18.436582 
L 140.989969 -18.436582 
L 138.649176 -18.436582 
L 136.308384 -18.436582 
L 133.967591 -18.436582 
L 131.626798 -18.436582 
L 129.286006 -18.436582 
L 126.945213 -18.436582 
L 124.60442 -18.436582 
L 122.263628 -18.436582 
L 119.922835 -18.436582 
L 117.582042 -18.436582 
L 115.24125 -18.436582 
L 112.900457 -18.436582 
L 110.559664 -18.436582 
L 108.218871 -18.436582 
L 105.878079 -18.436582 
L 103.537286 -18.436582 
L 101.196493 -18.436582 
L 98.855701 -18.436582 
L 96.514908 -18.436582 
L 94.174115 -18.436582 
L 91.833323 -18.436582 
L 89.49253 -18.436582 
L 87.151737 -18.436582 
L 84.810945 -18.436582 
L 82.470152 -18.436582 
L 80.129359 -18.436582 
L 77.788566 -18.436582 
L 75.447774 -18.436582 
L 73.106981 -18.436582 
L 70.766188 -18.436582 
L 68.425396 -18.436582 
L 66.084603 -18.436582 
L 63.74381 -18.436582 
L 61.403018 -18.436582 
L 59.062225 -18.436582 
L 56.721432 -18.436582 
L 54.38064 -18.436582 
L 52.039847 -18.436582 
L 49.699054 -18.436582 
L 47.358261 -18.436582 
L 45.017469 -18.436582 
L 42.676676 -18.436582 
L 40.335883 -18.436582 
L 37.995091 -18.436582 
L 35.654298 -18.436582 
L 33.313505 -18.436582 
L 30.972713 -18.436582 
L 28.63192 -18.436582 
L 26.291127 -18.436582 
z
" id="m1f56d3357e" style="stroke:#2a2eec;"/>
    </defs>
    <g clip-path="url(#pa5b078e15c)">
     <use style="fill:#2a2eec;stroke:#2a2eec;" x="0" xlink:href="#m1f56d3357e" y="345.6"/>
    </g>
   </g>
   <g id="PolyCollection_2">
    <defs>
     <path d="M 53.036419 -18.436582 
L 53.036419 -18.687712 
L 54.839892 -18.687712 
L 56.643364 -18.688394 
L 58.446836 -18.685771 
L 60.250308 -18.680772 
L 62.05378 -18.680744 
L 63.857252 -18.68115 
L 65.660724 -18.685227 
L 67.464196 -18.694586 
L 69.267668 -18.713068 
L 71.071141 -18.738168 
L 72.874613 -18.772241 
L 74.678085 -18.815562 
L 76.481557 -18.87268 
L 78.285029 -18.937911 
L 80.088501 -19.011992 
L 81.891973 -19.091326 
L 83.695445 -19.180547 
L 85.498918 -19.272894 
L 87.30239 -19.368552 
L 89.105862 -19.463979 
L 90.909334 -19.569333 
L 92.712806 -19.676746 
L 94.516278 -19.782731 
L 96.31975 -19.893134 
L 98.123222 -20.016013 
L 99.926694 -20.144822 
L 101.730167 -20.290106 
L 103.533639 -20.454351 
L 105.337111 -20.632147 
L 107.140583 -20.837484 
L 108.944055 -21.077749 
L 110.747527 -21.335518 
L 112.550999 -21.630887 
L 114.354471 -21.954564 
L 116.157943 -22.310565 
L 117.961416 -22.697058 
L 119.764888 -23.137427 
L 121.56836 -23.608691 
L 123.371832 -24.133037 
L 125.175304 -24.699954 
L 126.978776 -25.32346 
L 128.782248 -26.009568 
L 130.58572 -26.768628 
L 132.389192 -27.590678 
L 134.192665 -28.500078 
L 135.996137 -29.522373 
L 137.799609 -30.636281 
L 139.603081 -31.884243 
L 141.406553 -33.254956 
L 143.210025 -34.769777 
L 145.013497 -36.423091 
L 146.816969 -38.233118 
L 148.620442 -40.186665 
L 150.423914 -42.327658 
L 152.227386 -44.633316 
L 154.030858 -47.095058 
L 155.83433 -49.742535 
L 157.637802 -52.530793 
L 159.441274 -55.473671 
L 161.244746 -58.582445 
L 163.048218 -61.847535 
L 164.851691 -65.24527 
L 166.655163 -68.780975 
L 168.458635 -72.410742 
L 170.262107 -76.162266 
L 172.065579 -79.998592 
L 173.869051 -83.935814 
L 175.672523 -88.031758 
L 177.475995 -92.234517 
L 179.279467 -96.568501 
L 181.08294 -101.068993 
L 182.886412 -105.756397 
L 184.689884 -110.677254 
L 186.493356 -115.849859 
L 188.296828 -121.310359 
L 190.1003 -127.061071 
L 191.903772 -133.129232 
L 193.707244 -139.526653 
L 195.510716 -146.264743 
L 197.314189 -153.351748 
L 199.117661 -160.731359 
L 200.921133 -168.436002 
L 202.724605 -176.423252 
L 204.528077 -184.646163 
L 206.331549 -193.060003 
L 208.135021 -201.642657 
L 209.938493 -210.332369 
L 211.741965 -219.108075 
L 213.545438 -227.850728 
L 215.34891 -236.532314 
L 217.152382 -245.124585 
L 218.955854 -253.521316 
L 220.759326 -261.717149 
L 222.562798 -269.658442 
L 224.36627 -277.255899 
L 226.169742 -284.497671 
L 227.973215 -291.358513 
L 229.776687 -297.732727 
L 231.580159 -303.594707 
L 233.383631 -308.925973 
L 235.187103 -313.656808 
L 236.990575 -317.771023 
L 238.794047 -321.174371 
L 240.597519 -323.873685 
L 242.400991 -325.776741 
L 244.204464 -326.888248 
L 246.007936 -327.163418 
L 247.811408 -326.673377 
L 249.61488 -325.318258 
L 251.418352 -323.181611 
L 253.221824 -320.242869 
L 255.025296 -316.507446 
L 256.828768 -312.076645 
L 258.63224 -306.981681 
L 260.435713 -301.28741 
L 262.239185 -295.025715 
L 264.042657 -288.263899 
L 265.846129 -281.052644 
L 267.649601 -273.453459 
L 269.453073 -265.570732 
L 271.256545 -257.431179 
L 273.060017 -249.078696 
L 274.863489 -240.589154 
L 276.666962 -232.003071 
L 278.470434 -223.403916 
L 280.273906 -214.808935 
L 282.077378 -206.263376 
L 283.88085 -197.840929 
L 285.684322 -189.538937 
L 287.487794 -181.384552 
L 289.291266 -173.387978 
L 291.094738 -165.561194 
L 292.898211 -157.937509 
L 294.701683 -150.479368 
L 296.505155 -143.203378 
L 298.308627 -136.114464 
L 300.112099 -129.198212 
L 301.915571 -122.465682 
L 303.719043 -115.961652 
L 305.522515 -109.651792 
L 307.325988 -103.563439 
L 309.12946 -97.74374 
L 310.932932 -92.201625 
L 312.736404 -86.920943 
L 314.539876 -81.924458 
L 316.343348 -77.238408 
L 318.14682 -72.875639 
L 319.950292 -68.787025 
L 321.753764 -65.040575 
L 323.557237 -61.587821 
L 325.360709 -58.420599 
L 327.164181 -55.488622 
L 328.967653 -52.82738 
L 330.771125 -50.382482 
L 332.574597 -48.145124 
L 334.378069 -46.088516 
L 336.181541 -44.194874 
L 337.985013 -42.447051 
L 339.788486 -40.791732 
L 341.591958 -39.259681 
L 343.39543 -37.818459 
L 345.198902 -36.472663 
L 347.002374 -35.208845 
L 348.805846 -34.015681 
L 350.609318 -32.889879 
L 352.41279 -31.854812 
L 354.216262 -30.878912 
L 356.019735 -29.973277 
L 357.823207 -29.131764 
L 359.626679 -28.353768 
L 361.430151 -27.633536 
L 363.233623 -26.955598 
L 365.037095 -26.329704 
L 366.840567 -25.730958 
L 368.644039 -25.180518 
L 370.447512 -24.648134 
L 372.250984 -24.145734 
L 374.054456 -23.670295 
L 375.857928 -23.214398 
L 377.6614 -22.785541 
L 379.464872 -22.38012 
L 381.268344 -22.005683 
L 383.071816 -21.665136 
L 384.875288 -21.353181 
L 386.678761 -21.073871 
L 388.482233 -20.832291 
L 390.285705 -20.634619 
L 392.089177 -20.480858 
L 393.892649 -20.361817 
L 395.696121 -20.280121 
L 397.499593 -20.2286 
L 399.303065 -20.204253 
L 401.106537 -20.200948 
L 402.91001 -20.219667 
L 404.713482 -20.246948 
L 406.516954 -20.272651 
L 408.320426 -20.299595 
L 410.123898 -20.320439 
L 411.92737 -20.341597 
L 411.92737 -18.436582 
L 411.92737 -18.436582 
L 410.123898 -18.436582 
L 408.320426 -18.436582 
L 406.516954 -18.436582 
L 404.713482 -18.436582 
L 402.91001 -18.436582 
L 401.106537 -18.436582 
L 399.303065 -18.436582 
L 397.499593 -18.436582 
L 395.696121 -18.436582 
L 393.892649 -18.436582 
L 392.089177 -18.436582 
L 390.285705 -18.436582 
L 388.482233 -18.436582 
L 386.678761 -18.436582 
L 384.875288 -18.436582 
L 383.071816 -18.436582 
L 381.268344 -18.436582 
L 379.464872 -18.436582 
L 377.6614 -18.436582 
L 375.857928 -18.436582 
L 374.054456 -18.436582 
L 372.250984 -18.436582 
L 370.447512 -18.436582 
L 368.644039 -18.436582 
L 366.840567 -18.436582 
L 365.037095 -18.436582 
L 363.233623 -18.436582 
L 361.430151 -18.436582 
L 359.626679 -18.436582 
L 357.823207 -18.436582 
L 356.019735 -18.436582 
L 354.216262 -18.436582 
L 352.41279 -18.436582 
L 350.609318 -18.436582 
L 348.805846 -18.436582 
L 347.002374 -18.436582 
L 345.198902 -18.436582 
L 343.39543 -18.436582 
L 341.591958 -18.436582 
L 339.788486 -18.436582 
L 337.985013 -18.436582 
L 336.181541 -18.436582 
L 334.378069 -18.436582 
L 332.574597 -18.436582 
L 330.771125 -18.436582 
L 328.967653 -18.436582 
L 327.164181 -18.436582 
L 325.360709 -18.436582 
L 323.557237 -18.436582 
L 321.753764 -18.436582 
L 319.950292 -18.436582 
L 318.14682 -18.436582 
L 316.343348 -18.436582 
L 314.539876 -18.436582 
L 312.736404 -18.436582 
L 310.932932 -18.436582 
L 309.12946 -18.436582 
L 307.325988 -18.436582 
L 305.522515 -18.436582 
L 303.719043 -18.436582 
L 301.915571 -18.436582 
L 300.112099 -18.436582 
L 298.308627 -18.436582 
L 296.505155 -18.436582 
L 294.701683 -18.436582 
L 292.898211 -18.436582 
L 291.094738 -18.436582 
L 289.291266 -18.436582 
L 287.487794 -18.436582 
L 285.684322 -18.436582 
L 283.88085 -18.436582 
L 282.077378 -18.436582 
L 280.273906 -18.436582 
L 278.470434 -18.436582 
L 276.666962 -18.436582 
L 274.863489 -18.436582 
L 273.060017 -18.436582 
L 271.256545 -18.436582 
L 269.453073 -18.436582 
L 267.649601 -18.436582 
L 265.846129 -18.436582 
L 264.042657 -18.436582 
L 262.239185 -18.436582 
L 260.435713 -18.436582 
L 258.63224 -18.436582 
L 256.828768 -18.436582 
L 255.025296 -18.436582 
L 253.221824 -18.436582 
L 251.418352 -18.436582 
L 249.61488 -18.436582 
L 247.811408 -18.436582 
L 246.007936 -18.436582 
L 244.204464 -18.436582 
L 242.400991 -18.436582 
L 240.597519 -18.436582 
L 238.794047 -18.436582 
L 236.990575 -18.436582 
L 235.187103 -18.436582 
L 233.383631 -18.436582 
L 231.580159 -18.436582 
L 229.776687 -18.436582 
L 227.973215 -18.436582 
L 226.169742 -18.436582 
L 224.36627 -18.436582 
L 222.562798 -18.436582 
L 220.759326 -18.436582 
L 218.955854 -18.436582 
L 217.152382 -18.436582 
L 215.34891 -18.436582 
L 213.545438 -18.436582 
L 211.741965 -18.436582 
L 209.938493 -18.436582 
L 208.135021 -18.436582 
L 206.331549 -18.436582 
L 204.528077 -18.436582 
L 202.724605 -18.436582 
L 200.921133 -18.436582 
L 199.117661 -18.436582 
L 197.314189 -18.436582 
L 195.510716 -18.436582 
L 193.707244 -18.436582 
L 191.903772 -18.436582 
L 190.1003 -18.436582 
L 188.296828 -18.436582 
L 186.493356 -18.436582 
L 184.689884 -18.436582 
L 182.886412 -18.436582 
L 181.08294 -18.436582 
L 179.279467 -18.436582 
L 177.475995 -18.436582 
L 175.672523 -18.436582 
L 173.869051 -18.436582 
L 172.065579 -18.436582 
L 170.262107 -18.436582 
L 168.458635 -18.436582 
L 166.655163 -18.436582 
L 164.851691 -18.436582 
L 163.048218 -18.436582 
L 161.244746 -18.436582 
L 159.441274 -18.436582 
L 157.637802 -18.436582 
L 155.83433 -18.436582 
L 154.030858 -18.436582 
L 152.227386 -18.436582 
L 150.423914 -18.436582 
L 148.620442 -18.436582 
L 146.816969 -18.436582 
L 145.013497 -18.436582 
L 143.210025 -18.436582 
L 141.406553 -18.436582 
L 139.603081 -18.436582 
L 137.799609 -18.436582 
L 135.996137 -18.436582 
L 134.192665 -18.436582 
L 132.389192 -18.436582 
L 130.58572 -18.436582 
L 128.782248 -18.436582 
L 126.978776 -18.436582 
L 125.175304 -18.436582 
L 123.371832 -18.436582 
L 121.56836 -18.436582 
L 119.764888 -18.436582 
L 117.961416 -18.436582 
L 116.157943 -18.436582 
L 114.354471 -18.436582 
L 112.550999 -18.436582 
L 110.747527 -18.436582 
L 108.944055 -18.436582 
L 107.140583 -18.436582 
L 105.337111 -18.436582 
L 103.533639 -18.436582 
L 101.730167 -18.436582 
L 99.926694 -18.436582 
L 98.123222 -18.436582 
L 96.31975 -18.436582 
L 94.516278 -18.436582 
L 92.712806 -18.436582 
L 90.909334 -18.436582 
L 89.105862 -18.436582 
L 87.30239 -18.436582 
L 85.498918 -18.436582 
L 83.695445 -18.436582 
L 81.891973 -18.436582 
L 80.088501 -18.436582 
L 78.285029 -18.436582 
L 76.481557 -18.436582 
L 74.678085 -18.436582 
L 72.874613 -18.436582 
L 71.071141 -18.436582 
L 69.267668 -18.436582 
L 67.464196 -18.436582 
L 65.660724 -18.436582 
L 63.857252 -18.436582 
L 62.05378 -18.436582 
L 60.250308 -18.436582 
L 58.446836 -18.436582 
L 56.643364 -18.436582 
L 54.839892 -18.436582 
L 53.036419 -18.436582 
z
" id="m41aea5fd42" style="stroke:#65e5f3;stroke-opacity:0.75;"/>
    </defs>
    <g clip-path="url(#pa5b078e15c)">
     <use style="fill:#65e5f3;fill-opacity:0.75;stroke:#65e5f3;stroke-opacity:0.75;" x="0" xlink:href="#m41aea5fd42" y="345.6"/>
    </g>
   </g>
   <g id="line2d_1">
    <path clip-path="url(#pa5b078e15c)" d="M 26.291127 325.58406 
L 30.972713 325.542709 
L 35.654298 325.322654 
L 40.335883 324.939043 
L 47.358261 324.068706 
L 52.039847 323.289725 
L 56.721432 322.34135 
L 61.403018 321.142159 
L 66.084603 319.670802 
L 70.766188 317.822612 
L 75.447774 315.54055 
L 77.788566 314.207682 
L 80.129359 312.73842 
L 82.470152 311.11799 
L 87.151737 307.457348 
L 91.833323 303.246854 
L 96.514908 298.63154 
L 110.559664 284.21914 
L 115.24125 279.857483 
L 119.922835 275.826004 
L 133.967591 264.10753 
L 138.649176 259.750212 
L 143.330762 255.021525 
L 148.012347 249.944761 
L 155.034725 241.843478 
L 169.079481 225.190409 
L 173.761067 219.907293 
L 178.442652 214.926118 
L 183.124238 210.318192 
L 187.805823 206.127893 
L 192.487408 202.386988 
L 197.168994 199.087692 
L 201.850579 196.266527 
L 206.532164 193.917828 
L 211.21375 191.984381 
L 215.895335 190.431501 
L 220.576921 189.245357 
L 225.258506 188.332007 
L 229.940091 187.662846 
L 234.621677 187.133719 
L 243.984848 186.41043 
L 260.370396 185.287978 
L 265.051982 185.309907 
L 269.733567 185.832977 
L 272.07436 186.302381 
L 274.415152 186.959513 
L 276.755945 187.78046 
L 279.096738 188.755689 
L 281.437531 189.89478 
L 283.778323 191.162119 
L 288.459909 194.095483 
L 293.141494 197.407809 
L 297.823079 201.100089 
L 302.504665 205.134883 
L 307.18625 209.559094 
L 311.867836 214.406489 
L 316.549421 219.676765 
L 323.571799 228.131115 
L 339.957348 248.418457 
L 344.638933 253.909622 
L 349.320519 259.169137 
L 354.002104 264.182538 
L 361.024482 271.287008 
L 368.04686 277.988219 
L 377.410031 286.534701 
L 386.773202 294.683194 
L 393.79558 300.370278 
L 398.477165 303.901916 
L 403.15875 307.149126 
L 407.840336 310.108259 
L 412.521921 312.756568 
L 417.203507 315.061309 
L 421.885092 317.071536 
L 426.566677 318.80146 
L 431.248263 320.274831 
L 435.929848 321.530052 
L 440.611434 322.591311 
L 445.293019 323.453848 
L 449.974604 324.153452 
L 456.996982 324.899239 
L 464.01936 325.34952 
L 471.041739 325.597292 
L 485.086495 325.790151 
L 492.108873 325.814777 
L 492.108873 325.814777 
" style="fill:none;stroke:#2a2eec;stroke-linecap:round;stroke-opacity:0;stroke-width:1.5;"/>
   </g>
   <g id="line2d_2">
    <path clip-path="url(#pa5b078e15c)" d="M 53.036419 326.912288 
L 72.874613 326.827759 
L 81.891973 326.508674 
L 96.31975 325.706866 
L 103.533639 325.145649 
L 108.944055 324.522251 
L 114.354471 323.645436 
L 117.961416 322.902942 
L 121.56836 321.991309 
L 125.175304 320.900046 
L 128.782248 319.590432 
L 132.389192 318.009322 
L 135.996137 316.077627 
L 137.799609 314.963719 
L 141.406553 312.345044 
L 145.013497 309.176909 
L 148.620442 305.413335 
L 152.227386 300.966684 
L 155.83433 295.857465 
L 159.441274 290.126329 
L 163.048218 283.752465 
L 166.655163 276.819025 
L 170.262107 269.437734 
L 173.869051 261.664186 
L 177.475995 253.365483 
L 181.08294 244.531007 
L 184.689884 234.922746 
L 188.296828 224.289641 
L 191.903772 212.470768 
L 195.510716 199.335257 
L 199.117661 184.868641 
L 202.724605 169.176748 
L 206.331549 152.539997 
L 213.545438 117.749272 
L 218.955854 92.078684 
L 222.562798 75.941558 
L 226.169742 61.102329 
L 227.973215 54.241487 
L 229.776687 47.867273 
L 231.580159 42.005293 
L 233.383631 36.674027 
L 235.187103 31.943192 
L 236.990575 27.828977 
L 238.794047 24.425629 
L 240.597519 21.726315 
L 242.400991 19.823259 
L 244.204464 18.711752 
L 246.007936 18.436582 
L 247.811408 18.926623 
L 249.61488 20.281742 
L 251.418352 22.418389 
L 253.221824 25.357131 
L 255.025296 29.092554 
L 256.828768 33.523355 
L 258.63224 38.618319 
L 260.435713 44.31259 
L 262.239185 50.574285 
L 264.042657 57.336101 
L 267.649601 72.146541 
L 271.256545 88.168821 
L 276.666962 113.596929 
L 285.684322 156.061063 
L 291.094738 180.038806 
L 294.701683 195.120632 
L 298.308627 209.485536 
L 301.915571 223.134318 
L 305.522515 235.948208 
L 309.12946 247.85626 
L 312.736404 258.679057 
L 316.343348 268.361592 
L 319.950292 276.812975 
L 321.753764 280.559425 
L 323.557237 284.012179 
L 325.360709 287.179401 
L 327.164181 290.111378 
L 328.967653 292.77262 
L 330.771125 295.217518 
L 332.574597 297.454876 
L 336.181541 301.405126 
L 339.788486 304.808268 
L 343.39543 307.781541 
L 347.002374 310.391155 
L 350.609318 312.710121 
L 354.216262 314.721088 
L 357.823207 316.468236 
L 361.430151 317.966464 
L 365.037095 319.270296 
L 370.447512 320.951866 
L 375.857928 322.385602 
L 381.268344 323.594317 
L 386.678761 324.526129 
L 390.285705 324.965381 
L 395.696121 325.319879 
L 401.106537 325.399052 
L 411.92737 325.258403 
L 411.92737 325.258403 
" style="fill:none;stroke:#2a2eec;stroke-linecap:round;stroke-opacity:0;stroke-width:1.5;"/>
   </g>
   <g id="line2d_3"/>
   <g id="line2d_4"/>
   <g id="line2d_5"/>
   <g id="line2d_6"/>
   <g id="patch_3">
    <path d="M 3.00024 342.59976 
L 3.00024 3.00024 
" style="fill:none;"/>
   </g>
   <g id="patch_4">
    <path d="M 515.39976 342.59976 
L 515.39976 3.00024 
" style="fill:none;"/>
   </g>
   <g id="patch_5">
    <path d="M 3.00024 342.59976 
L 515.39976 342.59976 
" style="fill:none;"/>
   </g>
   <g id="patch_6">
    <path d="M 3.00024 3.00024 
L 515.39976 3.00024 
" style="fill:none;"/>
   </g>
   <g id="legend_1">
    <g id="line2d_7">
     <path d="M 317.76351 21.338053 
L 345.76351 21.338053 
" style="fill:none;stroke:#2a2eec;stroke-linecap:round;stroke-opacity:0;stroke-width:1.5;"/>
    </g>
    <g id="line2d_8"/>
    <g id="text_1">
     <!-- chain  0 BFMI = 0.29 -->
     <defs>
      <path d="M 48.78125 52.59375 
L 48.78125 44.1875 
Q 44.96875 46.296875 41.140625 47.34375 
Q 37.3125 48.390625 33.40625 48.390625 
Q 24.65625 48.390625 19.8125 42.84375 
Q 14.984375 37.3125 14.984375 27.296875 
Q 14.984375 17.28125 19.8125 11.734375 
Q 24.65625 6.203125 33.40625 6.203125 
Q 37.3125 6.203125 41.140625 7.25 
Q 44.96875 8.296875 48.78125 10.40625 
L 48.78125 2.09375 
Q 45.015625 0.34375 40.984375 -0.53125 
Q 36.96875 -1.421875 32.421875 -1.421875 
Q 20.0625 -1.421875 12.78125 6.34375 
Q 5.515625 14.109375 5.515625 27.296875 
Q 5.515625 40.671875 12.859375 48.328125 
Q 20.21875 56 33.015625 56 
Q 37.15625 56 41.109375 55.140625 
Q 45.0625 54.296875 48.78125 52.59375 
z
" id="DejaVuSans-99"/>
      <path d="M 54.890625 33.015625 
L 54.890625 0 
L 45.90625 0 
L 45.90625 32.71875 
Q 45.90625 40.484375 42.875 44.328125 
Q 39.84375 48.1875 33.796875 48.1875 
Q 26.515625 48.1875 22.3125 43.546875 
Q 18.109375 38.921875 18.109375 30.90625 
L 18.109375 0 
L 9.078125 0 
L 9.078125 75.984375 
L 18.109375 75.984375 
L 18.109375 46.1875 
Q 21.34375 51.125 25.703125 53.5625 
Q 30.078125 56 35.796875 56 
Q 45.21875 56 50.046875 50.171875 
Q 54.890625 44.34375 54.890625 33.015625 
z
" id="DejaVuSans-104"/>
      <path d="M 34.28125 27.484375 
Q 23.390625 27.484375 19.1875 25 
Q 14.984375 22.515625 14.984375 16.5 
Q 14.984375 11.71875 18.140625 8.90625 
Q 21.296875 6.109375 26.703125 6.109375 
Q 34.1875 6.109375 38.703125 11.40625 
Q 43.21875 16.703125 43.21875 25.484375 
L 43.21875 27.484375 
z
M 52.203125 31.203125 
L 52.203125 0 
L 43.21875 0 
L 43.21875 8.296875 
Q 40.140625 3.328125 35.546875 0.953125 
Q 30.953125 -1.421875 24.3125 -1.421875 
Q 15.921875 -1.421875 10.953125 3.296875 
Q 6 8.015625 6 15.921875 
Q 6 25.140625 12.171875 29.828125 
Q 18.359375 34.515625 30.609375 34.515625 
L 43.21875 34.515625 
L 43.21875 35.40625 
Q 43.21875 41.609375 39.140625 45 
Q 35.0625 48.390625 27.6875 48.390625 
Q 23 48.390625 18.546875 47.265625 
Q 14.109375 46.140625 10.015625 43.890625 
L 10.015625 52.203125 
Q 14.9375 54.109375 19.578125 55.046875 
Q 24.21875 56 28.609375 56 
Q 40.484375 56 46.34375 49.84375 
Q 52.203125 43.703125 52.203125 31.203125 
z
" id="DejaVuSans-97"/>
      <path d="M 9.421875 54.6875 
L 18.40625 54.6875 
L 18.40625 0 
L 9.421875 0 
z
M 9.421875 75.984375 
L 18.40625 75.984375 
L 18.40625 64.59375 
L 9.421875 64.59375 
z
" id="DejaVuSans-105"/>
      <path d="M 54.890625 33.015625 
L 54.890625 0 
L 45.90625 0 
L 45.90625 32.71875 
Q 45.90625 40.484375 42.875 44.328125 
Q 39.84375 48.1875 33.796875 48.1875 
Q 26.515625 48.1875 22.3125 43.546875 
Q 18.109375 38.921875 18.109375 30.90625 
L 18.109375 0 
L 9.078125 0 
L 9.078125 54.6875 
L 18.109375 54.6875 
L 18.109375 46.1875 
Q 21.34375 51.125 25.703125 53.5625 
Q 30.078125 56 35.796875 56 
Q 45.21875 56 50.046875 50.171875 
Q 54.890625 44.34375 54.890625 33.015625 
z
" id="DejaVuSans-110"/>
      <path id="DejaVuSans-32"/>
      <path d="M 31.78125 66.40625 
Q 24.171875 66.40625 20.328125 58.90625 
Q 16.5 51.421875 16.5 36.375 
Q 16.5 21.390625 20.328125 13.890625 
Q 24.171875 6.390625 31.78125 6.390625 
Q 39.453125 6.390625 43.28125 13.890625 
Q 47.125 21.390625 47.125 36.375 
Q 47.125 51.421875 43.28125 58.90625 
Q 39.453125 66.40625 31.78125 66.40625 
z
M 31.78125 74.21875 
Q 44.046875 74.21875 50.515625 64.515625 
Q 56.984375 54.828125 56.984375 36.375 
Q 56.984375 17.96875 50.515625 8.265625 
Q 44.046875 -1.421875 31.78125 -1.421875 
Q 19.53125 -1.421875 13.0625 8.265625 
Q 6.59375 17.96875 6.59375 36.375 
Q 6.59375 54.828125 13.0625 64.515625 
Q 19.53125 74.21875 31.78125 74.21875 
z
" id="DejaVuSans-48"/>
      <path d="M 19.671875 34.8125 
L 19.671875 8.109375 
L 35.5 8.109375 
Q 43.453125 8.109375 47.28125 11.40625 
Q 51.125 14.703125 51.125 21.484375 
Q 51.125 28.328125 47.28125 31.5625 
Q 43.453125 34.8125 35.5 34.8125 
z
M 19.671875 64.796875 
L 19.671875 42.828125 
L 34.28125 42.828125 
Q 41.5 42.828125 45.03125 45.53125 
Q 48.578125 48.25 48.578125 53.8125 
Q 48.578125 59.328125 45.03125 62.0625 
Q 41.5 64.796875 34.28125 64.796875 
z
M 9.8125 72.90625 
L 35.015625 72.90625 
Q 46.296875 72.90625 52.390625 68.21875 
Q 58.5 63.53125 58.5 54.890625 
Q 58.5 48.1875 55.375 44.234375 
Q 52.25 40.28125 46.1875 39.3125 
Q 53.46875 37.75 57.5 32.78125 
Q 61.53125 27.828125 61.53125 20.40625 
Q 61.53125 10.640625 54.890625 5.3125 
Q 48.25 0 35.984375 0 
L 9.8125 0 
z
" id="DejaVuSans-66"/>
      <path d="M 9.8125 72.90625 
L 51.703125 72.90625 
L 51.703125 64.59375 
L 19.671875 64.59375 
L 19.671875 43.109375 
L 48.578125 43.109375 
L 48.578125 34.8125 
L 19.671875 34.8125 
L 19.671875 0 
L 9.8125 0 
z
" id="DejaVuSans-70"/>
      <path d="M 9.8125 72.90625 
L 24.515625 72.90625 
L 43.109375 23.296875 
L 61.8125 72.90625 
L 76.515625 72.90625 
L 76.515625 0 
L 66.890625 0 
L 66.890625 64.015625 
L 48.09375 14.015625 
L 38.1875 14.015625 
L 19.390625 64.015625 
L 19.390625 0 
L 9.8125 0 
z
" id="DejaVuSans-77"/>
      <path d="M 9.8125 72.90625 
L 19.671875 72.90625 
L 19.671875 0 
L 9.8125 0 
z
" id="DejaVuSans-73"/>
      <path d="M 10.59375 45.40625 
L 73.1875 45.40625 
L 73.1875 37.203125 
L 10.59375 37.203125 
z
M 10.59375 25.484375 
L 73.1875 25.484375 
L 73.1875 17.1875 
L 10.59375 17.1875 
z
" id="DejaVuSans-61"/>
      <path d="M 10.6875 12.40625 
L 21 12.40625 
L 21 0 
L 10.6875 0 
z
" id="DejaVuSans-46"/>
      <path d="M 19.1875 8.296875 
L 53.609375 8.296875 
L 53.609375 0 
L 7.328125 0 
L 7.328125 8.296875 
Q 12.9375 14.109375 22.625 23.890625 
Q 32.328125 33.6875 34.8125 36.53125 
Q 39.546875 41.84375 41.421875 45.53125 
Q 43.3125 49.21875 43.3125 52.78125 
Q 43.3125 58.59375 39.234375 62.25 
Q 35.15625 65.921875 28.609375 65.921875 
Q 23.96875 65.921875 18.8125 64.3125 
Q 13.671875 62.703125 7.8125 59.421875 
L 7.8125 69.390625 
Q 13.765625 71.78125 18.9375 73 
Q 24.125 74.21875 28.421875 74.21875 
Q 39.75 74.21875 46.484375 68.546875 
Q 53.21875 62.890625 53.21875 53.421875 
Q 53.21875 48.921875 51.53125 44.890625 
Q 49.859375 40.875 45.40625 35.40625 
Q 44.1875 33.984375 37.640625 27.21875 
Q 31.109375 20.453125 19.1875 8.296875 
z
" id="DejaVuSans-50"/>
      <path d="M 10.984375 1.515625 
L 10.984375 10.5 
Q 14.703125 8.734375 18.5 7.8125 
Q 22.3125 6.890625 25.984375 6.890625 
Q 35.75 6.890625 40.890625 13.453125 
Q 46.046875 20.015625 46.78125 33.40625 
Q 43.953125 29.203125 39.59375 26.953125 
Q 35.25 24.703125 29.984375 24.703125 
Q 19.046875 24.703125 12.671875 31.3125 
Q 6.296875 37.9375 6.296875 49.421875 
Q 6.296875 60.640625 12.9375 67.421875 
Q 19.578125 74.21875 30.609375 74.21875 
Q 43.265625 74.21875 49.921875 64.515625 
Q 56.59375 54.828125 56.59375 36.375 
Q 56.59375 19.140625 48.40625 8.859375 
Q 40.234375 -1.421875 26.421875 -1.421875 
Q 22.703125 -1.421875 18.890625 -0.6875 
Q 15.09375 0.046875 10.984375 1.515625 
z
M 30.609375 32.421875 
Q 37.25 32.421875 41.125 36.953125 
Q 45.015625 41.5 45.015625 49.421875 
Q 45.015625 57.28125 41.125 61.84375 
Q 37.25 66.40625 30.609375 66.40625 
Q 23.96875 66.40625 20.09375 61.84375 
Q 16.21875 57.28125 16.21875 49.421875 
Q 16.21875 41.5 20.09375 36.953125 
Q 23.96875 32.421875 30.609375 32.421875 
z
" id="DejaVuSans-57"/>
     </defs>
     <g style="fill:#262626;" transform="translate(356.96351 26.238053)scale(0.14 -0.14)">
      <use xlink:href="#DejaVuSans-99"/>
      <use x="54.980469" xlink:href="#DejaVuSans-104"/>
      <use x="118.359375" xlink:href="#DejaVuSans-97"/>
      <use x="179.638672" xlink:href="#DejaVuSans-105"/>
      <use x="207.421875" xlink:href="#DejaVuSans-110"/>
      <use x="270.800781" xlink:href="#DejaVuSans-32"/>
      <use x="302.587891" xlink:href="#DejaVuSans-32"/>
      <use x="334.375" xlink:href="#DejaVuSans-48"/>
      <use x="397.998047" xlink:href="#DejaVuSans-32"/>
      <use x="429.785156" xlink:href="#DejaVuSans-66"/>
      <use x="498.388672" xlink:href="#DejaVuSans-70"/>
      <use x="555.908203" xlink:href="#DejaVuSans-77"/>
      <use x="642.1875" xlink:href="#DejaVuSans-73"/>
      <use x="671.679688" xlink:href="#DejaVuSans-32"/>
      <use x="703.466797" xlink:href="#DejaVuSans-61"/>
      <use x="787.255859" xlink:href="#DejaVuSans-32"/>
      <use x="819.042969" xlink:href="#DejaVuSans-48"/>
      <use x="882.666016" xlink:href="#DejaVuSans-46"/>
      <use x="914.453125" xlink:href="#DejaVuSans-50"/>
      <use x="978.076172" xlink:href="#DejaVuSans-57"/>
     </g>
    </g>
    <g id="line2d_9">
     <path d="M 317.76351 41.887428 
L 345.76351 41.887428 
" style="fill:none;stroke:#fa7c17;stroke-linecap:round;stroke-opacity:0;stroke-width:1.5;"/>
    </g>
    <g id="line2d_10"/>
    <g id="text_2">
     <!-- chain  1 BFMI = 0.31 -->
     <defs>
      <path d="M 12.40625 8.296875 
L 28.515625 8.296875 
L 28.515625 63.921875 
L 10.984375 60.40625 
L 10.984375 69.390625 
L 28.421875 72.90625 
L 38.28125 72.90625 
L 38.28125 8.296875 
L 54.390625 8.296875 
L 54.390625 0 
L 12.40625 0 
z
" id="DejaVuSans-49"/>
      <path d="M 40.578125 39.3125 
Q 47.65625 37.796875 51.625 33 
Q 55.609375 28.21875 55.609375 21.1875 
Q 55.609375 10.40625 48.1875 4.484375 
Q 40.765625 -1.421875 27.09375 -1.421875 
Q 22.515625 -1.421875 17.65625 -0.515625 
Q 12.796875 0.390625 7.625 2.203125 
L 7.625 11.71875 
Q 11.71875 9.328125 16.59375 8.109375 
Q 21.484375 6.890625 26.8125 6.890625 
Q 36.078125 6.890625 40.9375 10.546875 
Q 45.796875 14.203125 45.796875 21.1875 
Q 45.796875 27.640625 41.28125 31.265625 
Q 36.765625 34.90625 28.71875 34.90625 
L 20.21875 34.90625 
L 20.21875 43.015625 
L 29.109375 43.015625 
Q 36.375 43.015625 40.234375 45.921875 
Q 44.09375 48.828125 44.09375 54.296875 
Q 44.09375 59.90625 40.109375 62.90625 
Q 36.140625 65.921875 28.71875 65.921875 
Q 24.65625 65.921875 20.015625 65.03125 
Q 15.375 64.15625 9.8125 62.3125 
L 9.8125 71.09375 
Q 15.4375 72.65625 20.34375 73.4375 
Q 25.25 74.21875 29.59375 74.21875 
Q 40.828125 74.21875 47.359375 69.109375 
Q 53.90625 64.015625 53.90625 55.328125 
Q 53.90625 49.265625 50.4375 45.09375 
Q 46.96875 40.921875 40.578125 39.3125 
z
" id="DejaVuSans-51"/>
     </defs>
     <g style="fill:#262626;" transform="translate(356.96351 46.787428)scale(0.14 -0.14)">
      <use xlink:href="#DejaVuSans-99"/>
      <use x="54.980469" xlink:href="#DejaVuSans-104"/>
      <use x="118.359375" xlink:href="#DejaVuSans-97"/>
      <use x="179.638672" xlink:href="#DejaVuSans-105"/>
      <use x="207.421875" xlink:href="#DejaVuSans-110"/>
      <use x="270.800781" xlink:href="#DejaVuSans-32"/>
      <use x="302.587891" xlink:href="#DejaVuSans-32"/>
      <use x="334.375" xlink:href="#DejaVuSans-49"/>
      <use x="397.998047" xlink:href="#DejaVuSans-32"/>
      <use x="429.785156" xlink:href="#DejaVuSans-66"/>
      <use x="498.388672" xlink:href="#DejaVuSans-70"/>
      <use x="555.908203" xlink:href="#DejaVuSans-77"/>
      <use x="642.1875" xlink:href="#DejaVuSans-73"/>
      <use x="671.679688" xlink:href="#DejaVuSans-32"/>
      <use x="703.466797" xlink:href="#DejaVuSans-61"/>
      <use x="787.255859" xlink:href="#DejaVuSans-32"/>
      <use x="819.042969" xlink:href="#DejaVuSans-48"/>
      <use x="882.666016" xlink:href="#DejaVuSans-46"/>
      <use x="914.453125" xlink:href="#DejaVuSans-51"/>
      <use x="978.076172" xlink:href="#DejaVuSans-49"/>
     </g>
    </g>
    <g id="line2d_11">
     <path d="M 317.76351 62.436803 
L 345.76351 62.436803 
" style="fill:none;stroke:#328c06;stroke-linecap:round;stroke-opacity:0;stroke-width:1.5;"/>
    </g>
    <g id="line2d_12"/>
    <g id="text_3">
     <!-- chain  2 BFMI = 0.31 -->
     <g style="fill:#262626;" transform="translate(356.96351 67.336803)scale(0.14 -0.14)">
      <use xlink:href="#DejaVuSans-99"/>
      <use x="54.980469" xlink:href="#DejaVuSans-104"/>
      <use x="118.359375" xlink:href="#DejaVuSans-97"/>
      <use x="179.638672" xlink:href="#DejaVuSans-105"/>
      <use x="207.421875" xlink:href="#DejaVuSans-110"/>
      <use x="270.800781" xlink:href="#DejaVuSans-32"/>
      <use x="302.587891" xlink:href="#DejaVuSans-32"/>
      <use x="334.375" xlink:href="#DejaVuSans-50"/>
      <use x="397.998047" xlink:href="#DejaVuSans-32"/>
      <use x="429.785156" xlink:href="#DejaVuSans-66"/>
      <use x="498.388672" xlink:href="#DejaVuSans-70"/>
      <use x="555.908203" xlink:href="#DejaVuSans-77"/>
      <use x="642.1875" xlink:href="#DejaVuSans-73"/>
      <use x="671.679688" xlink:href="#DejaVuSans-32"/>
      <use x="703.466797" xlink:href="#DejaVuSans-61"/>
      <use x="787.255859" xlink:href="#DejaVuSans-32"/>
      <use x="819.042969" xlink:href="#DejaVuSans-48"/>
      <use x="882.666016" xlink:href="#DejaVuSans-46"/>
      <use x="914.453125" xlink:href="#DejaVuSans-51"/>
      <use x="978.076172" xlink:href="#DejaVuSans-49"/>
     </g>
    </g>
    <g id="line2d_13">
     <path d="M 317.76351 82.986178 
L 345.76351 82.986178 
" style="fill:none;stroke:#c10c90;stroke-linecap:round;stroke-opacity:0;stroke-width:1.5;"/>
    </g>
    <g id="line2d_14"/>
    <g id="text_4">
     <!-- chain  3 BFMI = 0.27 -->
     <defs>
      <path d="M 8.203125 72.90625 
L 55.078125 72.90625 
L 55.078125 68.703125 
L 28.609375 0 
L 18.3125 0 
L 43.21875 64.59375 
L 8.203125 64.59375 
z
" id="DejaVuSans-55"/>
     </defs>
     <g style="fill:#262626;" transform="translate(356.96351 87.886178)scale(0.14 -0.14)">
      <use xlink:href="#DejaVuSans-99"/>
      <use x="54.980469" xlink:href="#DejaVuSans-104"/>
      <use x="118.359375" xlink:href="#DejaVuSans-97"/>
      <use x="179.638672" xlink:href="#DejaVuSans-105"/>
      <use x="207.421875" xlink:href="#DejaVuSans-110"/>
      <use x="270.800781" xlink:href="#DejaVuSans-32"/>
      <use x="302.587891" xlink:href="#DejaVuSans-32"/>
      <use x="334.375" xlink:href="#DejaVuSans-51"/>
      <use x="397.998047" xlink:href="#DejaVuSans-32"/>
      <use x="429.785156" xlink:href="#DejaVuSans-66"/>
      <use x="498.388672" xlink:href="#DejaVuSans-70"/>
      <use x="555.908203" xlink:href="#DejaVuSans-77"/>
      <use x="642.1875" xlink:href="#DejaVuSans-73"/>
      <use x="671.679688" xlink:href="#DejaVuSans-32"/>
      <use x="703.466797" xlink:href="#DejaVuSans-61"/>
      <use x="787.255859" xlink:href="#DejaVuSans-32"/>
      <use x="819.042969" xlink:href="#DejaVuSans-48"/>
      <use x="882.666016" xlink:href="#DejaVuSans-46"/>
      <use x="914.453125" xlink:href="#DejaVuSans-50"/>
      <use x="978.076172" xlink:href="#DejaVuSans-55"/>
     </g>
    </g>
    <g id="patch_7">
     <path d="M 317.76351 108.435553 
L 345.76351 108.435553 
L 345.76351 98.635553 
L 317.76351 98.635553 
z
" style="fill:#2a2eec;stroke:#2a2eec;stroke-linejoin:miter;"/>
    </g>
    <g id="text_5">
     <!-- Marginal Energy -->
     <defs>
      <path d="M 41.109375 46.296875 
Q 39.59375 47.171875 37.8125 47.578125 
Q 36.03125 48 33.890625 48 
Q 26.265625 48 22.1875 43.046875 
Q 18.109375 38.09375 18.109375 28.8125 
L 18.109375 0 
L 9.078125 0 
L 9.078125 54.6875 
L 18.109375 54.6875 
L 18.109375 46.1875 
Q 20.953125 51.171875 25.484375 53.578125 
Q 30.03125 56 36.53125 56 
Q 37.453125 56 38.578125 55.875 
Q 39.703125 55.765625 41.0625 55.515625 
z
" id="DejaVuSans-114"/>
      <path d="M 45.40625 27.984375 
Q 45.40625 37.75 41.375 43.109375 
Q 37.359375 48.484375 30.078125 48.484375 
Q 22.859375 48.484375 18.828125 43.109375 
Q 14.796875 37.75 14.796875 27.984375 
Q 14.796875 18.265625 18.828125 12.890625 
Q 22.859375 7.515625 30.078125 7.515625 
Q 37.359375 7.515625 41.375 12.890625 
Q 45.40625 18.265625 45.40625 27.984375 
z
M 54.390625 6.78125 
Q 54.390625 -7.171875 48.1875 -13.984375 
Q 42 -20.796875 29.203125 -20.796875 
Q 24.46875 -20.796875 20.265625 -20.09375 
Q 16.0625 -19.390625 12.109375 -17.921875 
L 12.109375 -9.1875 
Q 16.0625 -11.328125 19.921875 -12.34375 
Q 23.78125 -13.375 27.78125 -13.375 
Q 36.625 -13.375 41.015625 -8.765625 
Q 45.40625 -4.15625 45.40625 5.171875 
L 45.40625 9.625 
Q 42.625 4.78125 38.28125 2.390625 
Q 33.9375 0 27.875 0 
Q 17.828125 0 11.671875 7.65625 
Q 5.515625 15.328125 5.515625 27.984375 
Q 5.515625 40.671875 11.671875 48.328125 
Q 17.828125 56 27.875 56 
Q 33.9375 56 38.28125 53.609375 
Q 42.625 51.21875 45.40625 46.390625 
L 45.40625 54.6875 
L 54.390625 54.6875 
z
" id="DejaVuSans-103"/>
      <path d="M 9.421875 75.984375 
L 18.40625 75.984375 
L 18.40625 0 
L 9.421875 0 
z
" id="DejaVuSans-108"/>
      <path d="M 9.8125 72.90625 
L 55.90625 72.90625 
L 55.90625 64.59375 
L 19.671875 64.59375 
L 19.671875 43.015625 
L 54.390625 43.015625 
L 54.390625 34.71875 
L 19.671875 34.71875 
L 19.671875 8.296875 
L 56.78125 8.296875 
L 56.78125 0 
L 9.8125 0 
z
" id="DejaVuSans-69"/>
      <path d="M 56.203125 29.59375 
L 56.203125 25.203125 
L 14.890625 25.203125 
Q 15.484375 15.921875 20.484375 11.0625 
Q 25.484375 6.203125 34.421875 6.203125 
Q 39.59375 6.203125 44.453125 7.46875 
Q 49.3125 8.734375 54.109375 11.28125 
L 54.109375 2.78125 
Q 49.265625 0.734375 44.1875 -0.34375 
Q 39.109375 -1.421875 33.890625 -1.421875 
Q 20.796875 -1.421875 13.15625 6.1875 
Q 5.515625 13.8125 5.515625 26.8125 
Q 5.515625 40.234375 12.765625 48.109375 
Q 20.015625 56 32.328125 56 
Q 43.359375 56 49.78125 48.890625 
Q 56.203125 41.796875 56.203125 29.59375 
z
M 47.21875 32.234375 
Q 47.125 39.59375 43.09375 43.984375 
Q 39.0625 48.390625 32.421875 48.390625 
Q 24.90625 48.390625 20.390625 44.140625 
Q 15.875 39.890625 15.1875 32.171875 
z
" id="DejaVuSans-101"/>
      <path d="M 32.171875 -5.078125 
Q 28.375 -14.84375 24.75 -17.8125 
Q 21.140625 -20.796875 15.09375 -20.796875 
L 7.90625 -20.796875 
L 7.90625 -13.28125 
L 13.1875 -13.28125 
Q 16.890625 -13.28125 18.9375 -11.515625 
Q 21 -9.765625 23.484375 -3.21875 
L 25.09375 0.875 
L 2.984375 54.6875 
L 12.5 54.6875 
L 29.59375 11.921875 
L 46.6875 54.6875 
L 56.203125 54.6875 
z
" id="DejaVuSans-121"/>
     </defs>
     <g style="fill:#262626;" transform="translate(356.96351 108.435553)scale(0.14 -0.14)">
      <use xlink:href="#DejaVuSans-77"/>
      <use x="86.279297" xlink:href="#DejaVuSans-97"/>
      <use x="147.558594" xlink:href="#DejaVuSans-114"/>
      <use x="188.65625" xlink:href="#DejaVuSans-103"/>
      <use x="252.132812" xlink:href="#DejaVuSans-105"/>
      <use x="279.916016" xlink:href="#DejaVuSans-110"/>
      <use x="343.294922" xlink:href="#DejaVuSans-97"/>
      <use x="404.574219" xlink:href="#DejaVuSans-108"/>
      <use x="432.357422" xlink:href="#DejaVuSans-32"/>
      <use x="464.144531" xlink:href="#DejaVuSans-69"/>
      <use x="527.328125" xlink:href="#DejaVuSans-110"/>
      <use x="590.707031" xlink:href="#DejaVuSans-101"/>
      <use x="652.230469" xlink:href="#DejaVuSans-114"/>
      <use x="693.328125" xlink:href="#DejaVuSans-103"/>
      <use x="756.804688" xlink:href="#DejaVuSans-121"/>
     </g>
    </g>
    <g id="patch_8">
     <path d="M 317.76351 128.984928 
L 345.76351 128.984928 
L 345.76351 119.184928 
L 317.76351 119.184928 
z
" style="fill:#65e5f3;opacity:0.75;stroke:#65e5f3;stroke-linejoin:miter;"/>
    </g>
    <g id="text_6">
     <!-- Energy transition -->
     <defs>
      <path d="M 18.3125 70.21875 
L 18.3125 54.6875 
L 36.8125 54.6875 
L 36.8125 47.703125 
L 18.3125 47.703125 
L 18.3125 18.015625 
Q 18.3125 11.328125 20.140625 9.421875 
Q 21.96875 7.515625 27.59375 7.515625 
L 36.8125 7.515625 
L 36.8125 0 
L 27.59375 0 
Q 17.1875 0 13.234375 3.875 
Q 9.28125 7.765625 9.28125 18.015625 
L 9.28125 47.703125 
L 2.6875 47.703125 
L 2.6875 54.6875 
L 9.28125 54.6875 
L 9.28125 70.21875 
z
" id="DejaVuSans-116"/>
      <path d="M 44.28125 53.078125 
L 44.28125 44.578125 
Q 40.484375 46.53125 36.375 47.5 
Q 32.28125 48.484375 27.875 48.484375 
Q 21.1875 48.484375 17.84375 46.4375 
Q 14.5 44.390625 14.5 40.28125 
Q 14.5 37.15625 16.890625 35.375 
Q 19.28125 33.59375 26.515625 31.984375 
L 29.59375 31.296875 
Q 39.15625 29.25 43.1875 25.515625 
Q 47.21875 21.78125 47.21875 15.09375 
Q 47.21875 7.46875 41.1875 3.015625 
Q 35.15625 -1.421875 24.609375 -1.421875 
Q 20.21875 -1.421875 15.453125 -0.5625 
Q 10.6875 0.296875 5.421875 2 
L 5.421875 11.28125 
Q 10.40625 8.6875 15.234375 7.390625 
Q 20.0625 6.109375 24.8125 6.109375 
Q 31.15625 6.109375 34.5625 8.28125 
Q 37.984375 10.453125 37.984375 14.40625 
Q 37.984375 18.0625 35.515625 20.015625 
Q 33.0625 21.96875 24.703125 23.78125 
L 21.578125 24.515625 
Q 13.234375 26.265625 9.515625 29.90625 
Q 5.8125 33.546875 5.8125 39.890625 
Q 5.8125 47.609375 11.28125 51.796875 
Q 16.75 56 26.8125 56 
Q 31.78125 56 36.171875 55.265625 
Q 40.578125 54.546875 44.28125 53.078125 
z
" id="DejaVuSans-115"/>
      <path d="M 30.609375 48.390625 
Q 23.390625 48.390625 19.1875 42.75 
Q 14.984375 37.109375 14.984375 27.296875 
Q 14.984375 17.484375 19.15625 11.84375 
Q 23.34375 6.203125 30.609375 6.203125 
Q 37.796875 6.203125 41.984375 11.859375 
Q 46.1875 17.53125 46.1875 27.296875 
Q 46.1875 37.015625 41.984375 42.703125 
Q 37.796875 48.390625 30.609375 48.390625 
z
M 30.609375 56 
Q 42.328125 56 49.015625 48.375 
Q 55.71875 40.765625 55.71875 27.296875 
Q 55.71875 13.875 49.015625 6.21875 
Q 42.328125 -1.421875 30.609375 -1.421875 
Q 18.84375 -1.421875 12.171875 6.21875 
Q 5.515625 13.875 5.515625 27.296875 
Q 5.515625 40.765625 12.171875 48.375 
Q 18.84375 56 30.609375 56 
z
" id="DejaVuSans-111"/>
     </defs>
     <g style="fill:#262626;" transform="translate(356.96351 128.984928)scale(0.14 -0.14)">
      <use xlink:href="#DejaVuSans-69"/>
      <use x="63.183594" xlink:href="#DejaVuSans-110"/>
      <use x="126.5625" xlink:href="#DejaVuSans-101"/>
      <use x="188.085938" xlink:href="#DejaVuSans-114"/>
      <use x="229.183594" xlink:href="#DejaVuSans-103"/>
      <use x="292.660156" xlink:href="#DejaVuSans-121"/>
      <use x="351.839844" xlink:href="#DejaVuSans-32"/>
      <use x="383.626953" xlink:href="#DejaVuSans-116"/>
      <use x="422.835938" xlink:href="#DejaVuSans-114"/>
      <use x="463.949219" xlink:href="#DejaVuSans-97"/>
      <use x="525.228516" xlink:href="#DejaVuSans-110"/>
      <use x="588.607422" xlink:href="#DejaVuSans-115"/>
      <use x="640.707031" xlink:href="#DejaVuSans-105"/>
      <use x="668.490234" xlink:href="#DejaVuSans-116"/>
      <use x="707.699219" xlink:href="#DejaVuSans-105"/>
      <use x="735.482422" xlink:href="#DejaVuSans-111"/>
      <use x="796.664062" xlink:href="#DejaVuSans-110"/>
     </g>
    </g>
   </g>
  </g>
 </g>
 <defs>
  <clipPath id="pa5b078e15c">
   <rect height="339.59952" width="512.39952" x="3.00024" y="3.00024"/>
  </clipPath>
 </defs>
</svg>
