<?xml version="1.0" encoding="utf-8" standalone="no"?>
<!DOCTYPE svg PUBLIC "-//W3C//DTD SVG 1.1//EN"
  "http://www.w3.org/Graphics/SVG/1.1/DTD/svg11.dtd">
<!-- Created with matplotlib (https://matplotlib.org/) -->
<svg height="345.6pt" version="1.1" viewBox="0 0 518.4 345.6" width="518.4pt" xmlns="http://www.w3.org/2000/svg" xmlns:xlink="http://www.w3.org/1999/xlink">
 <defs>
  <style type="text/css">
*{stroke-linecap:butt;stroke-linejoin:round;}
  </style>
 </defs>
 <g id="figure_1">
  <g id="patch_1">
   <path d="M 0 345.6 
L 518.4 345.6 
L 518.4 0 
L 0 0 
z
" style="fill:#ffffff;"/>
  </g>
  <g id="axes_1">
   <g id="patch_2">
    <path d="M 3.00024 342.59976 
L 515.39976 342.59976 
L 515.39976 3.00024 
L 3.00024 3.00024 
z
" style="fill:#eeeeee;"/>
   </g>
   <g id="matplotlib.axis_1"/>
   <g id="matplotlib.axis_2"/>
   <g id="PolyCollection_1">
    <defs>
     <path d="M 26.291127 -18.436582 
L 26.291127 -23.32083 
L 28.63192 -23.32083 
L 30.972713 -23.45366 
L 33.313505 -23.701717 
L 35.654298 -24.091084 
L 37.995091 -24.597608 
L 40.335883 -25.221414 
L 42.676676 -25.953638 
L 45.017469 -26.809074 
L 47.358261 -27.766945 
L 49.699054 -28.826132 
L 52.039847 -29.982214 
L 54.38064 -31.248116 
L 56.721432 -32.616462 
L 59.062225 -34.064597 
L 61.403018 -35.583857 
L 63.74381 -37.174275 
L 66.084603 -38.831188 
L 68.425396 -40.532675 
L 70.766188 -42.261172 
L 73.106981 -44.016442 
L 75.447774 -45.786925 
L 77.788566 -47.548202 
L 80.129359 -49.287324 
L 82.470152 -51.010639 
L 84.810945 -52.711911 
L 87.151737 -54.395923 
L 89.49253 -56.052884 
L 91.833323 -57.693966 
L 94.174115 -59.316501 
L 96.514908 -60.926915 
L 98.855701 -62.535716 
L 101.196493 -64.149874 
L 103.537286 -65.775783 
L 105.878079 -67.398782 
L 108.218871 -69.041268 
L 110.559664 -70.713861 
L 112.900457 -72.401009 
L 115.24125 -74.131368 
L 117.582042 -75.892269 
L 119.922835 -77.691147 
L 122.263628 -79.559421 
L 124.60442 -81.482904 
L 126.945213 -83.448785 
L 129.286006 -85.491877 
L 131.626798 -87.594678 
L 133.967591 -89.771699 
L 136.308384 -92.002535 
L 138.649176 -94.242475 
L 140.989969 -96.509113 
L 143.330762 -98.757234 
L 145.671554 -100.986957 
L 148.012347 -103.15723 
L 150.35314 -105.251911 
L 152.693933 -107.25709 
L 155.034725 -109.154121 
L 157.375518 -110.928286 
L 159.716311 -112.599002 
L 162.057103 -114.168994 
L 164.397896 -115.636993 
L 166.738689 -117.049978 
L 169.079481 -118.381357 
L 171.420274 -119.675952 
L 173.761067 -120.974781 
L 176.101859 -122.265634 
L 178.442652 -123.597184 
L 180.783445 -124.973105 
L 183.124238 -126.426117 
L 185.46503 -127.918398 
L 187.805823 -129.468847 
L 190.146616 -131.035035 
L 192.487408 -132.648432 
L 194.828201 -134.277067 
L 197.168994 -135.897284 
L 199.509786 -137.530383 
L 201.850579 -139.129355 
L 204.191372 -140.685107 
L 206.532164 -142.213986 
L 208.872957 -143.707332 
L 211.21375 -145.159776 
L 213.554543 -146.556258 
L 215.895335 -147.918583 
L 218.236128 -149.245893 
L 220.576921 -150.542649 
L 222.917713 -151.780636 
L 225.258506 -152.967936 
L 227.599299 -154.068545 
L 229.940091 -155.090429 
L 232.280884 -156.000789 
L 234.621677 -156.782367 
L 236.962469 -157.403404 
L 239.303262 -157.89455 
L 241.644055 -158.240751 
L 243.984848 -158.422464 
L 246.32564 -158.466397 
L 248.666433 -158.330273 
L 251.007226 -158.058552 
L 253.348018 -157.633226 
L 255.688811 -157.069264 
L 258.029604 -156.385737 
L 260.370396 -155.583748 
L 262.711189 -154.663072 
L 265.051982 -153.660781 
L 267.392774 -152.586222 
L 269.733567 -151.407036 
L 272.07436 -150.175895 
L 274.415152 -148.871735 
L 276.755945 -147.522014 
L 279.096738 -146.13204 
L 281.437531 -144.675932 
L 283.778323 -143.188305 
L 286.119116 -141.632496 
L 288.459909 -140.061013 
L 290.800701 -138.423241 
L 293.141494 -136.714897 
L 295.482287 -134.92085 
L 297.823079 -133.014967 
L 300.163872 -130.999552 
L 302.504665 -128.83653 
L 304.845457 -126.544877 
L 307.18625 -124.115093 
L 309.527043 -121.529493 
L 311.867836 -118.832618 
L 314.208628 -115.995582 
L 316.549421 -113.063354 
L 318.890214 -110.0342 
L 321.231006 -106.916132 
L 323.571799 -103.738164 
L 325.912592 -100.538576 
L 328.253384 -97.306643 
L 330.594177 -94.092145 
L 332.93497 -90.890852 
L 335.275762 -87.704825 
L 337.616555 -84.566723 
L 339.957348 -81.476488 
L 342.298141 -78.426039 
L 344.638933 -75.435786 
L 346.979726 -72.503439 
L 349.320519 -69.641734 
L 351.661311 -66.87635 
L 354.002104 -64.191803 
L 356.342897 -61.623105 
L 358.683689 -59.157903 
L 361.024482 -56.787821 
L 363.365275 -54.539333 
L 365.706067 -52.41577 
L 368.04686 -50.415222 
L 370.387653 -48.539458 
L 372.728446 -46.797762 
L 375.069238 -45.183187 
L 377.410031 -43.69436 
L 379.750824 -42.296747 
L 382.091616 -41.001441 
L 384.432409 -39.805382 
L 386.773202 -38.685972 
L 389.113994 -37.65075 
L 391.454787 -36.654185 
L 393.79558 -35.722101 
L 396.136372 -34.853466 
L 398.477165 -34.009187 
L 400.817958 -33.212976 
L 403.15875 -32.455812 
L 405.499543 -31.719477 
L 407.840336 -31.014181 
L 410.181129 -30.33197 
L 412.521921 -29.668162 
L 414.862714 -29.0057 
L 417.203507 -28.368424 
L 419.544299 -27.740473 
L 421.885092 -27.123998 
L 424.225885 -26.523042 
L 426.566677 -25.934549 
L 428.90747 -25.362354 
L 431.248263 -24.80815 
L 433.589055 -24.285519 
L 435.929848 -23.785701 
L 438.270641 -23.325336 
L 440.611434 -22.895195 
L 442.952226 -22.506535 
L 445.293019 -22.155704 
L 447.633812 -21.844911 
L 449.974604 -21.576482 
L 452.315397 -21.346834 
L 454.65619 -21.156 
L 456.996982 -20.991751 
L 459.337775 -20.860634 
L 461.678568 -20.757692 
L 464.01936 -20.679155 
L 466.360153 -20.619956 
L 468.700946 -20.573686 
L 471.041739 -20.532962 
L 473.382531 -20.507148 
L 475.723324 -20.483209 
L 478.064117 -20.466544 
L 480.404909 -20.450799 
L 482.745702 -20.434563 
L 485.086495 -20.424555 
L 487.427287 -20.414826 
L 489.76808 -20.408068 
L 492.108873 -20.397133 
L 492.108873 -18.436582 
L 492.108873 -18.436582 
L 489.76808 -18.436582 
L 487.427287 -18.436582 
L 485.086495 -18.436582 
L 482.745702 -18.436582 
L 480.404909 -18.436582 
L 478.064117 -18.436582 
L 475.723324 -18.436582 
L 473.382531 -18.436582 
L 471.041739 -18.436582 
L 468.700946 -18.436582 
L 466.360153 -18.436582 
L 464.01936 -18.436582 
L 461.678568 -18.436582 
L 459.337775 -18.436582 
L 456.996982 -18.436582 
L 454.65619 -18.436582 
L 452.315397 -18.436582 
L 449.974604 -18.436582 
L 447.633812 -18.436582 
L 445.293019 -18.436582 
L 442.952226 -18.436582 
L 440.611434 -18.436582 
L 438.270641 -18.436582 
L 435.929848 -18.436582 
L 433.589055 -18.436582 
L 431.248263 -18.436582 
L 428.90747 -18.436582 
L 426.566677 -18.436582 
L 424.225885 -18.436582 
L 421.885092 -18.436582 
L 419.544299 -18.436582 
L 417.203507 -18.436582 
L 414.862714 -18.436582 
L 412.521921 -18.436582 
L 410.181129 -18.436582 
L 407.840336 -18.436582 
L 405.499543 -18.436582 
L 403.15875 -18.436582 
L 400.817958 -18.436582 
L 398.477165 -18.436582 
L 396.136372 -18.436582 
L 393.79558 -18.436582 
L 391.454787 -18.436582 
L 389.113994 -18.436582 
L 386.773202 -18.436582 
L 384.432409 -18.436582 
L 382.091616 -18.436582 
L 379.750824 -18.436582 
L 377.410031 -18.436582 
L 375.069238 -18.436582 
L 372.728446 -18.436582 
L 370.387653 -18.436582 
L 368.04686 -18.436582 
L 365.706067 -18.436582 
L 363.365275 -18.436582 
L 361.024482 -18.436582 
L 358.683689 -18.436582 
L 356.342897 -18.436582 
L 354.002104 -18.436582 
L 351.661311 -18.436582 
L 349.320519 -18.436582 
L 346.979726 -18.436582 
L 344.638933 -18.436582 
L 342.298141 -18.436582 
L 339.957348 -18.436582 
L 337.616555 -18.436582 
L 335.275762 -18.436582 
L 332.93497 -18.436582 
L 330.594177 -18.436582 
L 328.253384 -18.436582 
L 325.912592 -18.436582 
L 323.571799 -18.436582 
L 321.231006 -18.436582 
L 318.890214 -18.436582 
L 316.549421 -18.436582 
L 314.208628 -18.436582 
L 311.867836 -18.436582 
L 309.527043 -18.436582 
L 307.18625 -18.436582 
L 304.845457 -18.436582 
L 302.504665 -18.436582 
L 300.163872 -18.436582 
L 297.823079 -18.436582 
L 295.482287 -18.436582 
L 293.141494 -18.436582 
L 290.800701 -18.436582 
L 288.459909 -18.436582 
L 286.119116 -18.436582 
L 283.778323 -18.436582 
L 281.437531 -18.436582 
L 279.096738 -18.436582 
L 276.755945 -18.436582 
L 274.415152 -18.436582 
L 272.07436 -18.436582 
L 269.733567 -18.436582 
L 267.392774 -18.436582 
L 265.051982 -18.436582 
L 262.711189 -18.436582 
L 260.370396 -18.436582 
L 258.029604 -18.436582 
L 255.688811 -18.436582 
L 253.348018 -18.436582 
L 251.007226 -18.436582 
L 248.666433 -18.436582 
L 246.32564 -18.436582 
L 243.984848 -18.436582 
L 241.644055 -18.436582 
L 239.303262 -18.436582 
L 236.962469 -18.436582 
L 234.621677 -18.436582 
L 232.280884 -18.436582 
L 229.940091 -18.436582 
L 227.599299 -18.436582 
L 225.258506 -18.436582 
L 222.917713 -18.436582 
L 220.576921 -18.436582 
L 218.236128 -18.436582 
L 215.895335 -18.436582 
L 213.554543 -18.436582 
L 211.21375 -18.436582 
L 208.872957 -18.436582 
L 206.532164 -18.436582 
L 204.191372 -18.436582 
L 201.850579 -18.436582 
L 199.509786 -18.436582 
L 197.168994 -18.436582 
L 194.828201 -18.436582 
L 192.487408 -18.436582 
L 190.146616 -18.436582 
L 187.805823 -18.436582 
L 185.46503 -18.436582 
L 183.124238 -18.436582 
L 180.783445 -18.436582 
L 178.442652 -18.436582 
L 176.101859 -18.436582 
L 173.761067 -18.436582 
L 171.420274 -18.436582 
L 169.079481 -18.436582 
L 166.738689 -18.436582 
L 164.397896 -18.436582 
L 162.057103 -18.436582 
L 159.716311 -18.436582 
L 157.375518 -18.436582 
L 155.034725 -18.436582 
L 152.693933 -18.436582 
L 150.35314 -18.436582 
L 148.012347 -18.436582 
L 145.671554 -18.436582 
L 143.330762 -18.436582 
L 140.989969 -18.436582 
L 138.649176 -18.436582 
L 136.308384 -18.436582 
L 133.967591 -18.436582 
L 131.626798 -18.436582 
L 129.286006 -18.436582 
L 126.945213 -18.436582 
L 124.60442 -18.436582 
L 122.263628 -18.436582 
L 119.922835 -18.436582 
L 117.582042 -18.436582 
L 115.24125 -18.436582 
L 112.900457 -18.436582 
L 110.559664 -18.436582 
L 108.218871 -18.436582 
L 105.878079 -18.436582 
L 103.537286 -18.436582 
L 101.196493 -18.436582 
L 98.855701 -18.436582 
L 96.514908 -18.436582 
L 94.174115 -18.436582 
L 91.833323 -18.436582 
L 89.49253 -18.436582 
L 87.151737 -18.436582 
L 84.810945 -18.436582 
L 82.470152 -18.436582 
L 80.129359 -18.436582 
L 77.788566 -18.436582 
L 75.447774 -18.436582 
L 73.106981 -18.436582 
L 70.766188 -18.436582 
L 68.425396 -18.436582 
L 66.084603 -18.436582 
L 63.74381 -18.436582 
L 61.403018 -18.436582 
L 59.062225 -18.436582 
L 56.721432 -18.436582 
L 54.38064 -18.436582 
L 52.039847 -18.436582 
L 49.699054 -18.436582 
L 47.358261 -18.436582 
L 45.017469 -18.436582 
L 42.676676 -18.436582 
L 40.335883 -18.436582 
L 37.995091 -18.436582 
L 35.654298 -18.436582 
L 33.313505 -18.436582 
L 30.972713 -18.436582 
L 28.63192 -18.436582 
L 26.291127 -18.436582 
z
" id="m225199fac6" style="stroke:#2a2eec;"/>
    </defs>
    <g clip-path="url(#pdc53f8f7ba)">
     <use style="fill:#2a2eec;stroke:#2a2eec;" x="0" xlink:href="#m225199fac6" y="345.6"/>
    </g>
   </g>
   <g id="PolyCollection_2">
    <defs>
     <path d="M 64.995221 -18.436582 
L 64.995221 -19.338488 
L 66.940805 -19.338488 
L 68.886389 -19.343763 
L 70.831973 -19.354203 
L 72.777557 -19.366052 
L 74.723141 -19.384198 
L 76.668725 -19.407362 
L 78.614309 -19.433109 
L 80.559893 -19.465425 
L 82.505477 -19.499644 
L 84.451061 -19.543754 
L 86.396645 -19.59043 
L 88.342229 -19.637615 
L 90.287813 -19.70041 
L 92.233397 -19.766311 
L 94.178981 -19.844887 
L 96.124565 -19.930195 
L 98.070149 -20.038517 
L 100.015733 -20.162385 
L 101.961317 -20.306608 
L 103.906901 -20.479357 
L 105.852485 -20.693544 
L 107.798069 -20.940608 
L 109.743653 -21.224804 
L 111.689237 -21.568024 
L 113.634821 -21.97581 
L 115.580405 -22.449346 
L 117.525989 -22.996986 
L 119.471573 -23.625124 
L 121.417157 -24.328557 
L 123.362741 -25.140295 
L 125.308325 -26.044592 
L 127.253909 -27.06218 
L 129.199493 -28.198034 
L 131.145077 -29.427101 
L 133.090661 -30.787486 
L 135.036245 -32.259145 
L 136.981829 -33.860211 
L 138.927413 -35.597364 
L 140.872997 -37.470395 
L 142.818581 -39.483582 
L 144.764165 -41.66161 
L 146.709749 -44.005293 
L 148.655333 -46.535035 
L 150.600917 -49.25146 
L 152.546501 -52.201955 
L 154.492085 -55.362089 
L 156.437669 -58.786241 
L 158.383253 -62.492111 
L 160.328837 -66.499961 
L 162.274421 -70.84533 
L 164.220005 -75.545851 
L 166.165589 -80.582588 
L 168.111173 -86.010998 
L 170.056757 -91.813657 
L 172.002341 -98.012361 
L 173.947925 -104.632133 
L 175.893509 -111.640408 
L 177.839093 -119.037915 
L 179.784677 -126.867152 
L 181.730261 -135.044071 
L 183.675845 -143.631961 
L 185.621429 -152.576265 
L 187.567013 -161.854221 
L 189.512597 -171.48891 
L 191.458181 -181.387929 
L 193.403765 -191.554624 
L 195.349349 -201.863828 
L 197.294933 -212.282306 
L 199.240517 -222.752391 
L 201.186101 -233.147914 
L 203.131685 -243.37249 
L 205.077269 -253.332875 
L 207.022853 -262.914927 
L 208.968437 -272.005196 
L 210.914021 -280.554718 
L 212.859605 -288.471332 
L 214.805189 -295.736283 
L 216.750773 -302.301338 
L 218.696357 -308.113013 
L 220.641941 -313.166746 
L 222.587525 -317.456006 
L 224.533109 -320.988079 
L 226.478693 -323.719497 
L 228.424277 -325.681884 
L 230.369861 -326.848299 
L 232.315445 -327.163418 
L 234.261029 -326.66362 
L 236.206613 -325.283999 
L 238.152197 -322.995498 
L 240.097781 -319.837375 
L 242.043365 -315.797236 
L 243.988949 -310.902918 
L 245.934533 -305.173465 
L 247.880117 -298.687206 
L 249.825701 -291.514467 
L 251.771285 -283.771397 
L 253.716869 -275.509612 
L 255.662453 -266.842993 
L 257.608037 -257.840458 
L 259.553621 -248.573595 
L 261.499205 -239.148847 
L 263.444789 -229.641857 
L 265.390373 -220.02968 
L 267.335957 -210.461357 
L 269.281541 -200.887562 
L 271.227125 -191.413203 
L 273.172709 -182.049703 
L 275.118293 -172.817205 
L 277.063877 -163.797044 
L 279.009461 -154.995811 
L 280.955045 -146.51392 
L 282.900629 -138.316631 
L 284.846213 -130.430867 
L 286.791797 -122.947768 
L 288.737381 -115.853148 
L 290.682965 -109.152057 
L 292.628549 -102.863367 
L 294.574133 -96.955345 
L 296.519717 -91.420378 
L 298.465301 -86.236914 
L 300.410885 -81.361377 
L 302.356469 -76.808695 
L 304.302053 -72.542407 
L 306.247637 -68.54869 
L 308.193221 -64.788118 
L 310.138805 -61.241923 
L 312.084389 -57.931381 
L 314.029973 -54.799397 
L 315.975557 -51.848571 
L 317.921141 -49.108772 
L 319.866725 -46.513043 
L 321.812309 -44.107093 
L 323.757893 -41.863484 
L 325.703477 -39.764958 
L 327.649061 -37.800681 
L 329.594645 -35.974557 
L 331.540229 -34.303153 
L 333.485813 -32.749051 
L 335.431398 -31.324522 
L 337.376982 -30.013718 
L 339.322566 -28.813292 
L 341.26815 -27.722911 
L 343.213734 -26.739735 
L 345.159318 -25.850718 
L 347.104902 -25.045967 
L 349.050486 -24.314395 
L 350.99607 -23.679142 
L 352.941654 -23.1067 
L 354.887238 -22.601464 
L 356.832822 -22.150141 
L 358.778406 -21.761646 
L 360.72399 -21.408701 
L 362.669574 -21.108925 
L 364.615158 -20.848214 
L 366.560742 -20.611907 
L 368.506326 -20.408679 
L 370.45191 -20.232276 
L 372.397494 -20.06244 
L 374.343078 -19.916506 
L 376.288662 -19.784264 
L 378.234246 -19.663189 
L 380.17983 -19.560035 
L 382.125414 -19.46232 
L 384.070998 -19.376048 
L 386.016582 -19.302206 
L 387.962166 -19.238405 
L 389.90775 -19.185567 
L 391.853334 -19.140994 
L 393.798918 -19.103749 
L 395.744502 -19.072539 
L 397.690086 -19.047208 
L 399.63567 -19.024144 
L 401.581254 -19.00042 
L 403.526838 -18.977904 
L 405.472422 -18.951903 
L 407.418006 -18.923528 
L 409.36359 -18.892207 
L 411.309174 -18.861414 
L 413.254758 -18.827144 
L 415.200342 -18.791906 
L 417.145926 -18.756369 
L 419.09151 -18.722081 
L 421.037094 -18.689202 
L 422.982678 -18.6625 
L 424.928262 -18.641156 
L 426.873846 -18.624826 
L 428.81943 -18.617535 
L 430.765014 -18.617535 
L 432.710598 -18.624826 
L 434.656182 -18.638993 
L 436.601766 -18.659222 
L 438.54735 -18.68433 
L 440.492934 -18.712821 
L 442.438518 -18.742953 
L 444.384102 -18.772839 
L 446.329686 -18.800558 
L 448.27527 -18.822884 
L 450.220854 -18.840122 
L 452.166438 -18.852229 
L 452.166438 -18.436582 
L 452.166438 -18.436582 
L 450.220854 -18.436582 
L 448.27527 -18.436582 
L 446.329686 -18.436582 
L 444.384102 -18.436582 
L 442.438518 -18.436582 
L 440.492934 -18.436582 
L 438.54735 -18.436582 
L 436.601766 -18.436582 
L 434.656182 -18.436582 
L 432.710598 -18.436582 
L 430.765014 -18.436582 
L 428.81943 -18.436582 
L 426.873846 -18.436582 
L 424.928262 -18.436582 
L 422.982678 -18.436582 
L 421.037094 -18.436582 
L 419.09151 -18.436582 
L 417.145926 -18.436582 
L 415.200342 -18.436582 
L 413.254758 -18.436582 
L 411.309174 -18.436582 
L 409.36359 -18.436582 
L 407.418006 -18.436582 
L 405.472422 -18.436582 
L 403.526838 -18.436582 
L 401.581254 -18.436582 
L 399.63567 -18.436582 
L 397.690086 -18.436582 
L 395.744502 -18.436582 
L 393.798918 -18.436582 
L 391.853334 -18.436582 
L 389.90775 -18.436582 
L 387.962166 -18.436582 
L 386.016582 -18.436582 
L 384.070998 -18.436582 
L 382.125414 -18.436582 
L 380.17983 -18.436582 
L 378.234246 -18.436582 
L 376.288662 -18.436582 
L 374.343078 -18.436582 
L 372.397494 -18.436582 
L 370.45191 -18.436582 
L 368.506326 -18.436582 
L 366.560742 -18.436582 
L 364.615158 -18.436582 
L 362.669574 -18.436582 
L 360.72399 -18.436582 
L 358.778406 -18.436582 
L 356.832822 -18.436582 
L 354.887238 -18.436582 
L 352.941654 -18.436582 
L 350.99607 -18.436582 
L 349.050486 -18.436582 
L 347.104902 -18.436582 
L 345.159318 -18.436582 
L 343.213734 -18.436582 
L 341.26815 -18.436582 
L 339.322566 -18.436582 
L 337.376982 -18.436582 
L 335.431398 -18.436582 
L 333.485813 -18.436582 
L 331.540229 -18.436582 
L 329.594645 -18.436582 
L 327.649061 -18.436582 
L 325.703477 -18.436582 
L 323.757893 -18.436582 
L 321.812309 -18.436582 
L 319.866725 -18.436582 
L 317.921141 -18.436582 
L 315.975557 -18.436582 
L 314.029973 -18.436582 
L 312.084389 -18.436582 
L 310.138805 -18.436582 
L 308.193221 -18.436582 
L 306.247637 -18.436582 
L 304.302053 -18.436582 
L 302.356469 -18.436582 
L 300.410885 -18.436582 
L 298.465301 -18.436582 
L 296.519717 -18.436582 
L 294.574133 -18.436582 
L 292.628549 -18.436582 
L 290.682965 -18.436582 
L 288.737381 -18.436582 
L 286.791797 -18.436582 
L 284.846213 -18.436582 
L 282.900629 -18.436582 
L 280.955045 -18.436582 
L 279.009461 -18.436582 
L 277.063877 -18.436582 
L 275.118293 -18.436582 
L 273.172709 -18.436582 
L 271.227125 -18.436582 
L 269.281541 -18.436582 
L 267.335957 -18.436582 
L 265.390373 -18.436582 
L 263.444789 -18.436582 
L 261.499205 -18.436582 
L 259.553621 -18.436582 
L 257.608037 -18.436582 
L 255.662453 -18.436582 
L 253.716869 -18.436582 
L 251.771285 -18.436582 
L 249.825701 -18.436582 
L 247.880117 -18.436582 
L 245.934533 -18.436582 
L 243.988949 -18.436582 
L 242.043365 -18.436582 
L 240.097781 -18.436582 
L 238.152197 -18.436582 
L 236.206613 -18.436582 
L 234.261029 -18.436582 
L 232.315445 -18.436582 
L 230.369861 -18.436582 
L 228.424277 -18.436582 
L 226.478693 -18.436582 
L 224.533109 -18.436582 
L 222.587525 -18.436582 
L 220.641941 -18.436582 
L 218.696357 -18.436582 
L 216.750773 -18.436582 
L 214.805189 -18.436582 
L 212.859605 -18.436582 
L 210.914021 -18.436582 
L 208.968437 -18.436582 
L 207.022853 -18.436582 
L 205.077269 -18.436582 
L 203.131685 -18.436582 
L 201.186101 -18.436582 
L 199.240517 -18.436582 
L 197.294933 -18.436582 
L 195.349349 -18.436582 
L 193.403765 -18.436582 
L 191.458181 -18.436582 
L 189.512597 -18.436582 
L 187.567013 -18.436582 
L 185.621429 -18.436582 
L 183.675845 -18.436582 
L 181.730261 -18.436582 
L 179.784677 -18.436582 
L 177.839093 -18.436582 
L 175.893509 -18.436582 
L 173.947925 -18.436582 
L 172.002341 -18.436582 
L 170.056757 -18.436582 
L 168.111173 -18.436582 
L 166.165589 -18.436582 
L 164.220005 -18.436582 
L 162.274421 -18.436582 
L 160.328837 -18.436582 
L 158.383253 -18.436582 
L 156.437669 -18.436582 
L 154.492085 -18.436582 
L 152.546501 -18.436582 
L 150.600917 -18.436582 
L 148.655333 -18.436582 
L 146.709749 -18.436582 
L 144.764165 -18.436582 
L 142.818581 -18.436582 
L 140.872997 -18.436582 
L 138.927413 -18.436582 
L 136.981829 -18.436582 
L 135.036245 -18.436582 
L 133.090661 -18.436582 
L 131.145077 -18.436582 
L 129.199493 -18.436582 
L 127.253909 -18.436582 
L 125.308325 -18.436582 
L 123.362741 -18.436582 
L 121.417157 -18.436582 
L 119.471573 -18.436582 
L 117.525989 -18.436582 
L 115.580405 -18.436582 
L 113.634821 -18.436582 
L 111.689237 -18.436582 
L 109.743653 -18.436582 
L 107.798069 -18.436582 
L 105.852485 -18.436582 
L 103.906901 -18.436582 
L 101.961317 -18.436582 
L 100.015733 -18.436582 
L 98.070149 -18.436582 
L 96.124565 -18.436582 
L 94.178981 -18.436582 
L 92.233397 -18.436582 
L 90.287813 -18.436582 
L 88.342229 -18.436582 
L 86.396645 -18.436582 
L 84.451061 -18.436582 
L 82.505477 -18.436582 
L 80.559893 -18.436582 
L 78.614309 -18.436582 
L 76.668725 -18.436582 
L 74.723141 -18.436582 
L 72.777557 -18.436582 
L 70.831973 -18.436582 
L 68.886389 -18.436582 
L 66.940805 -18.436582 
L 64.995221 -18.436582 
z
" id="mae7a16b445" style="stroke:#65e5f3;stroke-opacity:0.75;"/>
    </defs>
    <g clip-path="url(#pdc53f8f7ba)">
     <use style="fill:#65e5f3;fill-opacity:0.75;stroke:#65e5f3;stroke-opacity:0.75;" x="0" xlink:href="#mae7a16b445" y="345.6"/>
    </g>
   </g>
   <g id="line2d_1">
    <path clip-path="url(#pdc53f8f7ba)" d="M 26.291127 322.27917 
L 28.63192 322.27917 
L 30.972713 322.14634 
L 33.313505 321.898283 
L 35.654298 321.508916 
L 37.995091 321.002392 
L 42.676676 319.646362 
L 47.358261 317.833055 
L 52.039847 315.617786 
L 56.721432 312.983538 
L 61.403018 310.016143 
L 66.084603 306.768812 
L 73.106981 301.583558 
L 82.470152 294.589361 
L 91.833323 287.906034 
L 112.900457 273.198991 
L 119.922835 267.908853 
L 124.60442 264.117096 
L 129.286006 260.108123 
L 133.967591 255.828301 
L 150.35314 240.348089 
L 155.034725 236.445879 
L 159.716311 233.000998 
L 164.397896 229.963007 
L 169.079481 227.218643 
L 180.783445 220.626895 
L 185.46503 217.681602 
L 192.487408 212.951568 
L 204.191372 204.914893 
L 211.21375 200.440224 
L 218.236128 196.354107 
L 222.917713 193.819364 
L 227.599299 191.531455 
L 232.280884 189.599211 
L 234.621677 188.817633 
L 236.962469 188.196596 
L 239.303262 187.70545 
L 241.644055 187.359249 
L 243.984848 187.177536 
L 246.32564 187.133603 
L 248.666433 187.269727 
L 251.007226 187.541448 
L 253.348018 187.966774 
L 255.688811 188.530736 
L 258.029604 189.214263 
L 260.370396 190.016252 
L 265.051982 191.939219 
L 269.733567 194.192964 
L 274.415152 196.728265 
L 279.096738 199.46796 
L 283.778323 202.411695 
L 290.800701 207.176759 
L 295.482287 210.67915 
L 300.163872 214.600448 
L 304.845457 219.055123 
L 309.527043 224.070507 
L 314.208628 229.604418 
L 318.890214 235.5658 
L 325.912592 245.061424 
L 337.616555 261.033277 
L 344.638933 270.164214 
L 349.320519 275.958266 
L 354.002104 281.408197 
L 358.683689 286.442097 
L 363.365275 291.060667 
L 368.04686 295.184778 
L 372.728446 298.802238 
L 377.410031 301.90564 
L 382.091616 304.598559 
L 386.773202 306.914028 
L 391.454787 308.945815 
L 396.136372 310.746534 
L 400.817958 312.387024 
L 407.840336 314.585819 
L 417.203507 317.231576 
L 426.566677 319.665451 
L 433.589055 321.314481 
L 440.611434 322.704805 
L 445.293019 323.444296 
L 449.974604 324.023518 
L 456.996982 324.608249 
L 464.01936 324.920845 
L 475.723324 325.116791 
L 492.108873 325.202867 
L 492.108873 325.202867 
" style="fill:none;stroke:#2a2eec;stroke-linecap:round;stroke-opacity:0;stroke-width:1.5;"/>
   </g>
   <g id="line2d_2">
    <path clip-path="url(#pdc53f8f7ba)" d="M 64.995221 326.261512 
L 78.614309 326.166891 
L 92.233397 325.833689 
L 100.015733 325.437615 
L 105.852485 324.906456 
L 109.743653 324.375196 
L 113.634821 323.62419 
L 117.525989 322.603014 
L 121.417157 321.271443 
L 125.308325 319.555408 
L 129.199493 317.401966 
L 133.090661 314.812514 
L 136.981829 311.739789 
L 140.872997 308.129605 
L 142.818581 306.116418 
L 146.709749 301.594707 
L 148.655333 299.064965 
L 150.600917 296.34854 
L 152.546501 293.398045 
L 154.492085 290.237911 
L 156.437669 286.813759 
L 158.383253 283.107889 
L 160.328837 279.100039 
L 162.274421 274.75467 
L 164.220005 270.054149 
L 166.165589 265.017412 
L 168.111173 259.589002 
L 170.056757 253.786343 
L 172.002341 247.587639 
L 175.893509 233.959592 
L 179.784677 218.732848 
L 183.675845 201.968039 
L 187.567013 183.745779 
L 191.458181 164.212071 
L 197.294933 133.317694 
L 203.131685 102.22751 
L 207.022853 82.685073 
L 208.968437 73.594804 
L 210.914021 65.045282 
L 212.859605 57.128668 
L 214.805189 49.863717 
L 216.750773 43.298662 
L 218.696357 37.486987 
L 220.641941 32.433254 
L 222.587525 28.143994 
L 224.533109 24.611921 
L 226.478693 21.880503 
L 228.424277 19.918116 
L 230.369861 18.751701 
L 232.315445 18.436582 
L 234.261029 18.93638 
L 236.206613 20.316001 
L 238.152197 22.604502 
L 240.097781 25.762625 
L 242.043365 29.802764 
L 243.988949 34.697082 
L 245.934533 40.426535 
L 247.880117 46.912794 
L 249.825701 54.085533 
L 251.771285 61.828603 
L 255.662453 78.757007 
L 259.553621 97.026405 
L 267.335957 135.138643 
L 273.172709 163.550297 
L 277.063877 181.802956 
L 280.955045 199.08608 
L 284.846213 215.169133 
L 288.737381 229.746852 
L 290.682965 236.447943 
L 292.628549 242.736633 
L 294.574133 248.644655 
L 296.519717 254.179622 
L 300.410885 264.238623 
L 302.356469 268.791305 
L 304.302053 273.057593 
L 308.193221 280.811882 
L 310.138805 284.358077 
L 314.029973 290.800603 
L 315.975557 293.751429 
L 319.866725 299.086957 
L 323.757893 303.736516 
L 327.649061 307.799319 
L 329.594645 309.625443 
L 333.485813 312.850949 
L 337.376982 315.586282 
L 341.26815 317.877089 
L 345.159318 319.749282 
L 349.050486 321.285605 
L 352.941654 322.4933 
L 356.832822 323.449859 
L 360.72399 324.191299 
L 366.560742 324.988093 
L 372.397494 325.53756 
L 380.17983 326.039965 
L 387.962166 326.361595 
L 399.63567 326.575856 
L 436.601766 326.940778 
L 452.166438 326.747771 
L 452.166438 326.747771 
" style="fill:none;stroke:#2a2eec;stroke-linecap:round;stroke-opacity:0;stroke-width:1.5;"/>
   </g>
   <g id="line2d_3"/>
   <g id="line2d_4"/>
   <g id="line2d_5"/>
   <g id="line2d_6"/>
   <g id="patch_3">
    <path d="M 3.00024 342.59976 
L 3.00024 3.00024 
" style="fill:none;"/>
   </g>
   <g id="patch_4">
    <path d="M 515.39976 342.59976 
L 515.39976 3.00024 
" style="fill:none;"/>
   </g>
   <g id="patch_5">
    <path d="M 3.00024 342.59976 
L 515.39976 342.59976 
" style="fill:none;"/>
   </g>
   <g id="patch_6">
    <path d="M 3.00024 3.00024 
L 515.39976 3.00024 
" style="fill:none;"/>
   </g>
   <g id="legend_1">
    <g id="line2d_7">
     <path d="M 317.76351 21.338053 
L 345.76351 21.338053 
" style="fill:none;stroke:#2a2eec;stroke-linecap:round;stroke-opacity:0;stroke-width:1.5;"/>
    </g>
    <g id="line2d_8"/>
    <g id="text_1">
     <!-- chain  0 BFMI = 0.22 -->
     <defs>
      <path d="M 48.78125 52.59375 
L 48.78125 44.1875 
Q 44.96875 46.296875 41.140625 47.34375 
Q 37.3125 48.390625 33.40625 48.390625 
Q 24.65625 48.390625 19.8125 42.84375 
Q 14.984375 37.3125 14.984375 27.296875 
Q 14.984375 17.28125 19.8125 11.734375 
Q 24.65625 6.203125 33.40625 6.203125 
Q 37.3125 6.203125 41.140625 7.25 
Q 44.96875 8.296875 48.78125 10.40625 
L 48.78125 2.09375 
Q 45.015625 0.34375 40.984375 -0.53125 
Q 36.96875 -1.421875 32.421875 -1.421875 
Q 20.0625 -1.421875 12.78125 6.34375 
Q 5.515625 14.109375 5.515625 27.296875 
Q 5.515625 40.671875 12.859375 48.328125 
Q 20.21875 56 33.015625 56 
Q 37.15625 56 41.109375 55.140625 
Q 45.0625 54.296875 48.78125 52.59375 
z
" id="DejaVuSans-99"/>
      <path d="M 54.890625 33.015625 
L 54.890625 0 
L 45.90625 0 
L 45.90625 32.71875 
Q 45.90625 40.484375 42.875 44.328125 
Q 39.84375 48.1875 33.796875 48.1875 
Q 26.515625 48.1875 22.3125 43.546875 
Q 18.109375 38.921875 18.109375 30.90625 
L 18.109375 0 
L 9.078125 0 
L 9.078125 75.984375 
L 18.109375 75.984375 
L 18.109375 46.1875 
Q 21.34375 51.125 25.703125 53.5625 
Q 30.078125 56 35.796875 56 
Q 45.21875 56 50.046875 50.171875 
Q 54.890625 44.34375 54.890625 33.015625 
z
" id="DejaVuSans-104"/>
      <path d="M 34.28125 27.484375 
Q 23.390625 27.484375 19.1875 25 
Q 14.984375 22.515625 14.984375 16.5 
Q 14.984375 11.71875 18.140625 8.90625 
Q 21.296875 6.109375 26.703125 6.109375 
Q 34.1875 6.109375 38.703125 11.40625 
Q 43.21875 16.703125 43.21875 25.484375 
L 43.21875 27.484375 
z
M 52.203125 31.203125 
L 52.203125 0 
L 43.21875 0 
L 43.21875 8.296875 
Q 40.140625 3.328125 35.546875 0.953125 
Q 30.953125 -1.421875 24.3125 -1.421875 
Q 15.921875 -1.421875 10.953125 3.296875 
Q 6 8.015625 6 15.921875 
Q 6 25.140625 12.171875 29.828125 
Q 18.359375 34.515625 30.609375 34.515625 
L 43.21875 34.515625 
L 43.21875 35.40625 
Q 43.21875 41.609375 39.140625 45 
Q 35.0625 48.390625 27.6875 48.390625 
Q 23 48.390625 18.546875 47.265625 
Q 14.109375 46.140625 10.015625 43.890625 
L 10.015625 52.203125 
Q 14.9375 54.109375 19.578125 55.046875 
Q 24.21875 56 28.609375 56 
Q 40.484375 56 46.34375 49.84375 
Q 52.203125 43.703125 52.203125 31.203125 
z
" id="DejaVuSans-97"/>
      <path d="M 9.421875 54.6875 
L 18.40625 54.6875 
L 18.40625 0 
L 9.421875 0 
z
M 9.421875 75.984375 
L 18.40625 75.984375 
L 18.40625 64.59375 
L 9.421875 64.59375 
z
" id="DejaVuSans-105"/>
      <path d="M 54.890625 33.015625 
L 54.890625 0 
L 45.90625 0 
L 45.90625 32.71875 
Q 45.90625 40.484375 42.875 44.328125 
Q 39.84375 48.1875 33.796875 48.1875 
Q 26.515625 48.1875 22.3125 43.546875 
Q 18.109375 38.921875 18.109375 30.90625 
L 18.109375 0 
L 9.078125 0 
L 9.078125 54.6875 
L 18.109375 54.6875 
L 18.109375 46.1875 
Q 21.34375 51.125 25.703125 53.5625 
Q 30.078125 56 35.796875 56 
Q 45.21875 56 50.046875 50.171875 
Q 54.890625 44.34375 54.890625 33.015625 
z
" id="DejaVuSans-110"/>
      <path id="DejaVuSans-32"/>
      <path d="M 31.78125 66.40625 
Q 24.171875 66.40625 20.328125 58.90625 
Q 16.5 51.421875 16.5 36.375 
Q 16.5 21.390625 20.328125 13.890625 
Q 24.171875 6.390625 31.78125 6.390625 
Q 39.453125 6.390625 43.28125 13.890625 
Q 47.125 21.390625 47.125 36.375 
Q 47.125 51.421875 43.28125 58.90625 
Q 39.453125 66.40625 31.78125 66.40625 
z
M 31.78125 74.21875 
Q 44.046875 74.21875 50.515625 64.515625 
Q 56.984375 54.828125 56.984375 36.375 
Q 56.984375 17.96875 50.515625 8.265625 
Q 44.046875 -1.421875 31.78125 -1.421875 
Q 19.53125 -1.421875 13.0625 8.265625 
Q 6.59375 17.96875 6.59375 36.375 
Q 6.59375 54.828125 13.0625 64.515625 
Q 19.53125 74.21875 31.78125 74.21875 
z
" id="DejaVuSans-48"/>
      <path d="M 19.671875 34.8125 
L 19.671875 8.109375 
L 35.5 8.109375 
Q 43.453125 8.109375 47.28125 11.40625 
Q 51.125 14.703125 51.125 21.484375 
Q 51.125 28.328125 47.28125 31.5625 
Q 43.453125 34.8125 35.5 34.8125 
z
M 19.671875 64.796875 
L 19.671875 42.828125 
L 34.28125 42.828125 
Q 41.5 42.828125 45.03125 45.53125 
Q 48.578125 48.25 48.578125 53.8125 
Q 48.578125 59.328125 45.03125 62.0625 
Q 41.5 64.796875 34.28125 64.796875 
z
M 9.8125 72.90625 
L 35.015625 72.90625 
Q 46.296875 72.90625 52.390625 68.21875 
Q 58.5 63.53125 58.5 54.890625 
Q 58.5 48.1875 55.375 44.234375 
Q 52.25 40.28125 46.1875 39.3125 
Q 53.46875 37.75 57.5 32.78125 
Q 61.53125 27.828125 61.53125 20.40625 
Q 61.53125 10.640625 54.890625 5.3125 
Q 48.25 0 35.984375 0 
L 9.8125 0 
z
" id="DejaVuSans-66"/>
      <path d="M 9.8125 72.90625 
L 51.703125 72.90625 
L 51.703125 64.59375 
L 19.671875 64.59375 
L 19.671875 43.109375 
L 48.578125 43.109375 
L 48.578125 34.8125 
L 19.671875 34.8125 
L 19.671875 0 
L 9.8125 0 
z
" id="DejaVuSans-70"/>
      <path d="M 9.8125 72.90625 
L 24.515625 72.90625 
L 43.109375 23.296875 
L 61.8125 72.90625 
L 76.515625 72.90625 
L 76.515625 0 
L 66.890625 0 
L 66.890625 64.015625 
L 48.09375 14.015625 
L 38.1875 14.015625 
L 19.390625 64.015625 
L 19.390625 0 
L 9.8125 0 
z
" id="DejaVuSans-77"/>
      <path d="M 9.8125 72.90625 
L 19.671875 72.90625 
L 19.671875 0 
L 9.8125 0 
z
" id="DejaVuSans-73"/>
      <path d="M 10.59375 45.40625 
L 73.1875 45.40625 
L 73.1875 37.203125 
L 10.59375 37.203125 
z
M 10.59375 25.484375 
L 73.1875 25.484375 
L 73.1875 17.1875 
L 10.59375 17.1875 
z
" id="DejaVuSans-61"/>
      <path d="M 10.6875 12.40625 
L 21 12.40625 
L 21 0 
L 10.6875 0 
z
" id="DejaVuSans-46"/>
      <path d="M 19.1875 8.296875 
L 53.609375 8.296875 
L 53.609375 0 
L 7.328125 0 
L 7.328125 8.296875 
Q 12.9375 14.109375 22.625 23.890625 
Q 32.328125 33.6875 34.8125 36.53125 
Q 39.546875 41.84375 41.421875 45.53125 
Q 43.3125 49.21875 43.3125 52.78125 
Q 43.3125 58.59375 39.234375 62.25 
Q 35.15625 65.921875 28.609375 65.921875 
Q 23.96875 65.921875 18.8125 64.3125 
Q 13.671875 62.703125 7.8125 59.421875 
L 7.8125 69.390625 
Q 13.765625 71.78125 18.9375 73 
Q 24.125 74.21875 28.421875 74.21875 
Q 39.75 74.21875 46.484375 68.546875 
Q 53.21875 62.890625 53.21875 53.421875 
Q 53.21875 48.921875 51.53125 44.890625 
Q 49.859375 40.875 45.40625 35.40625 
Q 44.1875 33.984375 37.640625 27.21875 
Q 31.109375 20.453125 19.1875 8.296875 
z
" id="DejaVuSans-50"/>
     </defs>
     <g style="fill:#262626;" transform="translate(356.96351 26.238053)scale(0.14 -0.14)">
      <use xlink:href="#DejaVuSans-99"/>
      <use x="54.980469" xlink:href="#DejaVuSans-104"/>
      <use x="118.359375" xlink:href="#DejaVuSans-97"/>
      <use x="179.638672" xlink:href="#DejaVuSans-105"/>
      <use x="207.421875" xlink:href="#DejaVuSans-110"/>
      <use x="270.800781" xlink:href="#DejaVuSans-32"/>
      <use x="302.587891" xlink:href="#DejaVuSans-32"/>
      <use x="334.375" xlink:href="#DejaVuSans-48"/>
      <use x="397.998047" xlink:href="#DejaVuSans-32"/>
      <use x="429.785156" xlink:href="#DejaVuSans-66"/>
      <use x="498.388672" xlink:href="#DejaVuSans-70"/>
      <use x="555.908203" xlink:href="#DejaVuSans-77"/>
      <use x="642.1875" xlink:href="#DejaVuSans-73"/>
      <use x="671.679688" xlink:href="#DejaVuSans-32"/>
      <use x="703.466797" xlink:href="#DejaVuSans-61"/>
      <use x="787.255859" xlink:href="#DejaVuSans-32"/>
      <use x="819.042969" xlink:href="#DejaVuSans-48"/>
      <use x="882.666016" xlink:href="#DejaVuSans-46"/>
      <use x="914.453125" xlink:href="#DejaVuSans-50"/>
      <use x="978.076172" xlink:href="#DejaVuSans-50"/>
     </g>
    </g>
    <g id="line2d_9">
     <path d="M 317.76351 41.887428 
L 345.76351 41.887428 
" style="fill:none;stroke:#fa7c17;stroke-linecap:round;stroke-opacity:0;stroke-width:1.5;"/>
    </g>
    <g id="line2d_10"/>
    <g id="text_2">
     <!-- chain  1 BFMI = 0.18 -->
     <defs>
      <path d="M 12.40625 8.296875 
L 28.515625 8.296875 
L 28.515625 63.921875 
L 10.984375 60.40625 
L 10.984375 69.390625 
L 28.421875 72.90625 
L 38.28125 72.90625 
L 38.28125 8.296875 
L 54.390625 8.296875 
L 54.390625 0 
L 12.40625 0 
z
" id="DejaVuSans-49"/>
      <path d="M 31.78125 34.625 
Q 24.75 34.625 20.71875 30.859375 
Q 16.703125 27.09375 16.703125 20.515625 
Q 16.703125 13.921875 20.71875 10.15625 
Q 24.75 6.390625 31.78125 6.390625 
Q 38.8125 6.390625 42.859375 10.171875 
Q 46.921875 13.96875 46.921875 20.515625 
Q 46.921875 27.09375 42.890625 30.859375 
Q 38.875 34.625 31.78125 34.625 
z
M 21.921875 38.8125 
Q 15.578125 40.375 12.03125 44.71875 
Q 8.5 49.078125 8.5 55.328125 
Q 8.5 64.0625 14.71875 69.140625 
Q 20.953125 74.21875 31.78125 74.21875 
Q 42.671875 74.21875 48.875 69.140625 
Q 55.078125 64.0625 55.078125 55.328125 
Q 55.078125 49.078125 51.53125 44.71875 
Q 48 40.375 41.703125 38.8125 
Q 48.828125 37.15625 52.796875 32.3125 
Q 56.78125 27.484375 56.78125 20.515625 
Q 56.78125 9.90625 50.3125 4.234375 
Q 43.84375 -1.421875 31.78125 -1.421875 
Q 19.734375 -1.421875 13.25 4.234375 
Q 6.78125 9.90625 6.78125 20.515625 
Q 6.78125 27.484375 10.78125 32.3125 
Q 14.796875 37.15625 21.921875 38.8125 
z
M 18.3125 54.390625 
Q 18.3125 48.734375 21.84375 45.5625 
Q 25.390625 42.390625 31.78125 42.390625 
Q 38.140625 42.390625 41.71875 45.5625 
Q 45.3125 48.734375 45.3125 54.390625 
Q 45.3125 60.0625 41.71875 63.234375 
Q 38.140625 66.40625 31.78125 66.40625 
Q 25.390625 66.40625 21.84375 63.234375 
Q 18.3125 60.0625 18.3125 54.390625 
z
" id="DejaVuSans-56"/>
     </defs>
     <g style="fill:#262626;" transform="translate(356.96351 46.787428)scale(0.14 -0.14)">
      <use xlink:href="#DejaVuSans-99"/>
      <use x="54.980469" xlink:href="#DejaVuSans-104"/>
      <use x="118.359375" xlink:href="#DejaVuSans-97"/>
      <use x="179.638672" xlink:href="#DejaVuSans-105"/>
      <use x="207.421875" xlink:href="#DejaVuSans-110"/>
      <use x="270.800781" xlink:href="#DejaVuSans-32"/>
      <use x="302.587891" xlink:href="#DejaVuSans-32"/>
      <use x="334.375" xlink:href="#DejaVuSans-49"/>
      <use x="397.998047" xlink:href="#DejaVuSans-32"/>
      <use x="429.785156" xlink:href="#DejaVuSans-66"/>
      <use x="498.388672" xlink:href="#DejaVuSans-70"/>
      <use x="555.908203" xlink:href="#DejaVuSans-77"/>
      <use x="642.1875" xlink:href="#DejaVuSans-73"/>
      <use x="671.679688" xlink:href="#DejaVuSans-32"/>
      <use x="703.466797" xlink:href="#DejaVuSans-61"/>
      <use x="787.255859" xlink:href="#DejaVuSans-32"/>
      <use x="819.042969" xlink:href="#DejaVuSans-48"/>
      <use x="882.666016" xlink:href="#DejaVuSans-46"/>
      <use x="914.453125" xlink:href="#DejaVuSans-49"/>
      <use x="978.076172" xlink:href="#DejaVuSans-56"/>
     </g>
    </g>
    <g id="line2d_11">
     <path d="M 317.76351 62.436803 
L 345.76351 62.436803 
" style="fill:none;stroke:#328c06;stroke-linecap:round;stroke-opacity:0;stroke-width:1.5;"/>
    </g>
    <g id="line2d_12"/>
    <g id="text_3">
     <!-- chain  2 BFMI = 0.22 -->
     <g style="fill:#262626;" transform="translate(356.96351 67.336803)scale(0.14 -0.14)">
      <use xlink:href="#DejaVuSans-99"/>
      <use x="54.980469" xlink:href="#DejaVuSans-104"/>
      <use x="118.359375" xlink:href="#DejaVuSans-97"/>
      <use x="179.638672" xlink:href="#DejaVuSans-105"/>
      <use x="207.421875" xlink:href="#DejaVuSans-110"/>
      <use x="270.800781" xlink:href="#DejaVuSans-32"/>
      <use x="302.587891" xlink:href="#DejaVuSans-32"/>
      <use x="334.375" xlink:href="#DejaVuSans-50"/>
      <use x="397.998047" xlink:href="#DejaVuSans-32"/>
      <use x="429.785156" xlink:href="#DejaVuSans-66"/>
      <use x="498.388672" xlink:href="#DejaVuSans-70"/>
      <use x="555.908203" xlink:href="#DejaVuSans-77"/>
      <use x="642.1875" xlink:href="#DejaVuSans-73"/>
      <use x="671.679688" xlink:href="#DejaVuSans-32"/>
      <use x="703.466797" xlink:href="#DejaVuSans-61"/>
      <use x="787.255859" xlink:href="#DejaVuSans-32"/>
      <use x="819.042969" xlink:href="#DejaVuSans-48"/>
      <use x="882.666016" xlink:href="#DejaVuSans-46"/>
      <use x="914.453125" xlink:href="#DejaVuSans-50"/>
      <use x="978.076172" xlink:href="#DejaVuSans-50"/>
     </g>
    </g>
    <g id="line2d_13">
     <path d="M 317.76351 82.986178 
L 345.76351 82.986178 
" style="fill:none;stroke:#c10c90;stroke-linecap:round;stroke-opacity:0;stroke-width:1.5;"/>
    </g>
    <g id="line2d_14"/>
    <g id="text_4">
     <!-- chain  3 BFMI = 0.34 -->
     <defs>
      <path d="M 40.578125 39.3125 
Q 47.65625 37.796875 51.625 33 
Q 55.609375 28.21875 55.609375 21.1875 
Q 55.609375 10.40625 48.1875 4.484375 
Q 40.765625 -1.421875 27.09375 -1.421875 
Q 22.515625 -1.421875 17.65625 -0.515625 
Q 12.796875 0.390625 7.625 2.203125 
L 7.625 11.71875 
Q 11.71875 9.328125 16.59375 8.109375 
Q 21.484375 6.890625 26.8125 6.890625 
Q 36.078125 6.890625 40.9375 10.546875 
Q 45.796875 14.203125 45.796875 21.1875 
Q 45.796875 27.640625 41.28125 31.265625 
Q 36.765625 34.90625 28.71875 34.90625 
L 20.21875 34.90625 
L 20.21875 43.015625 
L 29.109375 43.015625 
Q 36.375 43.015625 40.234375 45.921875 
Q 44.09375 48.828125 44.09375 54.296875 
Q 44.09375 59.90625 40.109375 62.90625 
Q 36.140625 65.921875 28.71875 65.921875 
Q 24.65625 65.921875 20.015625 65.03125 
Q 15.375 64.15625 9.8125 62.3125 
L 9.8125 71.09375 
Q 15.4375 72.65625 20.34375 73.4375 
Q 25.25 74.21875 29.59375 74.21875 
Q 40.828125 74.21875 47.359375 69.109375 
Q 53.90625 64.015625 53.90625 55.328125 
Q 53.90625 49.265625 50.4375 45.09375 
Q 46.96875 40.921875 40.578125 39.3125 
z
" id="DejaVuSans-51"/>
      <path d="M 37.796875 64.3125 
L 12.890625 25.390625 
L 37.796875 25.390625 
z
M 35.203125 72.90625 
L 47.609375 72.90625 
L 47.609375 25.390625 
L 58.015625 25.390625 
L 58.015625 17.1875 
L 47.609375 17.1875 
L 47.609375 0 
L 37.796875 0 
L 37.796875 17.1875 
L 4.890625 17.1875 
L 4.890625 26.703125 
z
" id="DejaVuSans-52"/>
     </defs>
     <g style="fill:#262626;" transform="translate(356.96351 87.886178)scale(0.14 -0.14)">
      <use xlink:href="#DejaVuSans-99"/>
      <use x="54.980469" xlink:href="#DejaVuSans-104"/>
      <use x="118.359375" xlink:href="#DejaVuSans-97"/>
      <use x="179.638672" xlink:href="#DejaVuSans-105"/>
      <use x="207.421875" xlink:href="#DejaVuSans-110"/>
      <use x="270.800781" xlink:href="#DejaVuSans-32"/>
      <use x="302.587891" xlink:href="#DejaVuSans-32"/>
      <use x="334.375" xlink:href="#DejaVuSans-51"/>
      <use x="397.998047" xlink:href="#DejaVuSans-32"/>
      <use x="429.785156" xlink:href="#DejaVuSans-66"/>
      <use x="498.388672" xlink:href="#DejaVuSans-70"/>
      <use x="555.908203" xlink:href="#DejaVuSans-77"/>
      <use x="642.1875" xlink:href="#DejaVuSans-73"/>
      <use x="671.679688" xlink:href="#DejaVuSans-32"/>
      <use x="703.466797" xlink:href="#DejaVuSans-61"/>
      <use x="787.255859" xlink:href="#DejaVuSans-32"/>
      <use x="819.042969" xlink:href="#DejaVuSans-48"/>
      <use x="882.666016" xlink:href="#DejaVuSans-46"/>
      <use x="914.453125" xlink:href="#DejaVuSans-51"/>
      <use x="978.076172" xlink:href="#DejaVuSans-52"/>
     </g>
    </g>
    <g id="patch_7">
     <path d="M 317.76351 108.435553 
L 345.76351 108.435553 
L 345.76351 98.635553 
L 317.76351 98.635553 
z
" style="fill:#2a2eec;stroke:#2a2eec;stroke-linejoin:miter;"/>
    </g>
    <g id="text_5">
     <!-- Marginal Energy -->
     <defs>
      <path d="M 41.109375 46.296875 
Q 39.59375 47.171875 37.8125 47.578125 
Q 36.03125 48 33.890625 48 
Q 26.265625 48 22.1875 43.046875 
Q 18.109375 38.09375 18.109375 28.8125 
L 18.109375 0 
L 9.078125 0 
L 9.078125 54.6875 
L 18.109375 54.6875 
L 18.109375 46.1875 
Q 20.953125 51.171875 25.484375 53.578125 
Q 30.03125 56 36.53125 56 
Q 37.453125 56 38.578125 55.875 
Q 39.703125 55.765625 41.0625 55.515625 
z
" id="DejaVuSans-114"/>
      <path d="M 45.40625 27.984375 
Q 45.40625 37.75 41.375 43.109375 
Q 37.359375 48.484375 30.078125 48.484375 
Q 22.859375 48.484375 18.828125 43.109375 
Q 14.796875 37.75 14.796875 27.984375 
Q 14.796875 18.265625 18.828125 12.890625 
Q 22.859375 7.515625 30.078125 7.515625 
Q 37.359375 7.515625 41.375 12.890625 
Q 45.40625 18.265625 45.40625 27.984375 
z
M 54.390625 6.78125 
Q 54.390625 -7.171875 48.1875 -13.984375 
Q 42 -20.796875 29.203125 -20.796875 
Q 24.46875 -20.796875 20.265625 -20.09375 
Q 16.0625 -19.390625 12.109375 -17.921875 
L 12.109375 -9.1875 
Q 16.0625 -11.328125 19.921875 -12.34375 
Q 23.78125 -13.375 27.78125 -13.375 
Q 36.625 -13.375 41.015625 -8.765625 
Q 45.40625 -4.15625 45.40625 5.171875 
L 45.40625 9.625 
Q 42.625 4.78125 38.28125 2.390625 
Q 33.9375 0 27.875 0 
Q 17.828125 0 11.671875 7.65625 
Q 5.515625 15.328125 5.515625 27.984375 
Q 5.515625 40.671875 11.671875 48.328125 
Q 17.828125 56 27.875 56 
Q 33.9375 56 38.28125 53.609375 
Q 42.625 51.21875 45.40625 46.390625 
L 45.40625 54.6875 
L 54.390625 54.6875 
z
" id="DejaVuSans-103"/>
      <path d="M 9.421875 75.984375 
L 18.40625 75.984375 
L 18.40625 0 
L 9.421875 0 
z
" id="DejaVuSans-108"/>
      <path d="M 9.8125 72.90625 
L 55.90625 72.90625 
L 55.90625 64.59375 
L 19.671875 64.59375 
L 19.671875 43.015625 
L 54.390625 43.015625 
L 54.390625 34.71875 
L 19.671875 34.71875 
L 19.671875 8.296875 
L 56.78125 8.296875 
L 56.78125 0 
L 9.8125 0 
z
" id="DejaVuSans-69"/>
      <path d="M 56.203125 29.59375 
L 56.203125 25.203125 
L 14.890625 25.203125 
Q 15.484375 15.921875 20.484375 11.0625 
Q 25.484375 6.203125 34.421875 6.203125 
Q 39.59375 6.203125 44.453125 7.46875 
Q 49.3125 8.734375 54.109375 11.28125 
L 54.109375 2.78125 
Q 49.265625 0.734375 44.1875 -0.34375 
Q 39.109375 -1.421875 33.890625 -1.421875 
Q 20.796875 -1.421875 13.15625 6.1875 
Q 5.515625 13.8125 5.515625 26.8125 
Q 5.515625 40.234375 12.765625 48.109375 
Q 20.015625 56 32.328125 56 
Q 43.359375 56 49.78125 48.890625 
Q 56.203125 41.796875 56.203125 29.59375 
z
M 47.21875 32.234375 
Q 47.125 39.59375 43.09375 43.984375 
Q 39.0625 48.390625 32.421875 48.390625 
Q 24.90625 48.390625 20.390625 44.140625 
Q 15.875 39.890625 15.1875 32.171875 
z
" id="DejaVuSans-101"/>
      <path d="M 32.171875 -5.078125 
Q 28.375 -14.84375 24.75 -17.8125 
Q 21.140625 -20.796875 15.09375 -20.796875 
L 7.90625 -20.796875 
L 7.90625 -13.28125 
L 13.1875 -13.28125 
Q 16.890625 -13.28125 18.9375 -11.515625 
Q 21 -9.765625 23.484375 -3.21875 
L 25.09375 0.875 
L 2.984375 54.6875 
L 12.5 54.6875 
L 29.59375 11.921875 
L 46.6875 54.6875 
L 56.203125 54.6875 
z
" id="DejaVuSans-121"/>
     </defs>
     <g style="fill:#262626;" transform="translate(356.96351 108.435553)scale(0.14 -0.14)">
      <use xlink:href="#DejaVuSans-77"/>
      <use x="86.279297" xlink:href="#DejaVuSans-97"/>
      <use x="147.558594" xlink:href="#DejaVuSans-114"/>
      <use x="188.65625" xlink:href="#DejaVuSans-103"/>
      <use x="252.132812" xlink:href="#DejaVuSans-105"/>
      <use x="279.916016" xlink:href="#DejaVuSans-110"/>
      <use x="343.294922" xlink:href="#DejaVuSans-97"/>
      <use x="404.574219" xlink:href="#DejaVuSans-108"/>
      <use x="432.357422" xlink:href="#DejaVuSans-32"/>
      <use x="464.144531" xlink:href="#DejaVuSans-69"/>
      <use x="527.328125" xlink:href="#DejaVuSans-110"/>
      <use x="590.707031" xlink:href="#DejaVuSans-101"/>
      <use x="652.230469" xlink:href="#DejaVuSans-114"/>
      <use x="693.328125" xlink:href="#DejaVuSans-103"/>
      <use x="756.804688" xlink:href="#DejaVuSans-121"/>
     </g>
    </g>
    <g id="patch_8">
     <path d="M 317.76351 128.984928 
L 345.76351 128.984928 
L 345.76351 119.184928 
L 317.76351 119.184928 
z
" style="fill:#65e5f3;opacity:0.75;stroke:#65e5f3;stroke-linejoin:miter;"/>
    </g>
    <g id="text_6">
     <!-- Energy transition -->
     <defs>
      <path d="M 18.3125 70.21875 
L 18.3125 54.6875 
L 36.8125 54.6875 
L 36.8125 47.703125 
L 18.3125 47.703125 
L 18.3125 18.015625 
Q 18.3125 11.328125 20.140625 9.421875 
Q 21.96875 7.515625 27.59375 7.515625 
L 36.8125 7.515625 
L 36.8125 0 
L 27.59375 0 
Q 17.1875 0 13.234375 3.875 
Q 9.28125 7.765625 9.28125 18.015625 
L 9.28125 47.703125 
L 2.6875 47.703125 
L 2.6875 54.6875 
L 9.28125 54.6875 
L 9.28125 70.21875 
z
" id="DejaVuSans-116"/>
      <path d="M 44.28125 53.078125 
L 44.28125 44.578125 
Q 40.484375 46.53125 36.375 47.5 
Q 32.28125 48.484375 27.875 48.484375 
Q 21.1875 48.484375 17.84375 46.4375 
Q 14.5 44.390625 14.5 40.28125 
Q 14.5 37.15625 16.890625 35.375 
Q 19.28125 33.59375 26.515625 31.984375 
L 29.59375 31.296875 
Q 39.15625 29.25 43.1875 25.515625 
Q 47.21875 21.78125 47.21875 15.09375 
Q 47.21875 7.46875 41.1875 3.015625 
Q 35.15625 -1.421875 24.609375 -1.421875 
Q 20.21875 -1.421875 15.453125 -0.5625 
Q 10.6875 0.296875 5.421875 2 
L 5.421875 11.28125 
Q 10.40625 8.6875 15.234375 7.390625 
Q 20.0625 6.109375 24.8125 6.109375 
Q 31.15625 6.109375 34.5625 8.28125 
Q 37.984375 10.453125 37.984375 14.40625 
Q 37.984375 18.0625 35.515625 20.015625 
Q 33.0625 21.96875 24.703125 23.78125 
L 21.578125 24.515625 
Q 13.234375 26.265625 9.515625 29.90625 
Q 5.8125 33.546875 5.8125 39.890625 
Q 5.8125 47.609375 11.28125 51.796875 
Q 16.75 56 26.8125 56 
Q 31.78125 56 36.171875 55.265625 
Q 40.578125 54.546875 44.28125 53.078125 
z
" id="DejaVuSans-115"/>
      <path d="M 30.609375 48.390625 
Q 23.390625 48.390625 19.1875 42.75 
Q 14.984375 37.109375 14.984375 27.296875 
Q 14.984375 17.484375 19.15625 11.84375 
Q 23.34375 6.203125 30.609375 6.203125 
Q 37.796875 6.203125 41.984375 11.859375 
Q 46.1875 17.53125 46.1875 27.296875 
Q 46.1875 37.015625 41.984375 42.703125 
Q 37.796875 48.390625 30.609375 48.390625 
z
M 30.609375 56 
Q 42.328125 56 49.015625 48.375 
Q 55.71875 40.765625 55.71875 27.296875 
Q 55.71875 13.875 49.015625 6.21875 
Q 42.328125 -1.421875 30.609375 -1.421875 
Q 18.84375 -1.421875 12.171875 6.21875 
Q 5.515625 13.875 5.515625 27.296875 
Q 5.515625 40.765625 12.171875 48.375 
Q 18.84375 56 30.609375 56 
z
" id="DejaVuSans-111"/>
     </defs>
     <g style="fill:#262626;" transform="translate(356.96351 128.984928)scale(0.14 -0.14)">
      <use xlink:href="#DejaVuSans-69"/>
      <use x="63.183594" xlink:href="#DejaVuSans-110"/>
      <use x="126.5625" xlink:href="#DejaVuSans-101"/>
      <use x="188.085938" xlink:href="#DejaVuSans-114"/>
      <use x="229.183594" xlink:href="#DejaVuSans-103"/>
      <use x="292.660156" xlink:href="#DejaVuSans-121"/>
      <use x="351.839844" xlink:href="#DejaVuSans-32"/>
      <use x="383.626953" xlink:href="#DejaVuSans-116"/>
      <use x="422.835938" xlink:href="#DejaVuSans-114"/>
      <use x="463.949219" xlink:href="#DejaVuSans-97"/>
      <use x="525.228516" xlink:href="#DejaVuSans-110"/>
      <use x="588.607422" xlink:href="#DejaVuSans-115"/>
      <use x="640.707031" xlink:href="#DejaVuSans-105"/>
      <use x="668.490234" xlink:href="#DejaVuSans-116"/>
      <use x="707.699219" xlink:href="#DejaVuSans-105"/>
      <use x="735.482422" xlink:href="#DejaVuSans-111"/>
      <use x="796.664062" xlink:href="#DejaVuSans-110"/>
     </g>
    </g>
   </g>
  </g>
 </g>
 <defs>
  <clipPath id="pdc53f8f7ba">
   <rect height="339.59952" width="512.39952" x="3.00024" y="3.00024"/>
  </clipPath>
 </defs>
</svg>
