<?xml version="1.0" encoding="utf-8" standalone="no"?>
<!DOCTYPE svg PUBLIC "-//W3C//DTD SVG 1.1//EN"
  "http://www.w3.org/Graphics/SVG/1.1/DTD/svg11.dtd">
<!-- Created with matplotlib (https://matplotlib.org/) -->
<svg height="397.44pt" version="1.1" viewBox="0 0 1192.32 397.44" width="1192.32pt" xmlns="http://www.w3.org/2000/svg" xmlns:xlink="http://www.w3.org/1999/xlink">
 <defs>
  <style type="text/css">
*{stroke-linecap:butt;stroke-linejoin:round;}
  </style>
 </defs>
 <g id="figure_1">
  <g id="patch_1">
   <path d="M 0 397.44 
L 1192.32 397.44 
L 1192.32 0 
L 0 0 
z
" style="fill:#ffffff;"/>
  </g>
  <g id="axes_1">
   <g id="patch_2">
    <path d="M 3.00024 377.390385 
L 585.151116 377.390385 
L 585.151116 21.15774 
L 3.00024 21.15774 
z
" style="fill:#eeeeee;"/>
   </g>
   <g id="matplotlib.axis_1">
    <g id="xtick_1">
     <g id="line2d_1">
      <path clip-path="url(#pf4e109d896)" d="M 66.446079 377.390385 
L 66.446079 21.15774 
" style="fill:none;stroke:#ffffff;stroke-linecap:round;stroke-width:0.8;"/>
     </g>
     <g id="line2d_2"/>
     <g id="text_1">
      <!-- −2 -->
      <defs>
       <path d="M 10.59375 35.5 
L 73.1875 35.5 
L 73.1875 27.203125 
L 10.59375 27.203125 
z
" id="DejaVuSans-8722"/>
       <path d="M 19.1875 8.296875 
L 53.609375 8.296875 
L 53.609375 0 
L 7.328125 0 
L 7.328125 8.296875 
Q 12.9375 14.109375 22.625 23.890625 
Q 32.328125 33.6875 34.8125 36.53125 
Q 39.546875 41.84375 41.421875 45.53125 
Q 43.3125 49.21875 43.3125 52.78125 
Q 43.3125 58.59375 39.234375 62.25 
Q 35.15625 65.921875 28.609375 65.921875 
Q 23.96875 65.921875 18.8125 64.3125 
Q 13.671875 62.703125 7.8125 59.421875 
L 7.8125 69.390625 
Q 13.765625 71.78125 18.9375 73 
Q 24.125 74.21875 28.421875 74.21875 
Q 39.75 74.21875 46.484375 68.546875 
Q 53.21875 62.890625 53.21875 53.421875 
Q 53.21875 48.921875 51.53125 44.890625 
Q 49.859375 40.875 45.40625 35.40625 
Q 44.1875 33.984375 37.640625 27.21875 
Q 31.109375 20.453125 19.1875 8.296875 
z
" id="DejaVuSans-50"/>
      </defs>
      <g style="fill:#262626;" transform="translate(56.126548 391.528197)scale(0.14 -0.14)">
       <use xlink:href="#DejaVuSans-8722"/>
       <use x="83.789062" xlink:href="#DejaVuSans-50"/>
      </g>
     </g>
    </g>
    <g id="xtick_2">
     <g id="line2d_3">
      <path clip-path="url(#pf4e109d896)" d="M 146.765834 377.390385 
L 146.765834 21.15774 
" style="fill:none;stroke:#ffffff;stroke-linecap:round;stroke-width:0.8;"/>
     </g>
     <g id="line2d_4"/>
     <g id="text_2">
      <!-- 0 -->
      <defs>
       <path d="M 31.78125 66.40625 
Q 24.171875 66.40625 20.328125 58.90625 
Q 16.5 51.421875 16.5 36.375 
Q 16.5 21.390625 20.328125 13.890625 
Q 24.171875 6.390625 31.78125 6.390625 
Q 39.453125 6.390625 43.28125 13.890625 
Q 47.125 21.390625 47.125 36.375 
Q 47.125 51.421875 43.28125 58.90625 
Q 39.453125 66.40625 31.78125 66.40625 
z
M 31.78125 74.21875 
Q 44.046875 74.21875 50.515625 64.515625 
Q 56.984375 54.828125 56.984375 36.375 
Q 56.984375 17.96875 50.515625 8.265625 
Q 44.046875 -1.421875 31.78125 -1.421875 
Q 19.53125 -1.421875 13.0625 8.265625 
Q 6.59375 17.96875 6.59375 36.375 
Q 6.59375 54.828125 13.0625 64.515625 
Q 19.53125 74.21875 31.78125 74.21875 
z
" id="DejaVuSans-48"/>
      </defs>
      <g style="fill:#262626;" transform="translate(142.312084 391.528197)scale(0.14 -0.14)">
       <use xlink:href="#DejaVuSans-48"/>
      </g>
     </g>
    </g>
    <g id="xtick_3">
     <g id="line2d_5">
      <path clip-path="url(#pf4e109d896)" d="M 227.085589 377.390385 
L 227.085589 21.15774 
" style="fill:none;stroke:#ffffff;stroke-linecap:round;stroke-width:0.8;"/>
     </g>
     <g id="line2d_6"/>
     <g id="text_3">
      <!-- 2 -->
      <g style="fill:#262626;" transform="translate(222.631839 391.528197)scale(0.14 -0.14)">
       <use xlink:href="#DejaVuSans-50"/>
      </g>
     </g>
    </g>
    <g id="xtick_4">
     <g id="line2d_7">
      <path clip-path="url(#pf4e109d896)" d="M 307.405344 377.390385 
L 307.405344 21.15774 
" style="fill:none;stroke:#ffffff;stroke-linecap:round;stroke-width:0.8;"/>
     </g>
     <g id="line2d_8"/>
     <g id="text_4">
      <!-- 4 -->
      <defs>
       <path d="M 37.796875 64.3125 
L 12.890625 25.390625 
L 37.796875 25.390625 
z
M 35.203125 72.90625 
L 47.609375 72.90625 
L 47.609375 25.390625 
L 58.015625 25.390625 
L 58.015625 17.1875 
L 47.609375 17.1875 
L 47.609375 0 
L 37.796875 0 
L 37.796875 17.1875 
L 4.890625 17.1875 
L 4.890625 26.703125 
z
" id="DejaVuSans-52"/>
      </defs>
      <g style="fill:#262626;" transform="translate(302.951594 391.528197)scale(0.14 -0.14)">
       <use xlink:href="#DejaVuSans-52"/>
      </g>
     </g>
    </g>
    <g id="xtick_5">
     <g id="line2d_9">
      <path clip-path="url(#pf4e109d896)" d="M 387.725098 377.390385 
L 387.725098 21.15774 
" style="fill:none;stroke:#ffffff;stroke-linecap:round;stroke-width:0.8;"/>
     </g>
     <g id="line2d_10"/>
     <g id="text_5">
      <!-- 6 -->
      <defs>
       <path d="M 33.015625 40.375 
Q 26.375 40.375 22.484375 35.828125 
Q 18.609375 31.296875 18.609375 23.390625 
Q 18.609375 15.53125 22.484375 10.953125 
Q 26.375 6.390625 33.015625 6.390625 
Q 39.65625 6.390625 43.53125 10.953125 
Q 47.40625 15.53125 47.40625 23.390625 
Q 47.40625 31.296875 43.53125 35.828125 
Q 39.65625 40.375 33.015625 40.375 
z
M 52.59375 71.296875 
L 52.59375 62.3125 
Q 48.875 64.0625 45.09375 64.984375 
Q 41.3125 65.921875 37.59375 65.921875 
Q 27.828125 65.921875 22.671875 59.328125 
Q 17.53125 52.734375 16.796875 39.40625 
Q 19.671875 43.65625 24.015625 45.921875 
Q 28.375 48.1875 33.59375 48.1875 
Q 44.578125 48.1875 50.953125 41.515625 
Q 57.328125 34.859375 57.328125 23.390625 
Q 57.328125 12.15625 50.6875 5.359375 
Q 44.046875 -1.421875 33.015625 -1.421875 
Q 20.359375 -1.421875 13.671875 8.265625 
Q 6.984375 17.96875 6.984375 36.375 
Q 6.984375 53.65625 15.1875 63.9375 
Q 23.390625 74.21875 37.203125 74.21875 
Q 40.921875 74.21875 44.703125 73.484375 
Q 48.484375 72.75 52.59375 71.296875 
z
" id="DejaVuSans-54"/>
      </defs>
      <g style="fill:#262626;" transform="translate(383.271348 391.528197)scale(0.14 -0.14)">
       <use xlink:href="#DejaVuSans-54"/>
      </g>
     </g>
    </g>
    <g id="xtick_6">
     <g id="line2d_11">
      <path clip-path="url(#pf4e109d896)" d="M 468.044853 377.390385 
L 468.044853 21.15774 
" style="fill:none;stroke:#ffffff;stroke-linecap:round;stroke-width:0.8;"/>
     </g>
     <g id="line2d_12"/>
     <g id="text_6">
      <!-- 8 -->
      <defs>
       <path d="M 31.78125 34.625 
Q 24.75 34.625 20.71875 30.859375 
Q 16.703125 27.09375 16.703125 20.515625 
Q 16.703125 13.921875 20.71875 10.15625 
Q 24.75 6.390625 31.78125 6.390625 
Q 38.8125 6.390625 42.859375 10.171875 
Q 46.921875 13.96875 46.921875 20.515625 
Q 46.921875 27.09375 42.890625 30.859375 
Q 38.875 34.625 31.78125 34.625 
z
M 21.921875 38.8125 
Q 15.578125 40.375 12.03125 44.71875 
Q 8.5 49.078125 8.5 55.328125 
Q 8.5 64.0625 14.71875 69.140625 
Q 20.953125 74.21875 31.78125 74.21875 
Q 42.671875 74.21875 48.875 69.140625 
Q 55.078125 64.0625 55.078125 55.328125 
Q 55.078125 49.078125 51.53125 44.71875 
Q 48 40.375 41.703125 38.8125 
Q 48.828125 37.15625 52.796875 32.3125 
Q 56.78125 27.484375 56.78125 20.515625 
Q 56.78125 9.90625 50.3125 4.234375 
Q 43.84375 -1.421875 31.78125 -1.421875 
Q 19.734375 -1.421875 13.25 4.234375 
Q 6.78125 9.90625 6.78125 20.515625 
Q 6.78125 27.484375 10.78125 32.3125 
Q 14.796875 37.15625 21.921875 38.8125 
z
M 18.3125 54.390625 
Q 18.3125 48.734375 21.84375 45.5625 
Q 25.390625 42.390625 31.78125 42.390625 
Q 38.140625 42.390625 41.71875 45.5625 
Q 45.3125 48.734375 45.3125 54.390625 
Q 45.3125 60.0625 41.71875 63.234375 
Q 38.140625 66.40625 31.78125 66.40625 
Q 25.390625 66.40625 21.84375 63.234375 
Q 18.3125 60.0625 18.3125 54.390625 
z
" id="DejaVuSans-56"/>
      </defs>
      <g style="fill:#262626;" transform="translate(463.591103 391.528197)scale(0.14 -0.14)">
       <use xlink:href="#DejaVuSans-56"/>
      </g>
     </g>
    </g>
    <g id="xtick_7">
     <g id="line2d_13">
      <path clip-path="url(#pf4e109d896)" d="M 548.364608 377.390385 
L 548.364608 21.15774 
" style="fill:none;stroke:#ffffff;stroke-linecap:round;stroke-width:0.8;"/>
     </g>
     <g id="line2d_14"/>
     <g id="text_7">
      <!-- 10 -->
      <defs>
       <path d="M 12.40625 8.296875 
L 28.515625 8.296875 
L 28.515625 63.921875 
L 10.984375 60.40625 
L 10.984375 69.390625 
L 28.421875 72.90625 
L 38.28125 72.90625 
L 38.28125 8.296875 
L 54.390625 8.296875 
L 54.390625 0 
L 12.40625 0 
z
" id="DejaVuSans-49"/>
      </defs>
      <g style="fill:#262626;" transform="translate(539.457108 391.528197)scale(0.14 -0.14)">
       <use xlink:href="#DejaVuSans-49"/>
       <use x="63.623047" xlink:href="#DejaVuSans-48"/>
      </g>
     </g>
    </g>
   </g>
   <g id="matplotlib.axis_2"/>
   <g id="line2d_15">
    <path clip-path="url(#pf4e109d896)" d="M 29.461643 170.213568 
L 32.121081 170.213568 
L 34.780519 172.575635 
L 37.439956 177.157091 
L 40.099394 183.708086 
L 42.758831 191.893927 
L 45.418269 201.287479 
L 50.737144 221.815817 
L 53.396581 232.142321 
L 56.056019 241.9386 
L 58.715456 250.941614 
L 61.374894 258.971614 
L 64.034331 265.948485 
L 66.693769 271.783619 
L 69.353206 276.551025 
L 72.012644 280.273853 
L 74.672082 283.09183 
L 77.331519 285.118552 
L 79.990957 286.503139 
L 85.309832 287.97526 
L 87.969269 287.6507 
L 90.628707 287.047583 
L 93.288144 286.116447 
L 95.947582 285.392495 
L 98.607019 283.693789 
L 101.266457 281.785695 
L 103.925894 279.565765 
L 106.585332 277.061573 
L 109.244769 274.315897 
L 111.904207 271.35385 
L 117.223082 264.72898 
L 122.541957 257.501314 
L 127.860832 249.956893 
L 151.79577 214.953563 
L 159.774083 202.40426 
L 167.752395 189.16168 
L 175.730708 175.552364 
L 181.049583 166.882774 
L 186.368458 158.976696 
L 189.027895 155.477922 
L 191.687333 152.23489 
L 194.346771 149.378629 
L 197.006208 146.922111 
L 199.665646 144.746339 
L 202.325083 142.914456 
L 204.984521 141.37754 
L 207.643958 140.033532 
L 212.962833 137.786563 
L 218.281708 135.887419 
L 220.941146 134.779738 
L 223.600583 133.468395 
L 226.260021 131.930865 
L 228.919458 130.039863 
L 231.578896 127.940051 
L 234.238333 125.488699 
L 236.897771 122.702042 
L 239.557209 119.651305 
L 242.216646 116.311259 
L 247.535521 109.094714 
L 260.832709 89.607024 
L 266.151584 82.512048 
L 268.811021 79.132942 
L 276.789334 69.820844 
L 284.767647 61.440139 
L 290.086522 56.368634 
L 295.405397 51.946049 
L 300.724272 48.355969 
L 303.383709 47.136968 
L 306.043147 46.159292 
L 308.702584 45.532223 
L 311.362022 45.186003 
L 314.021459 45.034006 
L 327.318647 45.814386 
L 329.978085 45.642069 
L 332.637522 45.179109 
L 335.29696 44.391021 
L 337.956397 43.436579 
L 340.615835 42.356694 
L 345.93471 39.978329 
L 348.594147 38.860424 
L 351.253585 37.96631 
L 353.913022 37.459888 
L 356.57246 37.350133 
L 359.231898 37.781676 
L 361.891335 38.728133 
L 364.550773 40.16083 
L 367.21021 42.165303 
L 369.869648 44.515179 
L 375.188523 50.063057 
L 388.48571 64.562024 
L 399.123461 75.349056 
L 401.782898 78.370349 
L 404.442336 81.665052 
L 407.101773 85.249838 
L 409.761211 89.250127 
L 412.420648 93.694368 
L 415.080086 98.45588 
L 423.058398 114.877052 
L 431.036711 132.007853 
L 436.355586 142.631227 
L 439.015024 147.49539 
L 441.674461 152.101746 
L 444.333899 156.364823 
L 446.993336 160.394262 
L 452.312211 167.710505 
L 457.631086 174.444597 
L 465.609399 184.425655 
L 470.928274 191.501264 
L 476.247149 199.035506 
L 481.566024 207.06832 
L 497.522649 231.663131 
L 500.182087 235.46404 
L 505.500962 242.504439 
L 508.160399 245.778657 
L 513.479274 251.585235 
L 516.138712 254.22099 
L 521.457587 258.978208 
L 526.776462 263.341546 
L 532.095337 267.323897 
L 537.414212 271.004914 
L 542.733087 274.318071 
L 545.392525 275.747232 
L 548.051962 277.020683 
L 550.7114 278.073555 
L 553.370837 278.96702 
L 556.030275 279.555154 
L 558.689713 279.934475 
L 558.689713 279.934475 
" style="fill:none;stroke:#2a2eec;stroke-linecap:round;stroke-width:1.5;"/>
   </g>
   <g id="line2d_16">
    <path clip-path="url(#pf4e109d896)" d="M 29.461643 361.197992 
L 29.461643 170.213568 
" style="fill:none;stroke:#2a2eec;stroke-linecap:round;stroke-width:1.5;"/>
   </g>
   <g id="line2d_17">
    <path clip-path="url(#pf4e109d896)" d="M 558.689713 360.100783 
L 558.689713 279.934475 
" style="fill:none;stroke:#2a2eec;stroke-linecap:round;stroke-width:1.5;"/>
   </g>
   <g id="line2d_18">
    <defs>
     <path d="M 0 3 
C 0.795609 3 1.55874 2.683901 2.12132 2.12132 
C 2.683901 1.55874 3 0.795609 3 0 
C 3 -0.795609 2.683901 -1.55874 2.12132 -2.12132 
C 1.55874 -2.683901 0.795609 -3 0 -3 
C -0.795609 -3 -1.55874 -2.683901 -2.12132 -2.12132 
C -2.683901 -1.55874 -3 -0.795609 -3 0 
C -3 0.795609 -2.683901 1.55874 -2.12132 2.12132 
C -1.55874 2.683901 -0.795609 3 0 3 
z
" id="md0bb1978d0" style="stroke:#000000;"/>
    </defs>
    <g clip-path="url(#pf4e109d896)">
     <use style="fill:#2a2eec;stroke:#000000;" x="306.186865" xlink:href="#md0bb1978d0" y="359.307057"/>
    </g>
   </g>
   <g id="patch_3">
    <path d="M 3.00024 377.390385 
L 585.151116 377.390385 
" style="fill:none;"/>
   </g>
   <g id="text_8">
    <!-- mu -->
    <defs>
     <path d="M 52 44.1875 
Q 55.375 50.25 60.0625 53.125 
Q 64.75 56 71.09375 56 
Q 79.640625 56 84.28125 50.015625 
Q 88.921875 44.046875 88.921875 33.015625 
L 88.921875 0 
L 79.890625 0 
L 79.890625 32.71875 
Q 79.890625 40.578125 77.09375 44.375 
Q 74.3125 48.1875 68.609375 48.1875 
Q 61.625 48.1875 57.5625 43.546875 
Q 53.515625 38.921875 53.515625 30.90625 
L 53.515625 0 
L 44.484375 0 
L 44.484375 32.71875 
Q 44.484375 40.625 41.703125 44.40625 
Q 38.921875 48.1875 33.109375 48.1875 
Q 26.21875 48.1875 22.15625 43.53125 
Q 18.109375 38.875 18.109375 30.90625 
L 18.109375 0 
L 9.078125 0 
L 9.078125 54.6875 
L 18.109375 54.6875 
L 18.109375 46.1875 
Q 21.1875 51.21875 25.484375 53.609375 
Q 29.78125 56 35.6875 56 
Q 41.65625 56 45.828125 52.96875 
Q 50 49.953125 52 44.1875 
z
" id="DejaVuSans-109"/>
     <path d="M 8.5 21.578125 
L 8.5 54.6875 
L 17.484375 54.6875 
L 17.484375 21.921875 
Q 17.484375 14.15625 20.5 10.265625 
Q 23.53125 6.390625 29.59375 6.390625 
Q 36.859375 6.390625 41.078125 11.03125 
Q 45.3125 15.671875 45.3125 23.6875 
L 45.3125 54.6875 
L 54.296875 54.6875 
L 54.296875 0 
L 45.3125 0 
L 45.3125 8.40625 
Q 42.046875 3.421875 37.71875 1 
Q 33.40625 -1.421875 27.6875 -1.421875 
Q 18.265625 -1.421875 13.375 4.4375 
Q 8.5 10.296875 8.5 21.578125 
z
M 31.109375 56 
z
" id="DejaVuSans-117"/>
    </defs>
    <g style="fill:#262626;" transform="translate(281.213178 15.15774)scale(0.16 -0.16)">
     <use xlink:href="#DejaVuSans-109"/>
     <use x="97.412109" xlink:href="#DejaVuSans-117"/>
    </g>
   </g>
  </g>
  <g id="axes_2">
   <g id="patch_4">
    <path d="M 607.168884 377.390385 
L 1189.31976 377.390385 
L 1189.31976 21.15774 
L 607.168884 21.15774 
z
" style="fill:#eeeeee;"/>
   </g>
   <g id="matplotlib.axis_3">
    <g id="xtick_8">
     <g id="line2d_19">
      <path clip-path="url(#p67e72be422)" d="M 607.528577 377.390385 
L 607.528577 21.15774 
" style="fill:none;stroke:#ffffff;stroke-linecap:round;stroke-width:0.8;"/>
     </g>
     <g id="line2d_20"/>
     <g id="text_9">
      <!-- 0 -->
      <g style="fill:#262626;" transform="translate(603.074827 391.528197)scale(0.14 -0.14)">
       <use xlink:href="#DejaVuSans-48"/>
      </g>
     </g>
    </g>
    <g id="xtick_9">
     <g id="line2d_21">
      <path clip-path="url(#p67e72be422)" d="M 720.486809 377.390385 
L 720.486809 21.15774 
" style="fill:none;stroke:#ffffff;stroke-linecap:round;stroke-width:0.8;"/>
     </g>
     <g id="line2d_22"/>
     <g id="text_10">
      <!-- 2 -->
      <g style="fill:#262626;" transform="translate(716.033059 391.528197)scale(0.14 -0.14)">
       <use xlink:href="#DejaVuSans-50"/>
      </g>
     </g>
    </g>
    <g id="xtick_10">
     <g id="line2d_23">
      <path clip-path="url(#p67e72be422)" d="M 833.445041 377.390385 
L 833.445041 21.15774 
" style="fill:none;stroke:#ffffff;stroke-linecap:round;stroke-width:0.8;"/>
     </g>
     <g id="line2d_24"/>
     <g id="text_11">
      <!-- 4 -->
      <g style="fill:#262626;" transform="translate(828.991291 391.528197)scale(0.14 -0.14)">
       <use xlink:href="#DejaVuSans-52"/>
      </g>
     </g>
    </g>
    <g id="xtick_11">
     <g id="line2d_25">
      <path clip-path="url(#p67e72be422)" d="M 946.403274 377.390385 
L 946.403274 21.15774 
" style="fill:none;stroke:#ffffff;stroke-linecap:round;stroke-width:0.8;"/>
     </g>
     <g id="line2d_26"/>
     <g id="text_12">
      <!-- 6 -->
      <g style="fill:#262626;" transform="translate(941.949524 391.528197)scale(0.14 -0.14)">
       <use xlink:href="#DejaVuSans-54"/>
      </g>
     </g>
    </g>
    <g id="xtick_12">
     <g id="line2d_27">
      <path clip-path="url(#p67e72be422)" d="M 1059.361506 377.390385 
L 1059.361506 21.15774 
" style="fill:none;stroke:#ffffff;stroke-linecap:round;stroke-width:0.8;"/>
     </g>
     <g id="line2d_28"/>
     <g id="text_13">
      <!-- 8 -->
      <g style="fill:#262626;" transform="translate(1054.907756 391.528197)scale(0.14 -0.14)">
       <use xlink:href="#DejaVuSans-56"/>
      </g>
     </g>
    </g>
    <g id="xtick_13">
     <g id="line2d_29">
      <path clip-path="url(#p67e72be422)" d="M 1172.319738 377.390385 
L 1172.319738 21.15774 
" style="fill:none;stroke:#ffffff;stroke-linecap:round;stroke-width:0.8;"/>
     </g>
     <g id="line2d_30"/>
     <g id="text_14">
      <!-- 10 -->
      <g style="fill:#262626;" transform="translate(1163.412238 391.528197)scale(0.14 -0.14)">
       <use xlink:href="#DejaVuSans-49"/>
       <use x="63.623047" xlink:href="#DejaVuSans-48"/>
      </g>
     </g>
    </g>
   </g>
   <g id="matplotlib.axis_4"/>
   <g id="line2d_31">
    <path clip-path="url(#p67e72be422)" d="M 633.630287 97.976721 
L 636.289725 97.976721 
L 638.949163 96.225914 
L 641.6086 92.797949 
L 644.268038 87.992049 
L 646.927475 82.101172 
L 649.586913 75.518964 
L 654.905788 61.81233 
L 657.565225 55.511926 
L 660.224663 49.851208 
L 662.8841 45.182317 
L 665.543538 41.602025 
L 668.202975 39.111537 
L 670.862413 37.893507 
L 673.52185 37.350133 
L 676.181288 37.800049 
L 678.840726 38.962806 
L 681.500163 40.918711 
L 684.159601 43.113882 
L 686.819038 45.735055 
L 689.478476 48.734726 
L 692.137913 52.084753 
L 694.797351 55.791122 
L 697.456788 59.751091 
L 700.116226 63.978002 
L 702.775663 68.49851 
L 705.435101 73.294304 
L 724.051164 109.79333 
L 726.710601 114.509888 
L 732.029476 123.118357 
L 734.688914 126.946729 
L 737.348351 130.518746 
L 740.007789 133.794832 
L 742.667226 136.79104 
L 745.326664 139.590914 
L 747.986101 142.191696 
L 753.304976 146.940768 
L 758.623852 151.285491 
L 761.283289 153.267153 
L 766.602164 156.904718 
L 771.921039 160.043802 
L 782.558789 165.52325 
L 787.877664 168.371605 
L 790.537102 169.997747 
L 793.196539 171.789386 
L 795.855977 173.776773 
L 798.515415 175.94677 
L 803.83429 180.689521 
L 814.47204 191.179907 
L 819.790915 196.291631 
L 822.450352 198.743528 
L 827.769227 203.168188 
L 833.088102 206.972592 
L 835.74754 208.670433 
L 838.406978 210.213383 
L 843.725853 212.838389 
L 849.044728 215.090299 
L 859.682478 219.401955 
L 865.001353 222.013892 
L 870.320228 225.19632 
L 872.979665 227.014671 
L 878.298541 231.108765 
L 894.255166 244.339117 
L 896.914603 246.266463 
L 899.574041 248.012758 
L 902.233478 249.608557 
L 904.892916 250.999841 
L 907.552353 252.240563 
L 912.871228 254.313444 
L 923.508979 258.090359 
L 926.168416 259.189788 
L 928.827854 260.416523 
L 931.487291 261.79008 
L 936.806166 264.917284 
L 944.784479 270.259219 
L 950.103354 273.826909 
L 955.422229 277.092203 
L 958.081667 278.533019 
L 960.741104 279.802061 
L 963.400542 280.933479 
L 968.719417 282.747805 
L 974.038292 284.218681 
L 982.016604 286.285169 
L 987.335479 287.903398 
L 992.654354 289.880769 
L 997.973229 292.24594 
L 1003.292105 294.849411 
L 1011.270417 298.868028 
L 1019.24873 302.556292 
L 1024.567605 304.735476 
L 1029.88648 306.660288 
L 1035.205355 308.356649 
L 1040.52423 309.788923 
L 1045.843105 310.96844 
L 1051.16198 311.916525 
L 1056.480855 312.631631 
L 1064.459168 313.511375 
L 1080.415793 315.040485 
L 1085.734668 315.36513 
L 1093.712981 315.479442 
L 1101.691293 315.492737 
L 1107.010168 315.674362 
L 1112.329043 316.182594 
L 1117.647918 317.065444 
L 1122.966794 318.269268 
L 1130.945106 320.419223 
L 1138.923419 322.586151 
L 1144.242294 323.89991 
L 1149.561169 325.015215 
L 1154.880044 325.882721 
L 1157.539481 326.225377 
L 1162.858357 326.589369 
L 1162.858357 326.589369 
" style="fill:none;stroke:#2a2eec;stroke-linecap:round;stroke-width:1.5;"/>
   </g>
   <g id="line2d_32">
    <path clip-path="url(#p67e72be422)" d="M 633.630287 361.197992 
L 633.630287 97.976721 
" style="fill:none;stroke:#2a2eec;stroke-linecap:round;stroke-width:1.5;"/>
   </g>
   <g id="line2d_33">
    <path clip-path="url(#p67e72be422)" d="M 1162.858357 358.911866 
L 1162.858357 326.589369 
" style="fill:none;stroke:#2a2eec;stroke-linecap:round;stroke-width:1.5;"/>
   </g>
   <g id="line2d_34">
    <g clip-path="url(#p67e72be422)">
     <use style="fill:#2a2eec;stroke:#000000;" x="834.361619" xlink:href="#md0bb1978d0" y="358.591841"/>
    </g>
   </g>
   <g id="patch_5">
    <path d="M 607.168884 377.390385 
L 1189.31976 377.390385 
" style="fill:none;"/>
   </g>
   <g id="text_15">
    <!-- tau -->
    <defs>
     <path d="M 18.3125 70.21875 
L 18.3125 54.6875 
L 36.8125 54.6875 
L 36.8125 47.703125 
L 18.3125 47.703125 
L 18.3125 18.015625 
Q 18.3125 11.328125 20.140625 9.421875 
Q 21.96875 7.515625 27.59375 7.515625 
L 36.8125 7.515625 
L 36.8125 0 
L 27.59375 0 
Q 17.1875 0 13.234375 3.875 
Q 9.28125 7.765625 9.28125 18.015625 
L 9.28125 47.703125 
L 2.6875 47.703125 
L 2.6875 54.6875 
L 9.28125 54.6875 
L 9.28125 70.21875 
z
" id="DejaVuSans-116"/>
     <path d="M 34.28125 27.484375 
Q 23.390625 27.484375 19.1875 25 
Q 14.984375 22.515625 14.984375 16.5 
Q 14.984375 11.71875 18.140625 8.90625 
Q 21.296875 6.109375 26.703125 6.109375 
Q 34.1875 6.109375 38.703125 11.40625 
Q 43.21875 16.703125 43.21875 25.484375 
L 43.21875 27.484375 
z
M 52.203125 31.203125 
L 52.203125 0 
L 43.21875 0 
L 43.21875 8.296875 
Q 40.140625 3.328125 35.546875 0.953125 
Q 30.953125 -1.421875 24.3125 -1.421875 
Q 15.921875 -1.421875 10.953125 3.296875 
Q 6 8.015625 6 15.921875 
Q 6 25.140625 12.171875 29.828125 
Q 18.359375 34.515625 30.609375 34.515625 
L 43.21875 34.515625 
L 43.21875 35.40625 
Q 43.21875 41.609375 39.140625 45 
Q 35.0625 48.390625 27.6875 48.390625 
Q 23 48.390625 18.546875 47.265625 
Q 14.109375 46.140625 10.015625 43.890625 
L 10.015625 52.203125 
Q 14.9375 54.109375 19.578125 55.046875 
Q 24.21875 56 28.609375 56 
Q 40.484375 56 46.34375 49.84375 
Q 52.203125 43.703125 52.203125 31.203125 
z
" id="DejaVuSans-97"/>
    </defs>
    <g style="fill:#262626;" transform="translate(885.135572 15.15774)scale(0.16 -0.16)">
     <use xlink:href="#DejaVuSans-116"/>
     <use x="39.208984" xlink:href="#DejaVuSans-97"/>
     <use x="100.488281" xlink:href="#DejaVuSans-117"/>
    </g>
   </g>
  </g>
 </g>
 <defs>
  <clipPath id="pf4e109d896">
   <rect height="356.232645" width="582.150876" x="3.00024" y="21.15774"/>
  </clipPath>
  <clipPath id="p67e72be422">
   <rect height="356.232645" width="582.150876" x="607.168884" y="21.15774"/>
  </clipPath>
 </defs>
</svg>
